<?xml version="1.0" standalone="no"?>
<!DOCTYPE svg PUBLIC "-//W3C//DTD SVG 1.1//EN" "http://www.w3.org/Graphics/SVG/1.1/DTD/svg11.dtd" >
<svg xmlns="http://www.w3.org/2000/svg" xmlns:xlink="http://www.w3.org/1999/xlink" version="1.1">
<metadata>
Created by FontForge 20170924 at Tue May 10 10:09:17 2022
 By www
2022 \(C\) Copyright by Mans Greback AB 
</metadata>
<defs>
<font id="SilianRailPERSONALUSE-Regular" horiz-adv-x="298" >
  <font-face 
    font-family="Silian Rail PERSONAL USE"
    font-weight="400"
    font-stretch="normal"
    units-per-em="1000"
    panose-1="0 0 0 0 0 0 0 0 0 0"
    ascent="800"
    descent="-200"
    x-height="581"
    cap-height="810"
    bbox="-27.561 -338.728 2688 1099"
    underline-thickness="50"
    underline-position="-125"
    unicode-range="U+0020-FF3C"
  />
    <missing-glyph />
    <glyph glyph-name="space" unicode=" " horiz-adv-x="300" 
 />
    <glyph glyph-name="A" unicode="A" horiz-adv-x="869" 
d="M47 8c-20 0 -31 9 -29 22c3 15 12 23 29 26l21 4c31 7 55 37 70 76l223 624c5 14 15 24 29 29l3 1c27 9 46 22 68 39c13 10 21 15 27 12c5 -3 7 -11 9 -28c3 -27 12 -63 29 -110l214 -592c10 -26 23 -46 52 -51l30 -5c17 -3 26 -11 29 -25c2 -13 -9 -22 -29 -22h-292
c-20 0 -31 9 -29 22c2 15 11 23 28 26l22 4c35 7 51 31 41 57l-60 168h-277l-61 -168c-9 -27 6 -50 42 -57l21 -4c17 -3 26 -12 29 -26c2 -13 -9 -22 -29 -22h-210zM278 347h230l-115 317z" />
    <glyph glyph-name="Aacute" unicode="&#xc1;" horiz-adv-x="869" 
d="M47 8c-20 0 -31 9 -29 22c3 15 12 23 29 26l21 4c31 7 55 37 70 76l223 624c5 14 15 24 29 29l3 1c27 9 46 22 68 39c13 10 21 15 27 12c5 -3 7 -11 9 -28c3 -27 12 -63 29 -110l214 -592c10 -26 23 -46 52 -51l30 -5c17 -3 26 -11 29 -25c2 -13 -9 -22 -29 -22h-292
c-20 0 -31 9 -29 22c2 15 11 23 28 26l22 4c35 7 51 31 41 57l-60 168h-277l-61 -168c-9 -27 6 -50 42 -57l21 -4c17 -3 26 -12 29 -26c2 -13 -9 -22 -29 -22h-210zM307 888c-9 12 -6 24 9 37c37 33 71 77 96 118c26 41 85 43 116 -2c30 -43 8 -97 -40 -108
c-45 -11 -98 -26 -142 -49c-17 -9 -30 -9 -39 4zM278 347h230l-115 317z" />
    <glyph glyph-name="Acircumflex" unicode="&#xc2;" horiz-adv-x="869" 
d="M47 8c-20 0 -31 9 -29 22c3 15 12 23 29 26l21 4c31 7 55 37 70 76l223 624c5 14 15 24 29 29l3 1c27 9 46 22 68 39c13 10 21 15 27 12c5 -3 7 -11 9 -28c3 -27 12 -63 29 -110l214 -592c10 -26 23 -46 52 -51l30 -5c17 -3 26 -11 29 -25c2 -13 -9 -22 -29 -22h-292
c-20 0 -31 9 -29 22c2 15 11 23 28 26l22 4c35 7 51 31 41 57l-60 168h-277l-61 -168c-9 -27 6 -50 42 -57l21 -4c17 -3 26 -12 29 -26c2 -13 -9 -22 -29 -22h-210zM264 872c-6 10 -3 20 10 33l124 115c14 13 28 13 42 0l118 -112c13 -13 17 -23 11 -33s-18 -10 -34 -2
l-115 55l-121 -59c-17 -8 -29 -7 -35 3zM278 347h230l-115 317z" />
    <glyph glyph-name="Adieresis" unicode="&#xc4;" horiz-adv-x="869" 
d="M47 8c-20 0 -31 9 -29 22c3 15 12 23 29 26l21 4c31 7 55 37 70 76l223 624c5 14 15 24 29 29l3 1c27 9 46 22 68 39c13 10 21 15 27 12c5 -3 7 -11 9 -28c3 -27 12 -63 29 -110l214 -592c10 -26 23 -46 52 -51l30 -5c17 -3 26 -11 29 -25c2 -13 -9 -22 -29 -22h-292
c-20 0 -31 9 -29 22c2 15 11 23 28 26l22 4c35 7 51 31 41 57l-60 168h-277l-61 -168c-9 -27 6 -50 42 -57l21 -4c17 -3 26 -12 29 -26c2 -13 -9 -22 -29 -22h-210zM202 964c0 46 36 82 83 82c48 0 84 -36 84 -82c0 -47 -36 -83 -84 -83c-47 0 -83 36 -83 83zM278 347h230
l-115 317zM462 964c0 46 36 82 83 82c48 0 84 -36 84 -82c0 -47 -36 -83 -84 -83c-47 0 -83 36 -83 83z" />
    <glyph glyph-name="Agrave" unicode="&#xc0;" horiz-adv-x="869" 
d="M47 8c-20 0 -31 9 -29 22c3 15 12 23 29 26l21 4c31 7 55 37 70 76l223 624c5 14 15 24 29 29l3 1c27 9 46 22 68 39c13 10 21 15 27 12c5 -3 7 -11 9 -28c3 -27 12 -63 29 -110l214 -592c10 -26 23 -46 52 -51l30 -5c17 -3 26 -11 29 -25c2 -13 -9 -22 -29 -22h-292
c-20 0 -31 9 -29 22c2 15 11 23 28 26l22 4c35 7 51 31 41 57l-60 168h-277l-61 -168c-9 -27 6 -50 42 -57l21 -4c17 -3 26 -12 29 -26c2 -13 -9 -22 -29 -22h-210zM278 347h230l-115 317zM304 1041c31 45 90 43 116 2c25 -41 59 -85 96 -118c15 -13 18 -25 9 -37
s-22 -13 -39 -4c-44 23 -97 38 -142 49c-48 11 -70 65 -40 108z" />
    <glyph glyph-name="Aring" unicode="&#xc5;" horiz-adv-x="869" 
d="M47 8c-20 0 -31 9 -29 22c3 15 12 23 29 26l21 4c31 7 55 37 70 76l223 624c5 14 15 24 29 29l3 1c27 9 46 22 68 39c13 10 21 15 27 12c5 -3 7 -11 9 -28c3 -27 12 -63 29 -110l214 -592c10 -26 23 -46 52 -51l30 -5c17 -3 26 -11 29 -25c2 -13 -9 -22 -29 -22h-292
c-20 0 -31 9 -29 22c2 15 11 23 28 26l22 4c35 7 51 31 41 57l-60 168h-277l-61 -168c-9 -27 6 -50 42 -57l21 -4c17 -3 26 -12 29 -26c2 -13 -9 -22 -29 -22h-210zM292 975c0 72 52 124 124 124s123 -52 123 -124s-51 -124 -123 -124s-124 52 -124 124zM278 347h230
l-115 317zM342 974c0 -42 33 -75 75 -75s75 33 75 75s-33 75 -75 75s-75 -33 -75 -75z" />
    <glyph glyph-name="Atilde" unicode="&#xc3;" horiz-adv-x="869" 
d="M47 8c-20 0 -31 9 -29 22c3 15 12 23 29 26l21 4c31 7 55 37 70 76l223 624c5 14 15 24 29 29l3 1c27 9 46 22 68 39c13 10 21 15 27 12c5 -3 7 -11 9 -28c3 -27 12 -63 29 -110l214 -592c10 -26 23 -46 52 -51l30 -5c17 -3 26 -11 29 -25c2 -13 -9 -22 -29 -22h-292
c-20 0 -31 9 -29 22c2 15 11 23 28 26l22 4c35 7 51 31 41 57l-60 168h-277l-61 -168c-9 -27 6 -50 42 -57l21 -4c17 -3 26 -12 29 -26c2 -13 -9 -22 -29 -22h-210zM255 901c-10 2 -16 13 -11 32c22 89 109 120 182 66c59 -41 100 -40 122 -11c11 15 18 23 28 20
s15 -15 10 -33c-26 -95 -126 -112 -189 -66c-56 41 -93 40 -114 12c-11 -15 -17 -23 -28 -20zM278 347h230l-115 317z" />
    <glyph glyph-name="AE" unicode="&#xc6;" horiz-adv-x="1172" 
d="M42 8c-20 0 -31 9 -29 22c3 15 12 23 29 26l21 4c32 7 47 40 69 75l391 611c3 9 -5 11 -9 12l-21 4c-17 3 -26 13 -28 27c-2 13 9 21 29 21h537c19 0 30 -12 29 -31l-7 -135c-1 -19 -9 -29 -23 -28s-22 11 -24 30c-9 78 -41 102 -148 102h-125c-33 0 -44 -31 -44 -53
v-264c70 7 192 20 220 33c20 10 31 25 39 40c8 17 17 25 28 22s16 -14 14 -32l-18 -162c-2 -19 -10 -29 -21 -28c-12 1 -16 10 -20 28c-8 29 -34 56 -109 54c-102 -2 -133 -24 -133 -77v-175c0 -39 21 -64 60 -64h142c80 0 145 30 190 93c11 15 20 22 28 18s10 -16 4 -33
l-36 -115c-5 -16 -17 -25 -34 -25h-549c-20 0 -31 9 -29 22c2 15 11 23 28 26l21 4c32 6 42 32 42 54v171h-247l-109 -167c-17 -26 4 -51 41 -58l21 -4c17 -3 26 -12 29 -26c2 -13 -9 -22 -29 -22h-220zM349 347h207v316z" />
    <glyph glyph-name="B" unicode="B" horiz-adv-x="735" 
d="M383 -2l-301 9c-20 1 -31 10 -29 23c3 15 12 23 29 26l21 4c32 7 42 32 42 54v591c0 22 -12 47 -42 53l-21 4c-17 3 -26 13 -29 27c-2 13 9 21 29 21h301c34 0 83 -2 133 -12c13 -3 23 -6 34 -14c53 -35 80 -88 80 -154c0 -88 -62 -163 -172 -191l122 -28
c13 -3 23 -6 34 -14c37 -27 73 -80 73 -153c0 -166 -146 -246 -304 -246zM278 123c0 -44 22 -63 54 -63h41c86 0 160 36 160 167c0 123 -79 181 -189 181c-42 0 -66 -19 -66 -49v-236zM278 455c148 -2 215 46 215 166c0 104 -83 127 -130 127h-30c-38 0 -55 -22 -55 -53
v-240z" />
    <glyph glyph-name="C" unicode="C" horiz-adv-x="861" 
d="M496 -2c-239 0 -448 151 -448 403s242 419 472 419c109 0 199 -21 272 -55c15 -7 21 -19 21 -35v-124c0 -19 -9 -30 -24 -30c-16 0 -25 9 -29 27c-26 101 -119 155 -257 155c-178 0 -298 -124 -298 -357c0 -181 129 -341 318 -341c101 0 178 56 239 132
c12 15 23 20 33 15c11 -6 14 -17 9 -34l-27 -97c-4 -16 -10 -23 -20 -27c-62 -28 -165 -51 -261 -51z" />
    <glyph glyph-name="Ccedilla" unicode="&#xc7;" horiz-adv-x="861" 
d="M48 401c0 252 242 419 472 419c109 0 199 -21 272 -55c15 -7 21 -19 21 -35v-124c0 -19 -9 -30 -24 -30c-16 0 -25 9 -29 27c-26 101 -119 155 -257 155c-178 0 -298 -124 -298 -357c0 -181 129 -341 318 -341c101 0 178 56 239 132c12 15 23 20 33 15
c11 -6 14 -17 9 -34l-27 -97c-4 -16 -12 -24 -26 -30c-53 -22 -134 -42 -214 -46l-13 -47c67 -4 112 -51 110 -114c-5 -138 -191 -151 -228 -68c-29 68 55 100 75 52c19 -49 86 -37 88 13c2 46 -37 69 -87 59c-16 -3 -28 -3 -37 5c-9 9 -10 21 -1 36l34 62
c-232 8 -430 157 -430 403z" />
    <glyph glyph-name="D" unicode="D" horiz-adv-x="905" 
d="M402 -2l-321 9c-20 1 -30 10 -28 23c2 15 11 23 28 26l21 4c33 6 43 32 43 54v591c0 22 -13 47 -42 53l-22 4c-17 3 -26 13 -28 27c-2 13 9 21 29 21h320c92 0 180 -16 244 -41c143 -67 211 -193 211 -332c0 -245 -194 -439 -455 -439zM277 123c0 -44 23 -63 55 -63h60
c165 0 310 154 310 360c0 220 -142 328 -296 328h-73c-39 0 -56 -22 -56 -53v-572z" />
    <glyph glyph-name="Eth" unicode="&#xd0;" horiz-adv-x="905" 
d="M402 -2l-321 9c-20 1 -30 10 -28 23c2 15 11 23 28 26l21 4c33 6 43 32 43 54v271h-66c-19 0 -30 9 -30 25c0 15 11 24 30 24h66v271c0 22 -13 47 -42 53l-22 4c-17 3 -26 13 -28 27c-2 13 9 21 29 21h320c92 0 180 -16 244 -41c143 -67 211 -193 211 -332
c0 -245 -194 -439 -455 -439zM277 123c0 -44 23 -63 55 -63h60c165 0 310 154 310 360c0 220 -142 328 -296 328h-73c-39 0 -56 -22 -56 -53v-261h130c19 0 30 -8 30 -24s-11 -25 -30 -25h-130v-262z" />
    <glyph glyph-name="E" unicode="E" horiz-adv-x="760" 
d="M665 33c-5 -16 -17 -25 -34 -25h-549c-20 0 -31 9 -29 22c2 15 11 23 28 26l21 4c32 6 42 32 42 54v591c0 21 -12 47 -41 53l-22 4c-17 3 -26 13 -28 27c-2 13 9 21 29 21h537c19 0 30 -12 29 -31l-7 -135c-1 -19 -9 -29 -23 -28s-22 11 -24 30c-9 78 -41 102 -148 102
h-125c-33 0 -44 -31 -44 -53v-264c70 7 192 20 220 33c20 10 31 25 39 40c8 17 17 25 28 22s16 -14 14 -32l-18 -162c-2 -19 -10 -29 -21 -28c-12 1 -16 10 -20 28c-8 29 -34 56 -109 54c-102 -2 -133 -24 -133 -77v-175c0 -39 21 -64 60 -64h142c80 0 145 30 190 93
c11 15 20 22 28 18s10 -16 4 -33z" />
    <glyph glyph-name="Eacute" unicode="&#xc9;" horiz-adv-x="760" 
d="M665 33c-5 -16 -17 -25 -34 -25h-549c-20 0 -31 9 -29 22c2 15 11 23 28 26l21 4c32 6 42 32 42 54v591c0 21 -12 47 -41 53l-22 4c-17 3 -26 13 -28 27c-2 13 9 21 29 21h537c19 0 30 -12 29 -31l-7 -135c-1 -19 -9 -29 -23 -28s-22 11 -24 30c-9 78 -41 102 -148 102
h-125c-33 0 -44 -31 -44 -53v-264c70 7 192 20 220 33c20 10 31 25 39 40c8 17 17 25 28 22s16 -14 14 -32l-18 -162c-2 -19 -10 -29 -21 -28c-12 1 -16 10 -20 28c-8 29 -34 56 -109 54c-102 -2 -133 -24 -133 -77v-175c0 -39 21 -64 60 -64h142c80 0 145 30 190 93
c11 15 20 22 28 18s10 -16 4 -33zM271 879c-9 12 -6 24 9 37c37 33 71 77 96 118c26 41 85 43 116 -2c30 -43 8 -97 -40 -108c-45 -11 -98 -26 -142 -49c-17 -9 -30 -9 -39 4z" />
    <glyph glyph-name="Ecircumflex" unicode="&#xca;" horiz-adv-x="760" 
d="M665 33c-5 -16 -17 -25 -34 -25h-549c-20 0 -31 9 -29 22c2 15 11 23 28 26l21 4c32 6 42 32 42 54v591c0 21 -12 47 -41 53l-22 4c-17 3 -26 13 -28 27c-2 13 9 21 29 21h537c19 0 30 -12 29 -31l-7 -135c-1 -19 -9 -29 -23 -28s-22 11 -24 30c-9 78 -41 102 -148 102
h-125c-33 0 -44 -31 -44 -53v-264c70 7 192 20 220 33c20 10 31 25 39 40c8 17 17 25 28 22s16 -14 14 -32l-18 -162c-2 -19 -10 -29 -21 -28c-12 1 -16 10 -20 28c-8 29 -34 56 -109 54c-102 -2 -133 -24 -133 -77v-175c0 -39 21 -64 60 -64h142c80 0 145 30 190 93
c11 15 20 22 28 18s10 -16 4 -33zM228 863c-6 10 -3 20 10 33l124 115c14 13 28 13 42 0l118 -112c13 -13 17 -23 11 -33s-18 -10 -34 -2l-115 55l-121 -59c-17 -8 -29 -7 -35 3z" />
    <glyph glyph-name="Edieresis" unicode="&#xcb;" horiz-adv-x="760" 
d="M665 33c-5 -16 -17 -25 -34 -25h-549c-20 0 -31 9 -29 22c2 15 11 23 28 26l21 4c32 6 42 32 42 54v591c0 21 -12 47 -41 53l-22 4c-17 3 -26 13 -28 27c-2 13 9 21 29 21h537c19 0 30 -12 29 -31l-7 -135c-1 -19 -9 -29 -23 -28s-22 11 -24 30c-9 78 -41 102 -148 102
h-125c-33 0 -44 -31 -44 -53v-264c70 7 192 20 220 33c20 10 31 25 39 40c8 17 17 25 28 22s16 -14 14 -32l-18 -162c-2 -19 -10 -29 -21 -28c-12 1 -16 10 -20 28c-8 29 -34 56 -109 54c-102 -2 -133 -24 -133 -77v-175c0 -39 21 -64 60 -64h142c80 0 145 30 190 93
c11 15 20 22 28 18s10 -16 4 -33zM166 955c0 46 36 82 83 82c48 0 84 -36 84 -82c0 -47 -36 -83 -84 -83c-47 0 -83 36 -83 83zM426 955c0 46 36 82 83 82c48 0 84 -36 84 -82c0 -47 -36 -83 -84 -83c-47 0 -83 36 -83 83z" />
    <glyph glyph-name="Egrave" unicode="&#xc8;" horiz-adv-x="760" 
d="M665 33c-5 -16 -17 -25 -34 -25h-549c-20 0 -31 9 -29 22c2 15 11 23 28 26l21 4c32 6 42 32 42 54v591c0 21 -12 47 -41 53l-22 4c-17 3 -26 13 -28 27c-2 13 9 21 29 21h537c19 0 30 -12 29 -31l-7 -135c-1 -19 -9 -29 -23 -28s-22 11 -24 30c-9 78 -41 102 -148 102
h-125c-33 0 -44 -31 -44 -53v-264c70 7 192 20 220 33c20 10 31 25 39 40c8 17 17 25 28 22s16 -14 14 -32l-18 -162c-2 -19 -10 -29 -21 -28c-12 1 -16 10 -20 28c-8 29 -34 56 -109 54c-102 -2 -133 -24 -133 -77v-175c0 -39 21 -64 60 -64h142c80 0 145 30 190 93
c11 15 20 22 28 18s10 -16 4 -33zM268 1032c31 45 90 43 116 2c25 -41 59 -85 96 -118c15 -13 18 -25 9 -37s-22 -13 -39 -4c-44 23 -97 38 -142 49c-48 11 -70 65 -40 108z" />
    <glyph glyph-name="uni01B7" unicode="&#x1b7;" horiz-adv-x="730" 
d="M308 -2c-74 0 -134 17 -182 43c-14 9 -22 21 -16 37c8 23 28 46 53 57c16 8 28 0 37 -16c26 -44 60 -70 121 -70c77 0 145 82 145 168c0 107 -68 183 -195 159c-18 -4 -29 -2 -34 10c-5 11 -4 22 6 36l244 326h-278c-53 0 -92 -29 -123 -95c-4 -8 -11 -9 -21 -4
s-14 17 -10 34l31 139c4 19 14 28 26 26c13 -2 18 -11 29 -24c8 -9 20 -14 33 -14h463c15 0 26 -3 33 -12c6 -8 5 -19 -6 -34l-245 -319c67 3 177 -50 177 -180c0 -142 -111 -267 -288 -267z" />
    <glyph glyph-name="F" unicode="F" horiz-adv-x="698" 
d="M82 8c-20 0 -31 9 -29 22c2 15 12 22 29 25l20 4c33 6 43 32 43 54v591c0 22 -11 48 -43 54l-21 4c-17 3 -26 11 -28 26c-2 13 9 22 29 22h537c19 0 30 -12 29 -31l-7 -136c-1 -19 -8 -29 -22 -28s-22 11 -24 29c-10 80 -42 104 -149 104h-125c-33 0 -44 -32 -44 -54
v-273c69 7 192 20 220 33c20 9 32 24 40 40c8 17 16 25 27 22s16 -14 14 -32l-18 -162c-2 -19 -10 -29 -21 -28c-12 1 -15 10 -20 28c-7 29 -34 54 -108 53c-104 -1 -134 -44 -134 -96v-166c0 -22 8 -48 43 -54l21 -4c17 -3 27 -11 29 -25s-9 -22 -29 -22h-259z" />
    <glyph glyph-name="G" unicode="G" horiz-adv-x="936" 
d="M496 -2c-240 0 -448 151 -448 403s242 418 472 418c109 0 198 -20 271 -54c16 -7 22 -19 22 -35v-124c0 -19 -9 -30 -24 -30c-16 0 -25 9 -29 27c-26 101 -119 155 -257 155c-179 0 -299 -125 -299 -357c0 -196 137 -342 300 -342c134 0 164 32 164 107v92
c0 22 -12 47 -42 54l-12 3c-16 4 -25 12 -28 27c-2 13 9 22 29 22h239c20 0 32 -8 30 -22c-3 -15 -13 -23 -29 -27l-12 -3c-31 -7 -42 -32 -42 -54v-182c0 -18 -9 -29 -27 -32l-95 -18c-53 -16 -116 -28 -183 -28z" />
    <glyph glyph-name="H" unicode="H" horiz-adv-x="944" 
d="M82 8c-20 0 -31 9 -29 22c3 15 12 22 29 25l20 4c33 6 43 32 43 54v591c0 22 -11 48 -43 54l-20 4c-17 3 -26 11 -29 26c-2 13 9 22 29 22h259c20 0 31 -9 29 -22c-3 -15 -12 -23 -29 -26l-20 -4c-32 -6 -43 -32 -43 -54v-265h388v265c0 22 -11 48 -43 54l-20 4
c-17 3 -26 11 -29 26c-2 13 9 22 29 22h259c20 0 31 -9 29 -22c-3 -15 -12 -23 -29 -26l-20 -4c-32 -6 -43 -32 -43 -54v-591c0 -22 8 -48 43 -54l20 -4c17 -3 26 -11 29 -25c2 -13 -9 -22 -29 -22h-259c-20 0 -31 9 -29 22c3 15 12 22 29 25l20 4c33 6 43 32 43 54v265
h-388v-265c0 -22 8 -48 43 -54l20 -4c17 -3 26 -11 29 -25c2 -13 -9 -22 -29 -22h-259z" />
    <glyph glyph-name="I" unicode="I" horiz-adv-x="422" 
d="M82 8c-20 0 -31 9 -29 22c2 15 11 23 28 26l21 4c34 6 42 32 42 54v591c0 21 -12 47 -41 53l-22 4c-17 3 -26 13 -28 27c-2 13 9 21 29 21h258c20 0 31 -8 29 -21c-3 -15 -12 -24 -29 -27l-20 -4c-32 -6 -43 -32 -43 -53v-591c0 -22 8 -47 42 -54l21 -4
c17 -3 26 -12 29 -26c2 -13 -9 -22 -29 -22h-258z" />
    <glyph glyph-name="Iacute" unicode="&#xcd;" horiz-adv-x="422" 
d="M82 8c-20 0 -31 9 -29 22c2 15 11 23 28 26l21 4c34 6 42 32 42 54v591c0 21 -12 47 -41 53l-22 4c-17 3 -26 13 -28 27c-2 13 9 21 29 21h258c20 0 31 -8 29 -21c-3 -15 -12 -24 -29 -27l-20 -4c-32 -6 -43 -32 -43 -53v-591c0 -22 8 -47 42 -54l21 -4
c17 -3 26 -12 29 -26c2 -13 -9 -22 -29 -22h-258zM102 879c-9 12 -6 24 9 37c37 33 71 77 96 118c26 41 85 43 116 -2c30 -43 8 -97 -40 -108c-45 -11 -98 -26 -142 -49c-17 -9 -30 -9 -39 4z" />
    <glyph glyph-name="Icircumflex" unicode="&#xce;" horiz-adv-x="422" 
d="M82 8c-20 0 -31 9 -29 22c2 15 11 23 28 26l21 4c34 6 42 32 42 54v591c0 21 -12 47 -41 53l-22 4c-17 3 -26 13 -28 27c-2 13 9 21 29 21h258c20 0 31 -8 29 -21c-3 -15 -12 -24 -29 -27l-20 -4c-32 -6 -43 -32 -43 -53v-591c0 -22 8 -47 42 -54l21 -4
c17 -3 26 -12 29 -26c2 -13 -9 -22 -29 -22h-258zM59 863c-6 10 -3 20 10 33l124 115c14 13 28 13 42 0l118 -112c13 -13 17 -23 11 -33s-18 -10 -34 -2l-115 55l-121 -59c-17 -8 -29 -7 -35 3z" />
    <glyph glyph-name="Idieresis" unicode="&#xcf;" horiz-adv-x="422" 
d="M82 8c-20 0 -31 9 -29 22c2 15 11 23 28 26l21 4c34 6 42 32 42 54v591c0 21 -12 47 -41 53l-22 4c-17 3 -26 13 -28 27c-2 13 9 21 29 21h258c20 0 31 -8 29 -21c-3 -15 -12 -24 -29 -27l-20 -4c-32 -6 -43 -32 -43 -53v-591c0 -22 8 -47 42 -54l21 -4
c17 -3 26 -12 29 -26c2 -13 -9 -22 -29 -22h-258zM-3 955c0 46 36 82 83 82c48 0 84 -36 84 -82c0 -47 -36 -83 -84 -83c-47 0 -83 36 -83 83zM257 955c0 46 36 82 83 82c48 0 84 -36 84 -82c0 -47 -36 -83 -84 -83c-47 0 -83 36 -83 83z" />
    <glyph glyph-name="Igrave" unicode="&#xcc;" horiz-adv-x="422" 
d="M82 8c-20 0 -31 9 -29 22c2 15 11 23 28 26l21 4c34 6 42 32 42 54v591c0 21 -12 47 -41 53l-22 4c-17 3 -26 13 -28 27c-2 13 9 21 29 21h258c20 0 31 -8 29 -21c-3 -15 -12 -24 -29 -27l-20 -4c-32 -6 -43 -32 -43 -53v-591c0 -22 8 -47 42 -54l21 -4
c17 -3 26 -12 29 -26c2 -13 -9 -22 -29 -22h-258zM99 1032c31 45 90 43 116 2c25 -41 59 -85 96 -118c15 -13 18 -25 9 -37s-22 -13 -39 -4c-44 23 -97 38 -142 49c-48 11 -70 65 -40 108z" />
    <glyph glyph-name="J" unicode="J" horiz-adv-x="469" 
d="M19 0c6 14 17 19 35 17c79 -9 137 39 137 126v561c0 22 -11 48 -43 54l-20 4c-17 3 -26 11 -29 26c-2 13 9 22 29 22h259c20 0 31 -9 29 -22c-3 -15 -12 -23 -29 -26l-20 -4c-32 -6 -43 -32 -43 -54v-570c0 -150 -103 -241 -286 -168c-18 7 -25 20 -19 34z" />
    <glyph glyph-name="K" unicode="K" horiz-adv-x="825" 
d="M82 8c-20 0 -31 9 -29 22c2 15 12 22 29 25l20 4c33 6 43 32 43 54v591c0 23 -12 49 -43 54l-21 4c-17 3 -26 11 -28 26c-2 13 9 22 29 22h258c20 0 31 -9 29 -22c-3 -15 -12 -23 -29 -26l-20 -4c-32 -6 -43 -32 -43 -54v-265l264 259c26 27 7 54 -23 60l-12 3
c-16 4 -25 12 -28 27c-2 13 9 22 29 22h236c20 0 32 -8 30 -22c-3 -15 -12 -23 -28 -27l-8 -2c-50 -12 -75 -29 -135 -87l-235 -231l329 -298c37 -33 61 -49 84 -57c16 -5 25 -9 29 -19c4 -11 -3 -20 -21 -27l-102 -42c-16 -7 -29 -4 -41 8l-368 347v-240
c0 -22 8 -48 43 -54l20 -4c17 -3 26 -11 29 -25c2 -13 -9 -22 -29 -22h-258z" />
    <glyph glyph-name="L" unicode="L" horiz-adv-x="760" 
d="M82 8c-20 0 -31 9 -29 22c3 15 12 22 29 25l20 4c33 6 43 32 43 54v591c0 22 -11 48 -43 54l-20 4c-17 3 -26 11 -29 26c-2 13 9 22 29 22h259c20 0 31 -9 29 -22c-3 -15 -12 -23 -29 -26l-20 -4c-32 -6 -43 -32 -43 -54v-571c0 -38 21 -64 59 -64h143
c80 0 144 31 189 93c12 16 21 22 29 18s10 -16 4 -33l-37 -114c-5 -17 -17 -25 -34 -25h-549z" />
    <glyph glyph-name="uni1E38" unicode="&#x1e38;" horiz-adv-x="760" 
d="M82 8c-20 0 -31 9 -29 22c3 15 12 22 29 25l20 4c33 6 43 32 43 54v591c0 22 -11 48 -43 54l-20 4c-17 3 -26 11 -29 26c-2 13 9 22 29 22h259c20 0 31 -9 29 -22c-3 -15 -12 -23 -29 -26l-20 -4c-32 -6 -43 -32 -43 -54v-571c0 -38 21 -64 59 -64h143
c80 0 144 31 189 93c12 16 21 22 29 18s10 -16 4 -33l-37 -114c-5 -17 -17 -25 -34 -25h-549zM232 924c-19 0 -30 10 -30 27c0 16 11 26 30 26h295c19 0 30 -9 30 -26s-11 -27 -30 -27h-295zM297 -137c0 47 36 83 84 83c47 0 83 -36 83 -83c0 -46 -36 -82 -83 -82
c-48 0 -84 36 -84 82z" />
    <glyph glyph-name="uni1E3A" unicode="&#x1e3a;" horiz-adv-x="760" 
d="M82 8c-20 0 -31 9 -29 22c3 15 12 22 29 25l20 4c33 6 43 32 43 54v591c0 22 -11 48 -43 54l-20 4c-17 3 -26 11 -29 26c-2 13 9 22 29 22h259c20 0 31 -9 29 -22c-3 -15 -12 -23 -29 -26l-20 -4c-32 -6 -43 -32 -43 -54v-571c0 -38 21 -64 59 -64h143
c80 0 144 31 189 93c12 16 21 22 29 18s10 -16 4 -33l-37 -114c-5 -17 -17 -25 -34 -25h-549zM233 -159c-19 0 -30 9 -30 26s11 27 30 27h295c19 0 30 -10 30 -27c0 -16 -11 -26 -30 -26h-295z" />
    <glyph glyph-name="M" unicode="M" horiz-adv-x="1227" 
d="M82 8c-20 0 -31 9 -29 22c3 15 12 23 28 27l40 9c38 9 53 28 57 67l56 538c3 40 -16 78 -59 87l-21 4c-17 3 -26 13 -29 27c-2 13 9 21 29 21h191c17 0 29 -8 35 -23l236 -569l265 570c7 16 18 22 35 22h189c20 0 32 -7 30 -18c-3 -12 -13 -18 -30 -21
c-51 -7 -87 -33 -86 -106l31 -531c2 -40 19 -59 56 -68l40 -9c16 -4 25 -13 28 -27c2 -13 -9 -22 -29 -22h-286c-20 0 -31 9 -29 22c2 15 10 22 28 26l10 2c35 7 48 29 46 58l-31 518l-283 -604c-7 -16 -17 -22 -31 -22s-24 8 -31 23l-255 580l-37 -495
c-2 -29 10 -51 45 -58l10 -2c17 -3 26 -12 29 -26c2 -13 -9 -22 -29 -22h-219z" />
    <glyph glyph-name="N" unicode="N" horiz-adv-x="989" 
d="M82 8c-20 0 -31 9 -29 22c3 15 12 23 29 26l21 4c32 7 42 32 42 54v591c0 22 -12 47 -42 53l-21 4c-17 3 -26 13 -29 27c-2 13 9 21 29 21h183c15 0 26 -5 36 -17l469 -558v470c0 22 -12 47 -42 53l-21 4c-17 3 -26 13 -29 27c-2 13 9 21 29 21h200c20 0 31 -8 29 -21
c-3 -15 -12 -24 -29 -27l-20 -4c-32 -6 -43 -32 -43 -53v-690c0 -16 -7 -27 -20 -36s-26 -6 -38 9l-567 668v-542c0 -22 8 -47 42 -54l22 -4c17 -3 27 -12 29 -26s-9 -22 -29 -22h-201z" />
    <glyph glyph-name="Ntilde" unicode="&#xd1;" horiz-adv-x="989" 
d="M82 8c-20 0 -31 9 -29 22c3 15 12 23 29 26l21 4c32 7 42 32 42 54v591c0 22 -12 47 -42 53l-21 4c-17 3 -26 13 -29 27c-2 13 9 21 29 21h183c15 0 26 -5 36 -17l469 -558v470c0 22 -12 47 -42 53l-21 4c-17 3 -26 13 -29 27c-2 13 9 21 29 21h200c20 0 31 -8 29 -21
c-3 -15 -12 -24 -29 -27l-20 -4c-32 -6 -43 -32 -43 -53v-690c0 -16 -7 -27 -20 -36s-26 -6 -38 9l-567 668v-542c0 -22 8 -47 42 -54l22 -4c17 -3 27 -12 29 -26s-9 -22 -29 -22h-201zM334 892c-10 2 -16 13 -11 32c22 89 109 120 182 66c59 -41 100 -40 122 -11
c11 15 18 23 28 20s15 -15 10 -33c-26 -95 -126 -112 -189 -66c-56 41 -93 40 -114 12c-11 -15 -17 -23 -28 -20z" />
    <glyph glyph-name="O" unicode="O" horiz-adv-x="947" 
d="M502 60c161 14 271 146 251 375c-16 178 -138 323 -298 323c-139 0 -270 -128 -258 -357c10 -177 131 -358 305 -341zM48 401c9 252 238 418 450 418c243 0 406 -159 401 -402c-6 -252 -224 -419 -436 -419c-222 0 -424 144 -415 403z" />
    <glyph glyph-name="Oacute" unicode="&#xd3;" horiz-adv-x="947" 
d="M502 60c161 14 271 146 251 375c-16 178 -138 323 -298 323c-139 0 -270 -128 -258 -357c10 -177 131 -358 305 -341zM48 401c9 252 238 418 450 418c243 0 406 -159 401 -402c-6 -252 -224 -419 -436 -419c-222 0 -424 144 -415 403zM365 879c-9 12 -6 24 9 37
c37 33 71 77 96 118c26 41 85 43 116 -2c30 -43 8 -97 -40 -108c-45 -11 -98 -26 -142 -49c-17 -9 -30 -9 -39 4z" />
    <glyph glyph-name="Ocircumflex" unicode="&#xd4;" horiz-adv-x="947" 
d="M502 60c161 14 271 146 251 375c-16 178 -138 323 -298 323c-139 0 -270 -128 -258 -357c10 -177 131 -358 305 -341zM48 401c9 252 238 418 450 418c243 0 406 -159 401 -402c-6 -252 -224 -419 -436 -419c-222 0 -424 144 -415 403zM322 863c-6 10 -3 20 10 33l124 115
c14 13 28 13 42 0l118 -112c13 -13 17 -23 11 -33s-18 -10 -34 -2l-115 55l-121 -59c-17 -8 -29 -7 -35 3z" />
    <glyph glyph-name="Odieresis" unicode="&#xd6;" horiz-adv-x="947" 
d="M502 60c161 14 271 146 251 375c-16 178 -138 323 -298 323c-139 0 -270 -128 -258 -357c10 -177 131 -358 305 -341zM48 401c9 252 238 418 450 418c243 0 406 -159 401 -402c-6 -252 -224 -419 -436 -419c-222 0 -424 144 -415 403zM260 955c0 46 36 82 83 82
c48 0 84 -36 84 -82c0 -47 -36 -83 -84 -83c-47 0 -83 36 -83 83zM520 955c0 46 36 82 83 82c48 0 84 -36 84 -82c0 -47 -36 -83 -84 -83c-47 0 -83 36 -83 83z" />
    <glyph glyph-name="Ograve" unicode="&#xd2;" horiz-adv-x="947" 
d="M502 60c161 14 271 146 251 375c-16 178 -138 323 -298 323c-139 0 -270 -128 -258 -357c10 -177 131 -358 305 -341zM48 401c9 252 238 418 450 418c243 0 406 -159 401 -402c-6 -252 -224 -419 -436 -419c-222 0 -424 144 -415 403zM362 1032c31 45 90 43 116 2
c25 -41 59 -85 96 -118c15 -13 18 -25 9 -37s-22 -13 -39 -4c-44 23 -97 38 -142 49c-48 11 -70 65 -40 108z" />
    <glyph glyph-name="Oslash" unicode="&#xd8;" horiz-adv-x="947" 
d="M502 60c161 14 271 146 251 375c-7 70 -29 135 -64 188l-383 -486c51 -52 119 -84 196 -77zM48 401c9 252 238 418 450 418c86 0 160 -20 222 -55l23 28c10 13 22 18 37 18h10c25 0 34 -17 18 -37l-37 -46c83 -72 131 -178 128 -310c-6 -252 -224 -419 -436 -419
c-80 0 -158 19 -224 55l-22 -27c-10 -13 -22 -18 -37 -18h-9c-25 0 -34 17 -18 37l34 43c-88 69 -144 174 -139 313zM197 401c4 -75 29 -152 69 -213l383 485c-51 53 -119 85 -194 85c-139 0 -270 -128 -258 -357z" />
    <glyph glyph-name="Otilde" unicode="&#xd5;" horiz-adv-x="947" 
d="M502 60c161 14 271 146 251 375c-16 178 -138 323 -298 323c-139 0 -270 -128 -258 -357c10 -177 131 -358 305 -341zM48 401c9 252 238 418 450 418c243 0 406 -159 401 -402c-6 -252 -224 -419 -436 -419c-222 0 -424 144 -415 403zM313 892c-10 2 -16 13 -11 32
c22 89 109 120 182 66c59 -41 100 -40 122 -11c11 15 18 23 28 20s15 -15 10 -33c-26 -95 -126 -112 -189 -66c-56 41 -93 40 -114 12c-11 -15 -17 -23 -28 -20z" />
    <glyph glyph-name="OE" unicode="&#x152;" horiz-adv-x="1244" 
d="M503 -2c-261 0 -455 194 -455 439c0 139 68 265 211 332c64 25 152 41 244 41h600c19 0 30 -12 29 -31l-7 -135c-1 -19 -9 -29 -23 -28s-22 11 -24 30c-9 78 -41 102 -148 102h-125c-33 0 -44 -31 -44 -53v-264c70 7 192 20 220 33c20 10 31 25 39 40c8 17 17 25 28 22
s16 -14 14 -32l-18 -162c-2 -19 -10 -29 -21 -28c-12 1 -16 10 -20 28c-8 29 -34 56 -109 54c-102 -2 -133 -24 -133 -77v-175c0 -39 21 -64 60 -64h142c80 0 145 30 190 93c11 15 20 22 28 18s10 -16 4 -33l-36 -115c-5 -16 -17 -25 -34 -25h-250zM203 420
c0 -206 145 -360 310 -360h60c32 0 55 19 55 63v572c0 31 -17 53 -56 53h-73c-154 0 -296 -108 -296 -328z" />
    <glyph glyph-name="P" unicode="P" horiz-adv-x="689" 
d="M82 8c-20 0 -31 9 -29 22c3 15 12 23 29 26l21 4c32 7 42 32 42 54v591c0 22 -12 47 -42 53l-21 4c-17 3 -26 13 -29 27c-2 13 9 21 29 21h284c52 0 113 -5 161 -17c13 -3 22 -8 33 -17c54 -45 81 -105 81 -184c0 -145 -122 -229 -270 -227c-19 1 -29 10 -29 24
s11 20 31 20c82 0 138 55 138 169c0 116 -77 170 -161 170h-28c-29 0 -44 -23 -44 -53v-581c0 -22 8 -47 42 -54l21 -4c17 -3 26 -12 29 -26c2 -13 -9 -22 -29 -22h-259z" />
    <glyph glyph-name="Thorn" unicode="&#xde;" horiz-adv-x="689" 
d="M342 209c0 14 11 20 31 20c82 0 138 55 138 169c0 116 -77 170 -161 170h-73v-454c0 -22 8 -47 42 -54l21 -4c17 -3 26 -12 29 -26c2 -13 -9 -22 -29 -22h-258c-20 0 -31 9 -29 22c2 15 11 23 28 26l21 4c34 6 42 32 42 54v591c0 21 -12 47 -41 53l-22 4
c-17 3 -26 13 -28 27c-2 13 9 21 29 21h258c20 0 31 -8 29 -21c-3 -15 -12 -24 -29 -27l-20 -4c-32 -6 -43 -32 -43 -53v-75h89c52 0 113 -5 161 -17c13 -3 22 -8 33 -17c54 -45 81 -105 81 -184c0 -145 -122 -229 -270 -227c-19 1 -29 10 -29 24z" />
    <glyph glyph-name="Q" unicode="Q" horiz-adv-x="968" 
d="M752 -194c-13 -7 -25 -9 -40 -4c-111 41 -220 117 -307 200c-199 23 -365 164 -357 399c9 252 238 418 450 418c243 0 407 -159 402 -402c-5 -198 -141 -343 -303 -397c86 -60 186 -95 269 -98c15 -1 25 -5 35 -14c8 -8 1 -19 -18 -30zM197 401
c10 -177 146 -345 320 -330c156 14 257 135 236 364c-16 178 -137 323 -298 323c-139 0 -270 -128 -258 -357z" />
    <glyph glyph-name="R" unicode="R" horiz-adv-x="785" 
d="M82 8c-20 0 -31 9 -29 22c3 15 12 22 29 25l20 4c33 6 43 32 43 54v591c0 22 -11 48 -43 54l-20 4c-17 3 -26 11 -29 26c-2 13 9 22 29 22h283c53 0 113 -6 162 -18c13 -3 22 -8 33 -16c56 -45 91 -107 91 -184c0 -106 -67 -175 -167 -210l176 -250c29 -41 61 -63 88 -74
c16 -7 24 -12 26 -24c1 -11 -9 -19 -28 -21l-147 -17c-16 -2 -28 3 -37 18l-213 344h-21c-20 0 -36 2 -50 5v-250c0 -22 8 -48 42 -54l21 -4c17 -3 26 -11 29 -25c2 -13 -9 -22 -29 -22h-259zM278 467c0 -46 21 -56 55 -56c94 0 177 33 177 166c0 116 -77 171 -160 171h-29
c-28 0 -43 -23 -43 -54v-227z" />
    <glyph glyph-name="uni0156" unicode="&#x156;" horiz-adv-x="785" 
d="M82 8c-20 0 -31 9 -29 22c3 15 12 22 29 25l20 4c33 6 43 32 43 54v591c0 22 -11 48 -43 54l-20 4c-17 3 -26 11 -29 26c-2 13 9 22 29 22h283c53 0 113 -6 162 -18c13 -3 22 -8 33 -16c56 -45 91 -107 91 -184c0 -106 -67 -175 -167 -210l176 -250c29 -41 61 -63 88 -74
c16 -7 24 -12 26 -24c1 -11 -9 -19 -28 -21l-147 -17c-16 -2 -28 3 -37 18l-213 344h-21c-20 0 -36 2 -50 5v-250c0 -22 8 -48 42 -54l21 -4c17 -3 26 -11 29 -25c2 -13 -9 -22 -29 -22h-259zM278 467c0 -46 21 -56 55 -56c94 0 177 33 177 166c0 116 -77 171 -160 171h-29
c-28 0 -43 -23 -43 -54v-227zM314 -325c-5 12 2 22 21 31c63 29 72 68 31 84c-38 13 -59 45 -57 81c4 46 35 79 88 78c68 -3 103 -72 80 -157c-16 -58 -55 -102 -127 -128c-18 -6 -31 -2 -36 11z" />
    <glyph glyph-name="S" unicode="S" horiz-adv-x="597" 
d="M290 -2c-101 0 -171 28 -220 49c-15 7 -22 18 -22 35v128c0 19 6 29 15 30s16 -8 21 -26c32 -100 95 -155 199 -155c184 0 243 208 -14 288c-137 42 -219 126 -205 253c11 106 116 219 308 219c33 0 71 -5 111 -13c19 -4 27 -17 24 -35l-18 -120c-3 -20 -12 -29 -26 -26
s-21 13 -23 31c-7 65 -45 102 -127 102c-93 0 -160 -65 -146 -139c17 -91 86 -103 238 -168c242 -105 167 -453 -115 -453z" />
    <glyph glyph-name="Scaron" unicode="&#x160;" horiz-adv-x="597" 
d="M290 -2c-101 0 -171 28 -220 49c-15 7 -22 18 -22 35v128c0 19 6 29 15 30s16 -8 21 -26c32 -100 95 -155 199 -155c184 0 243 208 -14 288c-137 42 -219 126 -205 253c11 106 116 219 308 219c33 0 71 -5 111 -13c19 -4 27 -17 24 -35l-18 -120c-3 -20 -12 -29 -26 -26
s-21 13 -23 31c-7 65 -45 102 -127 102c-93 0 -160 -65 -146 -139c17 -91 86 -103 238 -168c242 -105 167 -453 -115 -453zM157 984c-13 13 -16 24 -10 34s18 10 34 2l122 -59l115 55c16 8 28 8 34 -2s2 -20 -11 -33l-118 -112c-14 -13 -28 -13 -42 0z" />
    <glyph glyph-name="T" unicode="T" horiz-adv-x="864" 
d="M294 8c-20 0 -31 9 -29 22c3 15 12 23 29 26l21 4c32 6 42 32 42 54v581c0 22 -11 53 -43 53h-145c-53 0 -92 -29 -122 -94c-4 -7 -12 -9 -22 -4s-14 17 -10 34l32 135c4 18 13 27 26 26s18 -10 30 -22c8 -9 20 -13 32 -13h622c16 0 33 6 46 16c14 11 24 17 35 11
s15 -17 11 -35l-36 -151c-4 -19 -14 -26 -27 -24s-19 4 -19 6v3c8 58 -23 112 -89 112h-144c-30 0 -44 -30 -44 -53v-581c0 -22 8 -47 42 -54l21 -4c17 -3 26 -12 29 -26c2 -13 -9 -22 -29 -22h-259z" />
    <glyph glyph-name="U" unicode="U" horiz-adv-x="845" 
d="M423 -2c-162 0 -308 90 -308 271v435c0 22 -11 48 -43 54l-20 4c-17 3 -26 11 -29 26c-2 13 9 22 29 22h259c20 0 31 -9 29 -22c-3 -15 -12 -23 -29 -26l-20 -4c-33 -6 -43 -31 -43 -93v-380c0 -131 76 -209 204 -209s204 84 204 190v399c0 62 -12 88 -43 93l-21 4
c-17 3 -26 11 -28 26c-2 13 9 22 29 22h200c20 0 31 -9 29 -22c-3 -15 -12 -23 -29 -26l-20 -4c-32 -6 -43 -32 -43 -54v-435c0 -181 -146 -271 -307 -271z" />
    <glyph glyph-name="Uacute" unicode="&#xda;" horiz-adv-x="845" 
d="M423 -2c-162 0 -308 90 -308 271v435c0 22 -11 48 -43 54l-20 4c-17 3 -26 11 -29 26c-2 13 9 22 29 22h259c20 0 31 -9 29 -22c-3 -15 -12 -23 -29 -26l-20 -4c-33 -6 -43 -31 -43 -93v-380c0 -131 76 -209 204 -209s204 84 204 190v399c0 62 -12 88 -43 93l-21 4
c-17 3 -26 11 -28 26c-2 13 9 22 29 22h200c20 0 31 -9 29 -22c-3 -15 -12 -23 -29 -26l-20 -4c-32 -6 -43 -32 -43 -54v-435c0 -181 -146 -271 -307 -271zM344 879c-9 12 -6 24 9 37c37 33 71 77 96 118c26 41 85 43 116 -2c30 -43 8 -97 -40 -108
c-45 -11 -98 -26 -142 -49c-17 -9 -30 -9 -39 4z" />
    <glyph glyph-name="Ucircumflex" unicode="&#xdb;" horiz-adv-x="845" 
d="M423 -2c-162 0 -308 90 -308 271v435c0 22 -11 48 -43 54l-20 4c-17 3 -26 11 -29 26c-2 13 9 22 29 22h259c20 0 31 -9 29 -22c-3 -15 -12 -23 -29 -26l-20 -4c-33 -6 -43 -31 -43 -93v-380c0 -131 76 -209 204 -209s204 84 204 190v399c0 62 -12 88 -43 93l-21 4
c-17 3 -26 11 -28 26c-2 13 9 22 29 22h200c20 0 31 -9 29 -22c-3 -15 -12 -23 -29 -26l-20 -4c-32 -6 -43 -32 -43 -54v-435c0 -181 -146 -271 -307 -271zM301 863c-6 10 -3 20 10 33l124 115c14 13 28 13 42 0l118 -112c13 -13 17 -23 11 -33s-18 -10 -34 -2l-115 55
l-121 -59c-17 -8 -29 -7 -35 3z" />
    <glyph glyph-name="Udieresis" unicode="&#xdc;" horiz-adv-x="845" 
d="M423 -2c-162 0 -308 90 -308 271v435c0 22 -11 48 -43 54l-20 4c-17 3 -26 11 -29 26c-2 13 9 22 29 22h259c20 0 31 -9 29 -22c-3 -15 -12 -23 -29 -26l-20 -4c-33 -6 -43 -31 -43 -93v-380c0 -131 76 -209 204 -209s204 84 204 190v399c0 62 -12 88 -43 93l-21 4
c-17 3 -26 11 -28 26c-2 13 9 22 29 22h200c20 0 31 -9 29 -22c-3 -15 -12 -23 -29 -26l-20 -4c-32 -6 -43 -32 -43 -54v-435c0 -181 -146 -271 -307 -271zM239 955c0 46 36 82 83 82c48 0 84 -36 84 -82c0 -47 -36 -83 -84 -83c-47 0 -83 36 -83 83zM499 955
c0 46 36 82 83 82c48 0 84 -36 84 -82c0 -47 -36 -83 -84 -83c-47 0 -83 36 -83 83z" />
    <glyph glyph-name="Ugrave" unicode="&#xd9;" horiz-adv-x="845" 
d="M423 -2c-162 0 -308 90 -308 271v435c0 22 -11 48 -43 54l-20 4c-17 3 -26 11 -29 26c-2 13 9 22 29 22h259c20 0 31 -9 29 -22c-3 -15 -12 -23 -29 -26l-20 -4c-33 -6 -43 -31 -43 -93v-380c0 -131 76 -209 204 -209s204 84 204 190v399c0 62 -12 88 -43 93l-21 4
c-17 3 -26 11 -28 26c-2 13 9 22 29 22h200c20 0 31 -9 29 -22c-3 -15 -12 -23 -29 -26l-20 -4c-32 -6 -43 -32 -43 -54v-435c0 -181 -146 -271 -307 -271zM341 1032c31 45 90 43 116 2c25 -41 59 -85 96 -118c15 -13 18 -25 9 -37s-22 -13 -39 -4c-44 23 -97 38 -142 49
c-48 11 -70 65 -40 108z" />
    <glyph glyph-name="Uhorn" unicode="&#x1af;" horiz-adv-x="845" 
d="M423 -2c-162 0 -308 90 -308 271v435c0 22 -11 48 -43 54l-20 4c-17 3 -26 11 -29 26c-2 13 9 22 29 22h259c20 0 31 -9 29 -22c-3 -15 -12 -23 -29 -26l-20 -4c-33 -6 -43 -31 -43 -93v-380c0 -131 76 -209 204 -209s204 84 204 190v399c0 62 -12 88 -43 93l-21 4
c-17 3 -26 11 -28 26c-2 13 9 22 29 22h145c97 0 114 68 78 114c-44 57 -6 118 56 112c65 -6 89 -77 62 -143c-22 -53 -61 -92 -114 -117c-1 -6 -10 -11 -27 -14l-20 -4c-32 -6 -43 -32 -43 -54v-435c0 -181 -146 -271 -307 -271z" />
    <glyph glyph-name="V" unicode="V" horiz-adv-x="826" 
d="M123 708c-9 25 -23 45 -52 50l-30 5c-17 3 -26 12 -28 26c-2 13 9 21 29 21h297c20 0 31 -8 29 -21c-3 -15 -12 -24 -29 -27l-21 -4c-34 -7 -52 -30 -41 -56l186 -478l173 478c9 27 -6 49 -41 56l-22 4c-17 3 -26 13 -29 27c-2 13 9 21 29 21h211c20 0 31 -8 29 -21
c-3 -15 -12 -24 -29 -27l-21 -4c-31 -7 -56 -37 -71 -76l-236 -662c-6 -17 -17 -24 -34 -24s-28 7 -34 24z" />
    <glyph glyph-name="W" unicode="W" horiz-adv-x="1113" 
d="M123 707c-9 25 -22 46 -51 51l-30 4c-18 3 -27 11 -29 26c-2 13 9 22 29 22h1029c20 0 32 -8 30 -22c-3 -15 -12 -23 -29 -26l-21 -4c-32 -6 -56 -38 -71 -77l-237 -662c-6 -17 -17 -24 -33 -24c-17 0 -28 7 -34 24l-113 296l-107 -296c-6 -17 -17 -24 -33 -24
c-17 0 -28 7 -34 24zM279 694l184 -471l66 180l-118 304c-14 37 -45 54 -80 54c-40 0 -70 -23 -52 -67zM545 701l47 -123l45 123c11 32 1 57 -46 57c-44 0 -58 -26 -46 -57zM625 492l114 -295l185 504c18 51 -39 66 -101 66c-57 0 -104 -15 -130 -86z" />
    <glyph glyph-name="X" unicode="X" horiz-adv-x="891" 
d="M42 8c-20 0 -31 9 -29 22c3 15 12 24 28 28l7 1c27 7 62 23 84 49l253 290l-218 311c-22 31 -58 44 -85 50l-7 1c-16 4 -25 13 -28 28c-2 13 9 22 29 22h327c20 0 31 -9 29 -22c-3 -15 -12 -23 -29 -26l-20 -4c-46 -8 -60 -33 -42 -59l137 -194l169 194
c21 23 5 50 -41 59l-21 4c-17 3 -26 11 -28 26c-2 13 9 22 29 22h258c20 0 32 -8 30 -22c-3 -15 -12 -23 -28 -27l-8 -2c-27 -6 -67 -19 -93 -50l-227 -260l240 -341c22 -31 59 -42 86 -49l6 -1c16 -4 27 -13 29 -28c2 -14 -9 -22 -29 -22h-327c-20 0 -31 9 -29 22
c3 15 12 22 29 25l20 4c45 8 59 34 42 59l-159 225l-196 -225c-20 -22 -5 -51 41 -59l20 -4c17 -3 26 -11 29 -25c2 -13 -9 -22 -29 -22h-249z" />
    <glyph glyph-name="Y" unicode="Y" horiz-adv-x="848" 
d="M294 8c-20 0 -31 9 -29 22c3 15 12 22 29 25l20 4c33 6 43 32 43 54v259l-224 336c-22 33 -58 45 -85 51l-7 1c-16 4 -25 13 -28 28c-2 13 9 22 29 22h314c20 0 31 -9 29 -22c-3 -15 -13 -23 -30 -25l-16 -2c-45 -6 -59 -32 -42 -58l157 -248l155 245c16 26 4 48 -41 58
l-12 3c-16 4 -26 12 -29 27c-2 13 9 22 29 22h250c20 0 31 -9 29 -22c-3 -15 -12 -24 -28 -28l-7 -1c-38 -8 -77 -24 -101 -60l-207 -308v-278c0 -22 8 -48 43 -54l21 -4c17 -3 27 -11 29 -25s-9 -22 -29 -22h-262z" />
    <glyph glyph-name="Yacute" unicode="&#xdd;" horiz-adv-x="848" 
d="M294 8c-20 0 -31 9 -29 22c3 15 12 22 29 25l20 4c33 6 43 32 43 54v259l-224 336c-22 33 -58 45 -85 51l-7 1c-16 4 -25 13 -28 28c-2 13 9 22 29 22h314c20 0 31 -9 29 -22c-3 -15 -13 -23 -30 -25l-16 -2c-45 -6 -59 -32 -42 -58l157 -248l155 245c16 26 4 48 -41 58
l-12 3c-16 4 -26 12 -29 27c-2 13 9 22 29 22h250c20 0 31 -9 29 -22c-3 -15 -12 -24 -28 -28l-7 -1c-38 -8 -77 -24 -101 -60l-207 -308v-278c0 -22 8 -48 43 -54l21 -4c17 -3 27 -11 29 -25s-9 -22 -29 -22h-262zM343 879c-9 12 -6 24 9 37c37 33 71 77 96 118
c26 41 85 43 116 -2c30 -43 8 -97 -40 -108c-45 -11 -98 -26 -142 -49c-17 -9 -30 -9 -39 4z" />
    <glyph glyph-name="Ydieresis" unicode="&#x178;" horiz-adv-x="848" 
d="M294 8c-20 0 -31 9 -29 22c3 15 12 22 29 25l20 4c33 6 43 32 43 54v259l-224 336c-22 33 -58 45 -85 51l-7 1c-16 4 -25 13 -28 28c-2 13 9 22 29 22h314c20 0 31 -9 29 -22c-3 -15 -13 -23 -30 -25l-16 -2c-45 -6 -59 -32 -42 -58l157 -248l155 245c16 26 4 48 -41 58
l-12 3c-16 4 -26 12 -29 27c-2 13 9 22 29 22h250c20 0 31 -9 29 -22c-3 -15 -12 -24 -28 -28l-7 -1c-38 -8 -77 -24 -101 -60l-207 -308v-278c0 -22 8 -48 43 -54l21 -4c17 -3 27 -11 29 -25s-9 -22 -29 -22h-262zM238 955c0 46 36 82 83 82c48 0 84 -36 84 -82
c0 -47 -36 -83 -84 -83c-47 0 -83 36 -83 83zM498 955c0 46 36 82 83 82c48 0 84 -36 84 -82c0 -47 -36 -83 -84 -83c-47 0 -83 36 -83 83z" />
    <glyph glyph-name="Z" unicode="Z" horiz-adv-x="768" 
d="M56 8c-16 0 -26 5 -34 15s-7 22 3 36l498 689h-275c-53 0 -92 -29 -123 -95c-4 -8 -11 -9 -21 -4s-14 17 -10 34l31 135c4 19 14 28 26 26c13 -2 18 -11 30 -23c8 -8 20 -11 32 -11h463c15 0 26 -3 33 -12c7 -8 5 -20 -5 -34l-508 -695h331c80 0 144 31 190 94
c11 15 20 21 28 17s10 -16 4 -33l-37 -114c-5 -17 -17 -25 -34 -25h-622z" />
    <glyph glyph-name="Zcaron" unicode="&#x17d;" horiz-adv-x="768" 
d="M56 8c-16 0 -26 5 -34 15s-7 22 3 36l498 689h-275c-53 0 -92 -29 -123 -95c-4 -8 -11 -9 -21 -4s-14 17 -10 34l31 135c4 19 14 28 26 26c13 -2 18 -11 30 -23c8 -8 20 -11 32 -11h463c15 0 26 -3 33 -12c7 -8 5 -20 -5 -34l-508 -695h331c80 0 144 31 190 94
c11 15 20 21 28 17s10 -16 4 -33l-37 -114c-5 -17 -17 -25 -34 -25h-622zM278 984c-13 13 -16 24 -10 34s18 10 34 2l122 -59l115 55c16 8 28 8 34 -2s2 -20 -11 -33l-118 -112c-14 -13 -28 -13 -42 0z" />
    <glyph glyph-name="a" unicode="a" horiz-adv-x="608" 
d="M37 8c-20 0 -31 8 -29 21s11 22 28 25l10 2c20 4 35 23 45 49l155 433c5 14 14 23 27 28c17 6 29 14 43 24c13 10 23 14 29 11s7 -12 9 -28c3 -18 9 -41 20 -71l150 -414c6 -18 14 -30 31 -32l18 -3c17 -3 27 -10 29 -24s-9 -21 -29 -21h-199c-20 0 -31 8 -29 21
s11 22 28 25l11 2c22 4 31 17 26 32l-42 114h-186l-41 -114c-5 -16 3 -28 26 -32l10 -2c17 -3 27 -11 29 -25s-9 -21 -29 -21h-140zM202 257h146l-73 200z" />
    <glyph glyph-name="aacute" unicode="&#xe1;" horiz-adv-x="608" 
d="M37 8c-20 0 -31 8 -29 21s11 22 28 25l10 2c20 4 35 23 45 49l155 433c5 14 14 23 27 28c17 6 29 14 43 24c13 10 23 14 29 11s7 -12 9 -28c3 -18 9 -41 20 -71l150 -414c6 -18 14 -30 31 -32l18 -3c17 -3 27 -10 29 -24s-9 -21 -29 -21h-199c-20 0 -31 8 -29 21
s11 22 28 25l11 2c22 4 31 17 26 32l-42 114h-186l-41 -114c-5 -16 3 -28 26 -32l10 -2c17 -3 27 -11 29 -25s-9 -21 -29 -21h-140zM210 627c-8 11 -4 22 10 35c24 23 47 51 64 79c20 31 67 33 91 -1c22 -33 4 -76 -32 -84c-30 -8 -65 -18 -95 -33c-17 -8 -29 -8 -38 4z
M202 257h146l-73 200z" />
    <glyph glyph-name="acircumflex" unicode="&#xe2;" horiz-adv-x="608" 
d="M37 8c-20 0 -31 8 -29 21s11 22 28 25l10 2c20 4 35 23 45 49l155 433c5 14 14 23 27 28c17 6 29 14 43 24c13 10 23 14 29 11s7 -12 9 -28c3 -18 9 -41 20 -71l150 -414c6 -18 14 -30 31 -32l18 -3c17 -3 27 -10 29 -24s-9 -21 -29 -21h-199c-20 0 -31 8 -29 21
s11 22 28 25l11 2c22 4 31 17 26 32l-42 114h-186l-41 -114c-5 -16 3 -28 26 -32l10 -2c17 -3 27 -11 29 -25s-9 -21 -29 -21h-140zM180 615c-6 10 -2 20 11 33l81 76c14 13 28 13 42 0l78 -74c13 -13 17 -23 11 -32c-6 -10 -17 -10 -34 -2l-75 35l-80 -38
c-17 -8 -28 -7 -34 2zM202 257h146l-73 200z" />
    <glyph glyph-name="adieresis" unicode="&#xe4;" horiz-adv-x="608" 
d="M37 8c-20 0 -31 8 -29 21s11 22 28 25l10 2c20 4 35 23 45 49l155 433c5 14 14 23 27 28c17 6 29 14 43 24c13 10 23 14 29 11s7 -12 9 -28c3 -18 9 -41 20 -71l150 -414c6 -18 14 -30 31 -32l18 -3c17 -3 27 -10 29 -24s-9 -21 -29 -21h-199c-20 0 -31 8 -29 21
s11 22 28 25l11 2c22 4 31 17 26 32l-42 114h-186l-41 -114c-5 -16 3 -28 26 -32l10 -2c17 -3 27 -11 29 -25s-9 -21 -29 -21h-140zM136 683c0 34 29 63 64 63s64 -29 64 -63c0 -35 -29 -64 -64 -64s-64 29 -64 64zM202 257h146l-73 200zM318 683c0 34 29 63 64 63
s64 -29 64 -63c0 -35 -29 -64 -64 -64s-64 29 -64 64z" />
    <glyph glyph-name="agrave" unicode="&#xe0;" horiz-adv-x="608" 
d="M37 8c-20 0 -31 8 -29 21s11 22 28 25l10 2c20 4 35 23 45 49l155 433c5 14 14 23 27 28c17 6 29 14 43 24c13 10 23 14 29 11s7 -12 9 -28c3 -18 9 -41 20 -71l150 -414c6 -18 14 -30 31 -32l18 -3c17 -3 27 -10 29 -24s-9 -21 -29 -21h-199c-20 0 -31 8 -29 21
s11 22 28 25l11 2c22 4 31 17 26 32l-42 114h-186l-41 -114c-5 -16 3 -28 26 -32l10 -2c17 -3 27 -11 29 -25s-9 -21 -29 -21h-140zM202 257h146l-73 200zM208 740c24 34 71 32 91 1c17 -28 39 -56 63 -79c14 -13 18 -24 10 -35c-8 -12 -21 -12 -38 -4c-29 15 -64 25 -95 33
c-36 8 -53 51 -31 84z" />
    <glyph glyph-name="aring" unicode="&#xe5;" horiz-adv-x="608" 
d="M37 8c-20 0 -31 8 -29 21s11 22 28 25l10 2c20 4 35 23 45 49l155 433c5 14 14 23 27 28c17 6 29 14 43 24c13 10 23 14 29 11s7 -12 9 -28c3 -18 9 -41 20 -71l150 -414c6 -18 14 -30 31 -32l18 -3c17 -3 27 -10 29 -24s-9 -21 -29 -21h-199c-20 0 -31 8 -29 21
s11 22 28 25l11 2c22 4 31 17 26 32l-42 114h-186l-41 -114c-5 -16 3 -28 26 -32l10 -2c17 -3 27 -11 29 -25s-9 -21 -29 -21h-140zM199 691c0 52 40 92 92 92c53 0 92 -40 92 -92c0 -53 -39 -93 -92 -93c-52 0 -92 40 -92 93zM202 257h146l-73 200zM245 690
c0 -27 20 -47 47 -47s47 20 47 47c0 26 -20 47 -47 47s-47 -21 -47 -47z" />
    <glyph glyph-name="atilde" unicode="&#xe3;" horiz-adv-x="608" 
d="M37 8c-20 0 -31 8 -29 21s11 22 28 25l10 2c20 4 35 23 45 49l155 433c5 14 14 23 27 28c17 6 29 14 43 24c13 10 23 14 29 11s7 -12 9 -28c3 -18 9 -41 20 -71l150 -414c6 -18 14 -30 31 -32l18 -3c17 -3 27 -10 29 -24s-9 -21 -29 -21h-199c-20 0 -31 8 -29 21
s11 22 28 25l11 2c22 4 31 17 26 32l-42 114h-186l-41 -114c-5 -16 3 -28 26 -32l10 -2c17 -3 27 -11 29 -25s-9 -21 -29 -21h-140zM178 633c-10 3 -17 14 -12 32c17 63 82 86 136 47c36 -25 60 -27 75 -12c12 13 18 22 28 19s15 -15 10 -33c-22 -68 -95 -80 -141 -46
c-33 24 -55 26 -69 12c-12 -13 -17 -22 -27 -19zM202 257h146l-73 200z" />
    <glyph glyph-name="ae" unicode="&#xe6;" horiz-adv-x="820" 
d="M33 8c-20 0 -31 8 -29 21s11 22 28 25l11 2c19 4 29 25 45 49l273 428l-13 2c-17 3 -26 12 -28 26c-2 12 8 20 29 20h369c19 0 30 -12 29 -31l-4 -88c-1 -19 -9 -29 -22 -28c-14 1 -21 11 -23 30c-7 48 -27 62 -97 62h-88c-19 0 -25 -17 -25 -31v-179c50 5 129 13 146 22
c11 5 18 13 23 22c9 16 16 24 27 22c11 -3 16 -14 14 -32l-12 -107c-2 -20 -10 -28 -21 -27c-12 1 -14 10 -20 28c-6 16 -24 30 -70 29c-68 -2 -87 -15 -87 -49v-122c0 -25 13 -39 36 -39h100c53 0 95 19 126 59c11 15 20 21 29 17c8 -4 10 -16 5 -33l-23 -73
c-5 -16 -17 -25 -34 -25h-378c-20 0 -31 8 -29 21s11 22 28 25l11 2c19 3 25 18 25 32v114h-165l-74 -114c-10 -15 3 -28 25 -32l11 -2c17 -3 27 -11 29 -25s-9 -21 -29 -21h-148zM255 257h129v197z" />
    <glyph glyph-name="b" unicode="b" horiz-adv-x="515" 
d="M268 1l-208 6c-20 1 -30 9 -28 22s11 22 28 25l11 2c19 4 25 18 25 32v414c0 13 -7 28 -25 31l-11 2c-17 3 -26 12 -28 26c-2 12 8 20 29 20h207c23 0 56 -1 90 -8c13 -3 23 -6 34 -14c36 -25 55 -63 55 -110c0 -58 -38 -109 -105 -133l61 -13c13 -3 23 -6 33 -14
c26 -21 51 -60 51 -110c0 -120 -107 -178 -219 -178zM200 94c0 -27 13 -38 32 -38h29c58 0 107 23 107 111c0 83 -53 121 -127 121c-27 0 -41 -11 -41 -29v-165zM200 332c98 0 140 32 140 111c0 68 -54 83 -86 83h-21c-23 0 -33 -13 -33 -31v-163z" />
    <glyph glyph-name="c" unicode="c" horiz-adv-x="603" 
d="M347 1c-169 0 -319 109 -319 288s174 299 336 299c75 0 138 -15 189 -38c16 -7 22 -19 22 -35v-79c0 -19 -8 -30 -22 -30s-22 9 -27 27c-19 65 -81 100 -174 100c-122 0 -203 -84 -203 -244c0 -124 88 -233 217 -233c67 0 119 36 161 87c11 15 22 20 32 15
c11 -6 14 -17 9 -34l-17 -60c-4 -15 -10 -23 -20 -27c-44 -20 -117 -36 -184 -36z" />
    <glyph glyph-name="ccedilla" unicode="&#xe7;" horiz-adv-x="603" 
d="M28 289c0 179 174 299 336 299c75 0 138 -15 189 -38c16 -7 22 -19 22 -35v-79c0 -19 -8 -30 -22 -30s-22 9 -27 27c-19 65 -81 100 -174 100c-122 0 -203 -84 -203 -244c0 -124 88 -233 217 -233c67 0 119 36 161 87c11 15 22 20 32 15c11 -6 14 -17 9 -34l-17 -60
c-4 -15 -12 -24 -26 -30c-37 -15 -91 -28 -145 -32l-6 -22c45 -6 77 -41 75 -85c-3 -101 -142 -111 -170 -49c-23 52 47 79 63 40c11 -28 49 -21 51 7c1 27 -20 42 -49 37c-17 -3 -27 -4 -36 4c-8 8 -8 19 0 35l17 33c-160 8 -297 116 -297 287z" />
    <glyph glyph-name="d" unicode="d" horiz-adv-x="634" 
d="M281 1l-221 6c-20 1 -31 9 -29 22s11 22 28 25l12 2c19 3 25 18 25 32v414c0 13 -8 28 -25 31l-12 2c-17 3 -26 12 -28 26c-2 12 9 20 29 20h221c66 0 128 -12 173 -30c103 -47 152 -138 152 -237c0 -174 -140 -313 -325 -313zM200 94c0 -27 13 -38 32 -38h42
c113 0 212 105 212 246c0 151 -97 224 -202 224h-51c-24 0 -33 -13 -33 -31v-401z" />
    <glyph glyph-name="eth" unicode="&#xf0;" horiz-adv-x="634" 
d="M281 1l-221 6c-20 1 -31 9 -29 22s11 22 28 25l12 2c19 3 25 18 25 32v184h-37c-19 0 -30 9 -30 23s11 22 30 22h37v185c0 13 -8 28 -25 31l-12 2c-17 3 -26 12 -28 26c-2 12 9 20 29 20h221c66 0 128 -12 173 -30c103 -47 152 -138 152 -237c0 -174 -140 -313 -325 -313
zM200 94c0 -27 13 -38 32 -38h42c113 0 212 105 212 246c0 151 -97 224 -202 224h-51c-24 0 -33 -13 -33 -31v-178h82c19 0 30 -8 30 -22c0 -15 -11 -23 -30 -23h-82v-178z" />
    <glyph glyph-name="e" unicode="e" horiz-adv-x="532" 
d="M472 33c-5 -16 -17 -25 -34 -25h-378c-20 0 -31 8 -29 21s11 22 28 25l12 2c19 3 24 18 24 32v414c0 13 -7 28 -24 31l-12 2c-17 3 -26 12 -28 26c-2 12 9 20 29 20h370c19 0 30 -12 29 -31l-4 -88c-1 -19 -9 -29 -22 -28c-14 1 -21 11 -23 30c-7 48 -28 62 -98 62h-87
c-19 0 -25 -17 -25 -31v-179c49 5 128 13 146 22c11 5 18 13 23 22c9 16 16 24 27 22c11 -3 16 -14 14 -32l-12 -107c-2 -20 -9 -28 -21 -27s-14 10 -21 28c-6 16 -24 30 -69 29c-69 -2 -87 -15 -87 -49v-122c0 -25 12 -39 36 -39h99c53 0 96 19 127 59c11 15 20 21 29 17
c8 -4 10 -16 4 -33z" />
    <glyph glyph-name="eacute" unicode="&#xe9;" horiz-adv-x="532" 
d="M472 33c-5 -16 -17 -25 -34 -25h-378c-20 0 -31 8 -29 21s11 22 28 25l12 2c19 3 24 18 24 32v414c0 13 -7 28 -24 31l-12 2c-17 3 -26 12 -28 26c-2 12 9 20 29 20h370c19 0 30 -12 29 -31l-4 -88c-1 -19 -9 -29 -22 -28c-14 1 -21 11 -23 30c-7 48 -28 62 -98 62h-87
c-19 0 -25 -17 -25 -31v-179c49 5 128 13 146 22c11 5 18 13 23 22c9 16 16 24 27 22c11 -3 16 -14 14 -32l-12 -107c-2 -20 -9 -28 -21 -27s-14 10 -21 28c-6 16 -24 30 -69 29c-69 -2 -87 -15 -87 -49v-122c0 -25 12 -39 36 -39h99c53 0 96 19 127 59c11 15 20 21 29 17
c8 -4 10 -16 4 -33zM185 620c-8 11 -4 22 10 35c24 23 47 52 63 80c21 31 68 33 91 -1c23 -33 5 -76 -31 -85c-30 -7 -65 -17 -95 -32c-17 -9 -29 -9 -38 3z" />
    <glyph glyph-name="ecircumflex" unicode="&#xea;" horiz-adv-x="532" 
d="M472 33c-5 -16 -17 -25 -34 -25h-378c-20 0 -31 8 -29 21s11 22 28 25l12 2c19 3 24 18 24 32v414c0 13 -7 28 -24 31l-12 2c-17 3 -26 12 -28 26c-2 12 9 20 29 20h370c19 0 30 -12 29 -31l-4 -88c-1 -19 -9 -29 -22 -28c-14 1 -21 11 -23 30c-7 48 -28 62 -98 62h-87
c-19 0 -25 -17 -25 -31v-179c49 5 128 13 146 22c11 5 18 13 23 22c9 16 16 24 27 22c11 -3 16 -14 14 -32l-12 -107c-2 -20 -9 -28 -21 -27s-14 10 -21 28c-6 16 -24 30 -69 29c-69 -2 -87 -15 -87 -49v-122c0 -25 12 -39 36 -39h99c53 0 96 19 127 59c11 15 20 21 29 17
c8 -4 10 -16 4 -33zM155 609c-6 10 -2 20 11 33l81 75c14 13 28 13 42 0l77 -73c13 -13 17 -24 12 -33c-6 -10 -18 -10 -34 -2l-75 36l-80 -38c-17 -8 -28 -7 -34 2z" />
    <glyph glyph-name="edieresis" unicode="&#xeb;" horiz-adv-x="532" 
d="M472 33c-5 -16 -17 -25 -34 -25h-378c-20 0 -31 8 -29 21s11 22 28 25l12 2c19 3 24 18 24 32v414c0 13 -7 28 -24 31l-12 2c-17 3 -26 12 -28 26c-2 12 9 20 29 20h370c19 0 30 -12 29 -31l-4 -88c-1 -19 -9 -29 -22 -28c-14 1 -21 11 -23 30c-7 48 -28 62 -98 62h-87
c-19 0 -25 -17 -25 -31v-179c49 5 128 13 146 22c11 5 18 13 23 22c9 16 16 24 27 22c11 -3 16 -14 14 -32l-12 -107c-2 -20 -9 -28 -21 -27s-14 10 -21 28c-6 16 -24 30 -69 29c-69 -2 -87 -15 -87 -49v-122c0 -25 12 -39 36 -39h99c53 0 96 19 127 59c11 15 20 21 29 17
c8 -4 10 -16 4 -33zM111 677c0 34 28 63 63 63c36 0 65 -29 65 -63c0 -35 -29 -64 -65 -64c-35 0 -63 29 -63 64zM293 677c0 34 28 63 63 63c36 0 65 -29 65 -63c0 -35 -29 -64 -65 -64c-35 0 -63 29 -63 64z" />
    <glyph glyph-name="egrave" unicode="&#xe8;" horiz-adv-x="532" 
d="M472 33c-5 -16 -17 -25 -34 -25h-378c-20 0 -31 8 -29 21s11 22 28 25l12 2c19 3 24 18 24 32v414c0 13 -7 28 -24 31l-12 2c-17 3 -26 12 -28 26c-2 12 9 20 29 20h370c19 0 30 -12 29 -31l-4 -88c-1 -19 -9 -29 -22 -28c-14 1 -21 11 -23 30c-7 48 -28 62 -98 62h-87
c-19 0 -25 -17 -25 -31v-179c49 5 128 13 146 22c11 5 18 13 23 22c9 16 16 24 27 22c11 -3 16 -14 14 -32l-12 -107c-2 -20 -9 -28 -21 -27s-14 10 -21 28c-6 16 -24 30 -69 29c-69 -2 -87 -15 -87 -49v-122c0 -25 12 -39 36 -39h99c53 0 96 19 127 59c11 15 20 21 29 17
c8 -4 10 -16 4 -33zM183 734c24 34 70 32 91 1c16 -28 39 -57 63 -80c14 -13 18 -24 10 -35c-8 -12 -21 -12 -38 -3c-30 15 -65 25 -95 32c-36 9 -54 52 -31 85z" />
    <glyph glyph-name="f" unicode="f" horiz-adv-x="489" 
d="M60 8c-20 0 -31 8 -29 21s12 21 29 24l11 2c19 3 25 18 25 32v414c0 14 -6 29 -25 32l-11 2c-17 3 -27 10 -29 25c-2 14 9 21 29 21h370c19 0 31 -12 30 -31l-4 -89c-1 -19 -10 -29 -23 -28c-14 1 -21 11 -23 30c-7 49 -28 63 -98 63h-87c-19 0 -25 -18 -25 -32v-185
c49 5 128 13 146 22c11 5 18 13 23 21c9 17 16 25 27 23c11 -3 16 -14 14 -32l-12 -107c-2 -20 -9 -28 -21 -27s-14 10 -20 27c-6 16 -25 30 -69 29c-70 -1 -88 -28 -88 -62v-116c0 -14 4 -29 25 -32l10 -2c17 -3 27 -10 29 -24s-9 -21 -29 -21h-175z" />
    <glyph glyph-name="g" unicode="g" horiz-adv-x="655" 
d="M347 1c-170 0 -319 109 -319 288s174 298 336 298c75 0 137 -14 189 -37c16 -7 22 -19 22 -35v-79c0 -19 -8 -30 -22 -30s-22 9 -27 27c-19 65 -81 100 -174 100c-122 0 -204 -85 -204 -244c0 -135 94 -234 205 -234c90 0 109 20 109 69v65c0 14 -7 28 -25 32l-4 1
c-17 3 -26 12 -28 26c-2 12 8 20 29 20h161c20 0 31 -7 29 -20c-2 -15 -11 -23 -28 -26l-4 -1c-19 -4 -26 -18 -26 -32v-124c0 -18 -9 -30 -27 -33l-62 -11c-37 -12 -82 -20 -130 -20z" />
    <glyph glyph-name="h" unicode="h" horiz-adv-x="661" 
d="M61 8c-20 0 -31 8 -29 21s12 21 29 24l10 2c19 3 25 18 25 32v414c0 14 -6 29 -25 32l-11 2c-17 3 -26 10 -28 25c-2 13 9 21 29 21h174c20 0 32 -7 30 -21c-3 -15 -12 -22 -29 -25l-11 -2c-18 -3 -25 -18 -25 -32v-180h261v180c0 14 -7 29 -26 32l-10 2
c-17 3 -26 10 -28 25c-2 13 9 21 29 21h174c20 0 32 -7 30 -21c-3 -15 -12 -22 -29 -25l-11 -2c-19 -3 -25 -18 -25 -32v-414c0 -14 5 -29 25 -32l11 -2c17 -3 27 -10 29 -24s-9 -21 -29 -21h-175c-20 0 -31 8 -29 21s12 21 29 24l9 2c20 3 26 18 26 32v180h-261v-180
c0 -14 5 -29 25 -32l11 -2c17 -3 27 -10 29 -24s-9 -21 -29 -21h-175z" />
    <glyph glyph-name="i" unicode="i" horiz-adv-x="295" 
d="M60 8c-20 0 -31 8 -29 21s11 22 28 25l12 2c19 3 24 18 24 32v414c0 13 -7 28 -24 31l-12 2c-17 3 -26 12 -28 26c-2 12 9 20 29 20h174c20 0 32 -7 30 -20c-3 -15 -13 -23 -29 -26l-10 -2c-19 -3 -25 -18 -25 -31v-414c0 -14 4 -28 25 -32l10 -2c17 -3 27 -11 29 -25
s-9 -21 -29 -21h-175z" />
    <glyph glyph-name="iacute" unicode="&#xed;" horiz-adv-x="295" 
d="M60 8c-20 0 -31 8 -29 21s11 22 28 25l12 2c19 3 24 18 24 32v414c0 13 -7 28 -24 31l-12 2c-17 3 -26 12 -28 26c-2 12 9 20 29 20h174c20 0 32 -7 30 -20c-3 -15 -13 -23 -29 -26l-10 -2c-19 -3 -25 -18 -25 -31v-414c0 -14 4 -28 25 -32l10 -2c17 -3 27 -11 29 -25
s-9 -21 -29 -21h-175zM67 620c-8 11 -4 22 10 35c24 23 46 52 63 80c20 31 67 33 91 -1c22 -33 5 -76 -31 -85c-31 -7 -66 -17 -95 -32c-17 -9 -29 -9 -38 3z" />
    <glyph glyph-name="icircumflex" unicode="&#xee;" horiz-adv-x="295" 
d="M60 8c-20 0 -31 8 -29 21s11 22 28 25l12 2c19 3 24 18 24 32v414c0 13 -7 28 -24 31l-12 2c-17 3 -26 12 -28 26c-2 12 9 20 29 20h174c20 0 32 -7 30 -20c-3 -15 -13 -23 -29 -26l-10 -2c-19 -3 -25 -18 -25 -31v-414c0 -14 4 -28 25 -32l10 -2c17 -3 27 -11 29 -25
s-9 -21 -29 -21h-175zM37 609c-6 9 -3 21 10 33l82 75c14 13 28 13 42 0l77 -73c13 -13 17 -24 12 -33c-6 -10 -18 -10 -34 -2l-75 36l-80 -38c-17 -8 -28 -7 -34 2z" />
    <glyph glyph-name="idieresis" unicode="&#xef;" horiz-adv-x="295" 
d="M60 8c-20 0 -31 8 -29 21s11 22 28 25l12 2c19 3 24 18 24 32v414c0 13 -7 28 -24 31l-12 2c-17 3 -26 12 -28 26c-2 12 9 20 29 20h174c20 0 32 -7 30 -20c-3 -15 -13 -23 -29 -26l-10 -2c-19 -3 -25 -18 -25 -31v-414c0 -14 4 -28 25 -32l10 -2c17 -3 27 -11 29 -25
s-9 -21 -29 -21h-175zM-8 677c0 34 29 63 64 63c36 0 64 -29 64 -63c0 -35 -28 -64 -64 -64c-35 0 -64 29 -64 64zM174 677c0 34 29 63 64 63c36 0 64 -29 64 -63c0 -35 -28 -64 -64 -64c-35 0 -64 29 -64 64z" />
    <glyph glyph-name="igrave" unicode="&#xec;" horiz-adv-x="295" 
d="M60 8c-20 0 -31 8 -29 21s11 22 28 25l12 2c19 3 24 18 24 32v414c0 13 -7 28 -24 31l-12 2c-17 3 -26 12 -28 26c-2 12 9 20 29 20h174c20 0 32 -7 30 -20c-3 -15 -13 -23 -29 -26l-10 -2c-19 -3 -25 -18 -25 -31v-414c0 -14 4 -28 25 -32l10 -2c17 -3 27 -11 29 -25
s-9 -21 -29 -21h-175zM64 734c24 34 71 32 91 1c17 -28 40 -57 64 -80c14 -13 18 -24 10 -35c-8 -12 -21 -12 -38 -3c-30 15 -65 25 -95 32c-36 9 -54 52 -32 85z" />
    <glyph glyph-name="j" unicode="j" horiz-adv-x="328" 
d="M8 10c5 14 16 16 34 15c50 -3 86 27 86 83v393c0 14 -6 29 -25 32l-11 2c-17 3 -26 10 -28 25c-2 13 9 21 29 21h174c20 0 32 -7 30 -21c-3 -15 -12 -22 -29 -25l-10 -2c-19 -3 -26 -18 -26 -32v-399c0 -108 -74 -174 -204 -124c-19 7 -25 19 -20 32z" />
    <glyph glyph-name="k" unicode="k" horiz-adv-x="578" 
d="M60 8c-20 0 -31 8 -29 21s12 21 29 24l11 2c19 3 25 18 25 32v414c0 14 -7 29 -25 32l-11 2c-17 3 -27 10 -29 25c-2 14 9 21 29 21h174c20 0 32 -7 30 -21c-3 -15 -12 -22 -29 -25l-10 -2c-19 -3 -25 -18 -25 -32v-172l175 172c15 15 3 29 -14 32l-3 1
c-16 4 -26 11 -28 26c-2 13 9 21 29 21h158c20 0 32 -7 30 -21c-3 -15 -12 -23 -29 -26h-1c-34 -8 -50 -19 -91 -60l-161 -157l226 -205c22 -20 38 -31 52 -37c15 -6 25 -8 29 -19c4 -9 -4 -18 -22 -26l-64 -27c-15 -6 -29 -4 -41 8l-245 230v-154c0 -14 4 -29 25 -32l10 -2
c17 -3 27 -10 29 -24s-9 -21 -29 -21h-175z" />
    <glyph glyph-name="l" unicode="l" horiz-adv-x="532" 
d="M61 8c-20 0 -31 8 -29 21s12 21 29 24l10 2c19 3 25 18 25 32v414c0 14 -6 29 -25 32l-11 2c-17 3 -26 10 -28 25c-2 13 9 21 29 21h174c20 0 32 -7 30 -21c-3 -15 -12 -22 -29 -25l-11 -2c-18 -3 -25 -18 -25 -32v-400c0 -24 13 -39 36 -39h100c53 0 95 19 126 60
c11 15 20 21 29 17c8 -4 10 -16 4 -33l-23 -73c-5 -16 -17 -25 -34 -25h-377z" />
    <glyph glyph-name="m" unicode="m" horiz-adv-x="859" 
d="M61 8c-20 0 -31 8 -29 21s12 22 28 26l23 5c25 5 33 17 36 42l39 376c2 26 -10 49 -37 55l-11 2c-17 3 -26 12 -28 26c-2 12 8 20 29 20h127c17 0 29 -7 35 -23l158 -383l179 384c7 16 18 22 35 22h126c20 0 32 -7 30 -18c-3 -12 -13 -18 -30 -21c-34 -5 -55 -25 -52 -77
l22 -363c1 -25 11 -37 35 -42l24 -5c16 -4 26 -12 28 -26s-9 -21 -29 -21h-195c-20 0 -31 8 -29 21s11 22 28 25h3c22 4 30 17 28 35l-20 340l-187 -399c-7 -16 -16 -22 -28 -22c-13 0 -22 8 -29 23l-168 382l-24 -324c-2 -18 5 -31 27 -35l3 -1c17 -3 27 -10 29 -24
s-9 -21 -29 -21h-147z" />
    <glyph glyph-name="n" unicode="n" horiz-adv-x="692" 
d="M61 8c-20 0 -31 8 -29 21s11 22 28 25l11 2c19 4 25 18 25 32v414c0 13 -7 28 -25 31l-11 2c-17 3 -26 12 -28 26c-2 12 8 20 29 20h121c15 0 26 -5 36 -17l315 -376v314c0 13 -7 28 -25 31l-10 2c-17 3 -26 12 -28 26c-2 12 8 20 29 20h132c20 0 32 -7 30 -20
c-3 -15 -13 -23 -29 -26l-10 -2c-19 -3 -26 -18 -26 -31v-479c0 -16 -5 -27 -17 -35s-23 -5 -35 10l-385 453v-363c0 -14 5 -28 25 -32l12 -2c17 -3 26 -11 28 -25s-9 -21 -29 -21h-134z" />
    <glyph glyph-name="ntilde" unicode="&#xf1;" horiz-adv-x="692" 
d="M61 8c-20 0 -31 8 -29 21s11 22 28 25l11 2c19 4 25 18 25 32v414c0 13 -7 28 -25 31l-11 2c-17 3 -26 12 -28 26c-2 12 8 20 29 20h121c15 0 26 -5 36 -17l315 -376v314c0 13 -7 28 -25 31l-10 2c-17 3 -26 12 -28 26c-2 12 8 20 29 20h132c20 0 32 -7 30 -20
c-3 -15 -13 -23 -29 -26l-10 -2c-19 -3 -26 -18 -26 -31v-479c0 -16 -5 -27 -17 -35s-23 -5 -35 10l-385 453v-363c0 -14 5 -28 25 -32l12 -2c17 -3 26 -11 28 -25s-9 -21 -29 -21h-134zM233 627c-10 2 -17 13 -11 32c17 62 82 85 135 47c36 -25 61 -27 75 -12
c13 13 18 22 28 19s15 -15 10 -33c-21 -68 -95 -80 -140 -46c-34 24 -56 26 -69 12c-13 -13 -17 -22 -28 -19z" />
    <glyph glyph-name="o" unicode="o" horiz-adv-x="663" 
d="M351 56c110 9 185 99 171 256c-12 122 -95 221 -203 221c-95 0 -184 -87 -175 -244c7 -121 89 -245 207 -233zM28 289c6 179 170 298 321 298c172 0 289 -115 286 -287c-4 -179 -160 -299 -311 -299c-157 0 -302 104 -296 288z" />
    <glyph glyph-name="oacute" unicode="&#xf3;" horiz-adv-x="663" 
d="M351 56c110 9 185 99 171 256c-12 122 -95 221 -203 221c-95 0 -184 -87 -175 -244c7 -121 89 -245 207 -233zM28 289c6 179 170 298 321 298c172 0 289 -115 286 -287c-4 -179 -160 -299 -311 -299c-157 0 -302 104 -296 288zM251 620c-8 11 -4 22 10 35
c24 23 46 52 63 80c20 31 67 33 91 -1c23 -33 5 -76 -31 -85c-31 -7 -66 -17 -95 -32c-17 -9 -29 -9 -38 3z" />
    <glyph glyph-name="ocircumflex" unicode="&#xf4;" horiz-adv-x="663" 
d="M351 56c110 9 185 99 171 256c-12 122 -95 221 -203 221c-95 0 -184 -87 -175 -244c7 -121 89 -245 207 -233zM28 289c6 179 170 298 321 298c172 0 289 -115 286 -287c-4 -179 -160 -299 -311 -299c-157 0 -302 104 -296 288zM221 609c-6 9 -3 21 10 33l82 75
c14 13 28 13 42 0l77 -73c13 -13 17 -24 12 -33c-6 -10 -18 -10 -34 -2l-75 36l-80 -38c-17 -8 -28 -7 -34 2z" />
    <glyph glyph-name="odieresis" unicode="&#xf6;" horiz-adv-x="663" 
d="M351 56c110 9 185 99 171 256c-12 122 -95 221 -203 221c-95 0 -184 -87 -175 -244c7 -121 89 -245 207 -233zM28 289c6 179 170 298 321 298c172 0 289 -115 286 -287c-4 -179 -160 -299 -311 -299c-157 0 -302 104 -296 288zM176 677c0 34 29 63 64 63
c36 0 65 -29 65 -63c0 -35 -29 -64 -65 -64c-35 0 -64 29 -64 64zM358 677c0 34 29 63 64 63c36 0 65 -29 65 -63c0 -35 -29 -64 -65 -64c-35 0 -64 29 -64 64z" />
    <glyph glyph-name="ograve" unicode="&#xf2;" horiz-adv-x="663" 
d="M351 56c110 9 185 99 171 256c-12 122 -95 221 -203 221c-95 0 -184 -87 -175 -244c7 -121 89 -245 207 -233zM28 289c6 179 170 298 321 298c172 0 289 -115 286 -287c-4 -179 -160 -299 -311 -299c-157 0 -302 104 -296 288zM249 734c23 34 70 32 91 1
c16 -28 39 -57 63 -80c14 -13 18 -24 10 -35c-8 -12 -21 -12 -38 -3c-30 15 -65 25 -95 32c-36 9 -54 52 -31 85z" />
    <glyph glyph-name="oslash" unicode="&#xf8;" horiz-adv-x="663" 
d="M351 56c110 9 185 99 171 256c-4 45 -19 87 -40 122l-260 -329c34 -34 78 -54 129 -49zM28 289c6 179 170 298 321 298c58 0 110 -13 153 -37l11 13c10 13 22 18 37 18h1c25 0 35 -15 22 -32l-25 -32c56 -50 89 -126 87 -217c-4 -179 -160 -299 -311 -299
c-55 0 -109 13 -155 37l-10 -12c-10 -13 -22 -18 -37 -18v0c-25 0 -36 15 -23 31l24 30c-60 49 -98 124 -95 220zM144 289c3 -49 18 -98 43 -139l259 329c-34 34 -78 54 -127 54c-95 0 -184 -87 -175 -244z" />
    <glyph glyph-name="otilde" unicode="&#xf5;" horiz-adv-x="663" 
d="M351 56c110 9 185 99 171 256c-12 122 -95 221 -203 221c-95 0 -184 -87 -175 -244c7 -121 89 -245 207 -233zM28 289c6 179 170 298 321 298c172 0 289 -115 286 -287c-4 -179 -160 -299 -311 -299c-157 0 -302 104 -296 288zM218 627c-10 2 -17 13 -11 32
c17 62 82 85 135 47c36 -25 61 -27 75 -12c13 13 18 22 28 19s16 -15 11 -33c-22 -68 -96 -80 -141 -46c-34 24 -56 26 -69 12c-12 -13 -17 -22 -28 -19z" />
    <glyph glyph-name="oe" unicode="&#x153;" horiz-adv-x="871" 
d="M352 1c-185 0 -324 139 -324 313c0 99 49 190 151 237c46 18 108 30 173 30h416c19 0 31 -12 30 -31l-4 -88c-1 -19 -10 -29 -23 -28s-21 11 -23 30c-6 48 -27 62 -97 62h-87c-19 0 -26 -17 -26 -31v-179c49 4 129 13 147 22c11 5 18 13 23 22c9 16 16 24 27 22
c11 -3 16 -14 14 -32l-12 -107c-2 -20 -9 -28 -21 -27s-14 10 -21 28c-6 16 -24 30 -69 29c-69 -2 -88 -15 -88 -49v-122c0 -25 13 -39 37 -39h99c53 0 96 19 127 59c11 15 20 21 29 17c8 -4 10 -16 4 -33l-23 -73c-5 -16 -17 -25 -34 -25h-171zM148 302
c0 -141 98 -246 211 -246h42c20 0 33 11 33 38v401c0 18 -10 31 -34 31h-51c-105 0 -201 -73 -201 -224z" />
    <glyph glyph-name="p" unicode="p" horiz-adv-x="482" 
d="M61 8c-20 0 -31 8 -29 21s11 22 28 25l11 2c19 4 25 18 25 32v414c0 13 -7 28 -25 31l-11 2c-17 3 -26 12 -28 26c-2 12 8 20 29 20h195c35 0 77 -4 110 -11c13 -3 22 -7 33 -17c37 -32 55 -76 55 -131c0 -103 -87 -164 -191 -164c-19 0 -29 10 -29 23s11 18 31 18
c52 2 87 39 87 114c0 77 -51 113 -107 113h-20c-16 0 -25 -13 -25 -31v-407c0 -14 5 -28 25 -32l11 -2c17 -3 27 -11 29 -25s-9 -21 -29 -21h-175z" />
    <glyph glyph-name="thorn" unicode="&#xfe;" horiz-adv-x="482" 
d="M234 155c0 13 11 18 31 18c52 2 87 39 87 114c0 77 -51 113 -107 113h-45v-312c0 -14 4 -28 25 -32l10 -2c17 -3 27 -11 29 -25s-9 -21 -29 -21h-175c-20 0 -31 8 -29 21s11 22 28 25l12 2c19 3 24 18 24 32v414c0 13 -7 28 -24 31l-12 2c-17 3 -26 12 -28 26
c-2 12 9 20 29 20h174c20 0 32 -7 30 -20c-3 -15 -13 -23 -29 -26l-10 -2c-19 -3 -25 -18 -25 -31v-47h56c35 0 77 -4 110 -11c13 -3 22 -7 33 -17c37 -32 55 -76 55 -131c0 -103 -87 -164 -191 -164c-19 0 -29 9 -29 23z" />
    <glyph glyph-name="q" unicode="q" horiz-adv-x="678" 
d="M533 -131c-13 -7 -25 -9 -40 -4c-77 30 -152 82 -212 139c-140 17 -258 118 -253 285c6 179 170 298 321 298c172 0 290 -115 287 -287c-4 -136 -95 -239 -206 -279c56 -37 119 -59 171 -62c16 -1 26 -3 36 -13c8 -8 1 -19 -18 -30zM144 289c7 -121 100 -236 217 -226
c107 10 175 92 161 249c-12 122 -94 221 -203 221c-95 0 -184 -87 -175 -244z" />
    <glyph glyph-name="r" unicode="r" horiz-adv-x="550" 
d="M61 8c-20 0 -31 8 -29 21s12 21 29 24l10 2c19 3 25 18 25 32v414c0 14 -6 29 -25 32l-11 2c-17 3 -26 10 -28 25c-2 13 9 21 29 21h195c35 0 76 -4 110 -12c13 -3 22 -7 33 -16c38 -32 62 -77 62 -131c0 -74 -46 -124 -113 -149l119 -169c18 -26 38 -41 55 -49
c15 -7 24 -13 26 -24c1 -11 -9 -18 -28 -20l-96 -11c-16 -2 -28 3 -37 18l-145 235h-12c-11 0 -21 1 -30 2v-168c0 -14 5 -29 25 -32l11 -2c17 -3 27 -10 29 -24s-9 -21 -29 -21h-175zM200 335c0 -28 11 -34 33 -34c65 0 118 22 118 111c0 78 -51 114 -106 114h-20
c-16 0 -25 -13 -25 -32v-159z" />
    <glyph glyph-name="s" unicode="s" horiz-adv-x="418" 
d="M203 1c-70 0 -118 19 -152 33c-16 7 -23 18 -23 35v82c0 18 5 30 15 31s17 -8 23 -25c22 -67 63 -102 132 -102c123 0 162 136 -11 190c-97 30 -158 92 -148 184c8 75 84 158 221 158c23 0 49 -3 76 -9c19 -4 28 -17 25 -35l-12 -77c-3 -20 -12 -28 -25 -26
c-14 2 -19 12 -22 31c-5 40 -30 62 -83 62c-62 0 -106 -43 -96 -91c11 -59 56 -67 163 -113c173 -75 119 -328 -83 -328z" />
    <glyph glyph-name="scaron" unicode="&#x161;" horiz-adv-x="418" 
d="M203 1c-70 0 -118 19 -152 33c-16 7 -23 18 -23 35v82c0 18 5 30 15 31s17 -8 23 -25c22 -67 63 -102 132 -102c123 0 162 136 -11 190c-97 30 -158 92 -148 184c8 75 84 158 221 158c23 0 49 -3 76 -9c19 -4 28 -17 25 -35l-12 -77c-3 -20 -12 -28 -25 -26
c-14 2 -19 12 -22 31c-5 40 -30 62 -83 62c-62 0 -106 -43 -96 -91c11 -59 56 -67 163 -113c173 -75 119 -328 -83 -328zM109 690c-13 13 -17 23 -11 33s17 10 34 2l80 -38l75 36c16 8 28 8 34 -2s2 -20 -11 -33l-78 -73c-14 -13 -28 -13 -42 0z" />
    <glyph glyph-name="germandbls" unicode="&#xdf;" horiz-adv-x="500" 
d="M47 8c-20 0 -31 8 -29 21s11 22 28 25l11 2c19 4 25 18 25 32v316c0 92 55 173 172 177c25 0 73 -2 165 -23c19 -5 29 -16 26 -34c-12 -71 -63 -157 -99 -205l44 -14c12 -4 22 -8 32 -16c26 -21 51 -60 51 -110c0 -110 -90 -170 -192 -179c-18 -1 -29 8 -34 25
c-5 19 4 30 24 34c45 8 83 37 83 108c0 72 -24 110 -80 119c-19 3 -29 11 -29 26v2c0 15 5 25 14 37c36 43 64 103 72 154c-18 12 -38 21 -69 21c-41 0 -76 -26 -76 -116v-372c0 -19 -11 -30 -30 -30h-109z" />
    <glyph glyph-name="t" unicode="t" horiz-adv-x="605" 
d="M209 8c-20 0 -31 8 -29 21s11 22 28 25l12 2c19 3 24 18 24 32v407c0 14 -6 31 -24 31h-102c-35 0 -60 -19 -80 -62c-4 -9 -12 -12 -22 -7s-14 17 -10 34l21 88c4 19 12 27 24 26s16 -9 26 -18c5 -4 11 -6 18 -6h435c9 0 18 2 25 7c15 10 24 17 34 11s14 -17 10 -35
l-24 -98c-4 -18 -14 -27 -26 -25s-19 6 -18 13c6 38 -14 72 -56 72h-101c-17 0 -25 -17 -25 -31v-407c0 -14 5 -28 25 -32l11 -2c17 -3 27 -11 29 -25s-9 -21 -29 -21h-176z" />
    <glyph glyph-name="u" unicode="u" horiz-adv-x="592" 
d="M296 1c-115 0 -221 66 -221 195v305c0 14 -6 29 -25 32l-11 2c-17 3 -26 10 -28 25c-2 13 9 21 29 21h174c20 0 32 -7 30 -21c-3 -15 -12 -22 -29 -25l-11 -2c-18 -3 -25 -18 -25 -59v-266c0 -89 51 -141 137 -141c87 0 138 56 138 127v280c0 41 -7 56 -26 59l-10 2
c-17 3 -27 10 -29 25c-2 14 9 21 29 21h134c20 0 32 -7 30 -21c-3 -15 -12 -22 -29 -25l-11 -2c-19 -3 -25 -18 -25 -32v-305c0 -129 -107 -195 -221 -195z" />
    <glyph glyph-name="uacute" unicode="&#xfa;" horiz-adv-x="592" 
d="M296 1c-115 0 -221 66 -221 195v305c0 14 -6 29 -25 32l-11 2c-17 3 -26 10 -28 25c-2 13 9 21 29 21h174c20 0 32 -7 30 -21c-3 -15 -12 -22 -29 -25l-11 -2c-18 -3 -25 -18 -25 -59v-266c0 -89 51 -141 137 -141c87 0 138 56 138 127v280c0 41 -7 56 -26 59l-10 2
c-17 3 -27 10 -29 25c-2 14 9 21 29 21h134c20 0 32 -7 30 -21c-3 -15 -12 -22 -29 -25l-11 -2c-19 -3 -25 -18 -25 -32v-305c0 -129 -107 -195 -221 -195zM236 620c-8 11 -4 22 10 35c24 23 47 52 63 80c21 31 68 33 91 -1c23 -33 5 -76 -31 -85c-30 -7 -65 -17 -95 -32
c-17 -9 -29 -9 -38 3z" />
    <glyph glyph-name="ucircumflex" unicode="&#xfb;" horiz-adv-x="592" 
d="M296 1c-115 0 -221 66 -221 195v305c0 14 -6 29 -25 32l-11 2c-17 3 -26 10 -28 25c-2 13 9 21 29 21h174c20 0 32 -7 30 -21c-3 -15 -12 -22 -29 -25l-11 -2c-18 -3 -25 -18 -25 -59v-266c0 -89 51 -141 137 -141c87 0 138 56 138 127v280c0 41 -7 56 -26 59l-10 2
c-17 3 -27 10 -29 25c-2 14 9 21 29 21h134c20 0 32 -7 30 -21c-3 -15 -12 -22 -29 -25l-11 -2c-19 -3 -25 -18 -25 -32v-305c0 -129 -107 -195 -221 -195zM206 609c-6 10 -2 20 11 33l81 75c14 13 28 13 42 0l78 -73c13 -13 17 -23 11 -33s-18 -10 -34 -2l-75 36l-80 -38
c-17 -8 -28 -7 -34 2z" />
    <glyph glyph-name="udieresis" unicode="&#xfc;" horiz-adv-x="592" 
d="M296 1c-115 0 -221 66 -221 195v305c0 14 -6 29 -25 32l-11 2c-17 3 -26 10 -28 25c-2 13 9 21 29 21h174c20 0 32 -7 30 -21c-3 -15 -12 -22 -29 -25l-11 -2c-18 -3 -25 -18 -25 -59v-266c0 -89 51 -141 137 -141c87 0 138 56 138 127v280c0 41 -7 56 -26 59l-10 2
c-17 3 -27 10 -29 25c-2 14 9 21 29 21h134c20 0 32 -7 30 -21c-3 -15 -12 -22 -29 -25l-11 -2c-19 -3 -25 -18 -25 -32v-305c0 -129 -107 -195 -221 -195zM162 677c0 34 28 63 63 63c36 0 65 -29 65 -63c0 -35 -29 -64 -65 -64c-35 0 -63 29 -63 64zM344 677
c0 34 28 63 63 63c36 0 65 -29 65 -63c0 -35 -29 -64 -65 -64c-35 0 -63 29 -63 64z" />
    <glyph glyph-name="ugrave" unicode="&#xf9;" horiz-adv-x="592" 
d="M296 1c-115 0 -221 66 -221 195v305c0 14 -6 29 -25 32l-11 2c-17 3 -26 10 -28 25c-2 13 9 21 29 21h174c20 0 32 -7 30 -21c-3 -15 -12 -22 -29 -25l-11 -2c-18 -3 -25 -18 -25 -59v-266c0 -89 51 -141 137 -141c87 0 138 56 138 127v280c0 41 -7 56 -26 59l-10 2
c-17 3 -27 10 -29 25c-2 14 9 21 29 21h134c20 0 32 -7 30 -21c-3 -15 -12 -22 -29 -25l-11 -2c-19 -3 -25 -18 -25 -32v-305c0 -129 -107 -195 -221 -195zM234 734c24 34 71 32 91 1c17 -28 39 -57 63 -80c14 -13 18 -24 10 -35c-8 -12 -21 -12 -38 -3
c-29 15 -64 25 -95 32c-36 9 -54 52 -31 85z" />
    <glyph glyph-name="v" unicode="v" horiz-adv-x="578" 
d="M81 502c-6 16 -14 28 -32 31l-17 3c-17 3 -27 11 -29 25c-2 12 9 20 29 20h202c20 0 32 -7 30 -20c-3 -15 -12 -23 -29 -26l-11 -2c-22 -4 -31 -17 -25 -31l125 -321l116 321c5 15 -3 27 -25 31l-11 2c-17 3 -26 12 -28 26c-2 12 8 20 29 20h140c20 0 32 -7 30 -20
c-3 -15 -13 -23 -29 -26l-10 -2c-20 -4 -36 -23 -46 -50l-164 -459c-6 -17 -16 -24 -30 -24c-15 0 -25 7 -31 24z" />
    <glyph glyph-name="w" unicode="w" horiz-adv-x="779" 
d="M81 501c-6 17 -14 29 -31 32l-18 2c-17 2 -27 10 -29 25c-2 14 9 21 29 21h715c20 0 31 -7 29 -21c-2 -15 -12 -22 -29 -25l-11 -2c-19 -3 -35 -24 -44 -50l-165 -460c-6 -17 -16 -24 -30 -24s-24 7 -30 24l-73 190l-68 -190c-6 -17 -16 -24 -30 -24s-24 7 -30 24z
M200 496l124 -316l40 110l-81 211c-9 24 -29 34 -51 34c-25 0 -42 -12 -32 -39zM386 501l28 -72l26 72c7 19 2 32 -26 32c-27 0 -35 -14 -28 -32zM444 352l73 -190l124 339c11 29 -23 38 -65 38c-38 0 -68 -9 -85 -56z" />
    <glyph glyph-name="x" unicode="x" horiz-adv-x="624" 
d="M33 8c-20 0 -31 8 -29 21s11 22 27 26h1c18 5 42 15 56 32l175 201l-151 213c-14 20 -37 29 -56 33v0c-17 3 -26 11 -28 26c-2 13 9 21 29 21h222c20 0 32 -7 30 -21c-3 -15 -12 -22 -29 -25l-11 -2c-27 -5 -36 -17 -25 -32l92 -130l113 130c12 13 1 27 -25 32l-11 2
c-17 3 -27 10 -29 25c-2 14 9 21 29 21h175c20 0 31 -7 29 -21c-2 -15 -11 -23 -28 -26h-1c-19 -4 -45 -13 -62 -33l-156 -179l166 -235c14 -20 37 -27 56 -32h1c16 -4 26 -12 28 -26s-9 -21 -29 -21h-222c-20 0 -31 8 -29 21s12 21 29 24l9 2c27 5 35 18 26 32l-108 152
l-132 -152c-11 -12 -1 -27 25 -32l11 -2c17 -3 27 -10 29 -24s-9 -21 -29 -21h-168z" />
    <glyph glyph-name="y" unicode="y" horiz-adv-x="594" 
d="M209 8c-20 0 -31 8 -29 21s12 21 29 24l10 2c20 3 25 18 25 32v180l-156 234c-14 21 -37 29 -56 33v0c-17 3 -26 11 -28 26c-2 13 9 21 29 21h213c20 0 32 -7 30 -21c-3 -15 -13 -22 -30 -24l-8 -1c-27 -3 -35 -17 -25 -32l105 -166l103 164c10 15 2 26 -25 32l-4 1
c-17 3 -26 11 -28 26c-2 13 9 21 29 21h168c20 0 32 -7 30 -21c-3 -15 -12 -23 -29 -26h-1c-25 -6 -51 -16 -67 -39l-144 -215v-193c0 -14 5 -29 25 -32l11 -2c17 -3 27 -10 29 -24s-9 -21 -29 -21h-177z" />
    <glyph glyph-name="yacute" unicode="&#xfd;" horiz-adv-x="594" 
d="M209 8c-20 0 -31 8 -29 21s12 21 29 24l10 2c20 3 25 18 25 32v180l-156 234c-14 21 -37 29 -56 33v0c-17 3 -26 11 -28 26c-2 13 9 21 29 21h213c20 0 32 -7 30 -21c-3 -15 -13 -22 -30 -24l-8 -1c-27 -3 -35 -17 -25 -32l105 -166l103 164c10 15 2 26 -25 32l-4 1
c-17 3 -26 11 -28 26c-2 13 9 21 29 21h168c20 0 32 -7 30 -21c-3 -15 -12 -23 -29 -26h-1c-25 -6 -51 -16 -67 -39l-144 -215v-193c0 -14 5 -29 25 -32l11 -2c17 -3 27 -10 29 -24s-9 -21 -29 -21h-177zM236 620c-8 11 -4 22 10 35c24 23 46 52 63 80c20 31 67 33 91 -1
c22 -33 5 -76 -32 -85c-30 -7 -65 -17 -94 -32c-17 -9 -29 -9 -38 3z" />
    <glyph glyph-name="ydieresis" unicode="&#xff;" horiz-adv-x="594" 
d="M209 8c-20 0 -31 8 -29 21s12 21 29 24l10 2c20 3 25 18 25 32v180l-156 234c-14 21 -37 29 -56 33v0c-17 3 -26 11 -28 26c-2 13 9 21 29 21h213c20 0 32 -7 30 -21c-3 -15 -13 -22 -30 -24l-8 -1c-27 -3 -35 -17 -25 -32l105 -166l103 164c10 15 2 26 -25 32l-4 1
c-17 3 -26 11 -28 26c-2 13 9 21 29 21h168c20 0 32 -7 30 -21c-3 -15 -12 -23 -29 -26h-1c-25 -6 -51 -16 -67 -39l-144 -215v-193c0 -14 5 -29 25 -32l11 -2c17 -3 27 -10 29 -24s-9 -21 -29 -21h-177zM161 677c0 34 29 63 64 63s64 -29 64 -63c0 -35 -29 -64 -64 -64
s-64 29 -64 64zM343 677c0 34 29 63 64 63s64 -29 64 -63c0 -35 -29 -64 -64 -64s-64 29 -64 64z" />
    <glyph glyph-name="z" unicode="z" horiz-adv-x="538" 
d="M43 8c-16 0 -26 4 -33 14c-7 8 -5 20 5 34l340 470h-181c-35 0 -61 -19 -82 -63c-4 -9 -11 -10 -21 -6c-10 5 -14 17 -10 34l20 88c4 19 14 28 25 26c12 -2 16 -10 26 -19c5 -3 11 -5 17 -5h320c15 0 26 -3 32 -11s4 -19 -6 -33l-347 -475h221c53 0 95 19 126 60
c11 15 20 21 29 17s11 -15 5 -33l-24 -73c-5 -17 -17 -25 -34 -25h-428z" />
    <glyph glyph-name="zcaron" unicode="&#x17e;" horiz-adv-x="538" 
d="M43 8c-16 0 -26 4 -33 14c-7 8 -5 20 5 34l340 470h-181c-35 0 -61 -19 -82 -63c-4 -9 -11 -10 -21 -6c-10 5 -14 17 -10 34l20 88c4 19 14 28 25 26c12 -2 16 -10 26 -19c5 -3 11 -5 17 -5h320c15 0 26 -3 32 -11s4 -19 -6 -33l-347 -475h221c53 0 95 19 126 60
c11 15 20 21 29 17s11 -15 5 -33l-24 -73c-5 -17 -17 -25 -34 -25h-428zM194 690c-13 13 -17 23 -11 33s17 10 34 2l80 -38l74 36c17 8 30 7 35 -2s2 -19 -11 -32l-78 -74c-14 -13 -28 -13 -42 0z" />
    <glyph glyph-name="ordfeminine" unicode="&#xaa;" horiz-adv-x="608" 
d="M46 208c-20 0 -31 5 -30 13s10 15 27 18l5 1c23 5 40 27 50 54l154 430c5 14 13 23 24 27c16 5 28 13 41 22c13 10 21 15 24 13s3 -9 6 -26c3 -18 9 -40 19 -69l150 -414c7 -19 17 -34 38 -37l12 -2c17 -3 26 -9 28 -17c1 -9 -11 -13 -31 -13h-179c-20 0 -32 4 -31 13
c1 8 10 15 27 18l5 1c27 5 39 23 33 43l-44 119h-198l-43 -119c-6 -21 5 -38 33 -43l4 -1c17 -4 26 -9 28 -18c1 -9 -11 -13 -31 -13h-121zM191 441h168l-84 231z" />
    <glyph glyph-name="ordmasculine" unicode="&#xba;" horiz-adv-x="663" 
d="M352 240c114 9 192 103 178 265c-12 125 -98 228 -211 228c-99 0 -192 -91 -183 -252c7 -125 92 -254 216 -241zM36 481c6 175 165 290 313 290c169 0 281 -110 278 -279c-4 -175 -155 -291 -303 -291c-154 0 -294 100 -288 280z" />
    <glyph glyph-name="uni00B9" unicode="&#xb9;" horiz-adv-x="254" 
d="M72 398c-21 0 -32 3 -31 10c1 6 11 12 27 15v0c21 4 28 21 28 35v284c0 35 -18 48 -38 37l-2 -1c-16 -8 -27 -9 -29 -6s5 12 20 24l83 64c11 9 19 13 25 13c5 0 9 -11 9 -30v-385c0 -14 5 -31 28 -35v0c16 -3 26 -9 27 -15c1 -7 -10 -10 -31 -10h-116z" />
    <glyph glyph-name="uni00B2" unicode="&#xb2;" horiz-adv-x="359" 
d="M14 408c-2 7 3 15 17 26c100 77 181 191 191 271c11 76 -30 118 -80 118c-26 0 -50 -11 -73 -28c-15 -12 -23 -17 -28 -13s-1 15 13 30c41 41 87 67 125 67c80 0 135 -54 116 -149c-17 -87 -93 -177 -209 -274h147c27 0 57 14 83 36c14 13 22 19 26 16
c4 -4 0 -14 -10 -29l-42 -62c-9 -14 -20 -19 -36 -19h-211c-17 0 -27 3 -29 10z" />
    <glyph glyph-name="uni00B3" unicode="&#xb3;" horiz-adv-x="328" 
d="M126 392c-38 0 -70 7 -96 19c-16 8 -23 22 -14 37c3 5 7 9 11 13c14 12 28 3 39 -12c15 -21 35 -33 68 -33c48 0 90 51 90 104c0 62 -38 108 -107 100c-19 -2 -28 -3 -30 2c-2 4 7 10 26 19c56 26 85 51 89 101c4 53 -28 79 -69 77c-21 -2 -38 -9 -53 -19
s-24 -14 -28 -10s-1 14 12 29c31 35 72 60 117 60c65 0 91 -48 91 -88c0 -51 -31 -102 -95 -135c39 7 119 -22 119 -107c0 -84 -65 -157 -170 -157z" />
    <glyph glyph-name="onehalf" unicode="&#xbd;" horiz-adv-x="672" 
d="M72 398c-21 0 -32 3 -31 10c1 6 11 12 27 15v0c21 4 28 21 28 35v284c0 35 -18 48 -38 37l-2 -1c-16 -8 -27 -9 -29 -6s5 12 20 24l83 64c11 9 19 13 25 13c5 0 9 -11 9 -30v-385c0 -14 5 -31 28 -35v0c16 -3 26 -9 27 -15c1 -7 -10 -10 -31 -10h-116zM94 244
c-6 9 0 20 16 31l348 234c16 11 29 12 35 3s0 -20 -16 -31l-349 -234c-16 -11 -28 -12 -34 -3zM327 -92c-2 7 3 15 17 26c100 77 181 191 191 271c11 76 -30 118 -80 118c-26 0 -50 -11 -73 -28c-15 -12 -23 -17 -28 -13s-1 15 13 30c41 41 87 67 125 67
c80 0 135 -54 116 -149c-17 -87 -93 -177 -209 -274h147c27 0 57 14 83 36c14 13 22 19 26 16c4 -4 0 -14 -10 -29l-42 -62c-9 -14 -20 -19 -36 -19h-211c-17 0 -27 3 -29 10z" />
    <glyph glyph-name="onequarter" unicode="&#xbc;" horiz-adv-x="580" 
d="M72 398c-21 0 -32 3 -31 10c1 6 11 12 27 15v0c21 4 28 21 28 35v284c0 35 -18 48 -38 37l-2 -1c-16 -8 -27 -9 -29 -6s5 12 20 24l83 64c11 9 19 13 25 13c5 0 9 -11 9 -30v-385c0 -14 5 -31 28 -35v0c16 -3 26 -9 27 -15c1 -7 -10 -10 -31 -10h-116zM94 244
c-6 9 0 20 16 31l348 234c16 11 29 12 35 3s0 -20 -16 -31l-349 -234c-16 -11 -28 -12 -34 -3zM234 44c-7 7 -5 18 6 33l222 283c11 14 20 20 25 17s8 -12 8 -28v-259h31c23 0 34 -13 25 -29l-4 -8c-8 -14 -19 -21 -32 -21h-20v-104c0 -19 -11 -30 -30 -30h-8
c-19 0 -30 11 -30 30v104h-161c-15 0 -25 4 -32 12zM286 90h141v187z" />
    <glyph glyph-name="threequarters" unicode="&#xbe;" horiz-adv-x="654" 
d="M126 392c-38 0 -70 7 -96 19c-16 8 -23 22 -14 37c3 5 7 9 11 13c14 12 28 3 39 -12c15 -21 35 -33 68 -33c48 0 90 51 90 104c0 62 -38 108 -107 100c-19 -2 -28 -3 -30 2c-2 4 7 10 26 19c56 26 85 51 89 101c4 53 -28 79 -69 77c-21 -2 -38 -9 -53 -19
s-24 -14 -28 -10s-1 14 12 29c31 35 72 60 117 60c65 0 91 -48 91 -88c0 -51 -31 -102 -95 -135c39 7 119 -22 119 -107c0 -84 -65 -157 -170 -157zM168 244c-6 9 0 20 16 31l348 234c16 11 29 12 35 3s0 -20 -16 -31l-349 -234c-16 -11 -28 -12 -34 -3zM308 44
c-7 7 -5 18 6 33l222 283c11 14 20 20 25 17s8 -12 8 -28v-259h31c23 0 34 -13 25 -29l-4 -8c-8 -14 -19 -21 -32 -21h-20v-104c0 -19 -11 -30 -30 -30h-8c-19 0 -30 11 -30 30v104h-161c-15 0 -25 4 -32 12zM360 90h141v187z" />
    <glyph glyph-name="uni2001" unicode="&#x2001;" horiz-adv-x="1000" 
 />
    <glyph glyph-name="uni2003" unicode="&#x2003;" horiz-adv-x="1000" 
 />
    <glyph glyph-name="uni00A0" unicode="&#xa0;" horiz-adv-x="300" 
 />
    <glyph glyph-name="period" unicode="." 
d="M149 9c-57 0 -101 44 -101 101s44 101 101 101s101 -44 101 -101s-44 -101 -101 -101z" />
    <glyph glyph-name="comma" unicode="," horiz-adv-x="330" 
d="M67 -123c-7 16 0 28 20 36c82 35 94 83 45 102c-47 16 -73 56 -71 101c5 56 44 97 109 95c83 -3 127 -88 98 -192c-20 -73 -70 -129 -163 -159c-18 -6 -31 0 -38 17z" />
    <glyph glyph-name="colon" unicode=":" 
d="M149 9c-57 0 -101 44 -101 101s44 101 101 101s101 -44 101 -101s-44 -101 -101 -101zM48 510c0 57 44 101 101 101s101 -44 101 -101s-44 -101 -101 -101s-101 44 -101 101z" />
    <glyph glyph-name="semicolon" unicode=";" 
d="M57 -123c-7 16 0 28 20 36c82 35 94 83 45 102c-47 16 -73 56 -71 101c5 56 44 97 109 95c83 -3 127 -88 98 -192c-20 -73 -70 -129 -163 -159c-18 -6 -31 0 -38 17zM48 510c0 57 44 101 101 101s101 -44 101 -101s-44 -101 -101 -101s-101 44 -101 101z" />
    <glyph glyph-name="ellipsis" unicode="&#x2026;" 
d="M149 9c-57 0 -101 44 -101 101s44 101 101 101s101 -44 101 -101s-44 -101 -101 -101z" />
    <glyph glyph-name="exclam" unicode="!" 
d="M149 9c-57 0 -101 44 -101 101s44 101 101 101s101 -44 101 -101s-44 -101 -101 -101zM63 710c-13 55 25 109 87 109c60 0 97 -54 85 -109c-21 -95 -53 -269 -62 -359c-2 -18 -9 -28 -22 -28s-20 7 -21 20c-8 87 -43 268 -67 367z" />
    <glyph glyph-name="exclamdown" unicode="&#xa1;" 
d="M149 563c57 0 101 -44 101 -101s-44 -101 -101 -101s-101 44 -101 101s44 101 101 101zM63 -138c21 95 53 269 62 359c2 18 9 28 22 28s20 -10 22 -28c9 -89 43 -263 66 -359c13 -55 -25 -109 -87 -109c-60 0 -97 54 -85 109z" />
    <glyph glyph-name="question" unicode="?" horiz-adv-x="524" 
d="M242 9c-57 0 -101 44 -101 101s44 101 101 101s101 -44 101 -101s-44 -101 -101 -101zM48 645c8 97 91 175 216 175c138 0 227 -81 210 -201c-17 -122 -164 -178 -195 -270c-6 -17 -15 -26 -33 -26h-1c-20 0 -32 12 -29 32c18 92 94 125 117 233c23 106 -25 176 -94 176
c-52 0 -92 -42 -60 -113c19 -45 -1 -93 -52 -98c-48 -5 -83 40 -79 92z" />
    <glyph glyph-name="questiondown" unicode="&#xbf;" horiz-adv-x="524" 
d="M282 563c57 0 101 -44 101 -101s-44 -101 -101 -101s-101 44 -101 101s44 101 101 101zM50 -47c17 122 164 178 195 270c6 17 15 26 33 26h1c20 0 32 -12 29 -32c-18 -92 -94 -125 -117 -233c-23 -106 25 -176 94 -176c52 0 92 42 60 113c-19 45 1 93 52 98
c48 5 83 -40 79 -92c-8 -97 -91 -175 -216 -175c-138 0 -227 81 -210 201z" />
    <glyph glyph-name="periodcentered" unicode="&#xb7;" 
d="M149 292c-57 0 -101 44 -101 101s44 101 101 101s101 -44 101 -101s-44 -101 -101 -101z" />
    <glyph glyph-name="bullet" unicode="&#x2022;" horiz-adv-x="785" 
d="M392 213c-103 0 -184 82 -184 185s81 184 184 184s185 -81 185 -184s-82 -185 -185 -185z" />
    <glyph glyph-name="asterisk" unicode="*" 
d="M149 433c-30 0 -41 21 -36 47l19 115l-94 -77c-21 -16 -45 -18 -59 8c-15 27 -3 46 23 55l110 41l-110 41c-26 9 -38 27 -23 54c14 25 38 22 58 7l96 -75l-20 117c-5 26 6 47 36 47c29 0 39 -21 35 -47l-17 -115l92 74c19 15 45 17 59 -8c15 -27 2 -45 -23 -54l-111 -41
l111 -41c26 -9 38 -28 23 -55c-14 -26 -38 -24 -59 -8l-92 74l17 -112c4 -26 -6 -47 -35 -47z" />
    <glyph glyph-name="numbersign" unicode="#" horiz-adv-x="572" 
d="M99 366c-20 0 -31 12 -28 32l1 4c3 19 14 27 32 27h69l17 107c3 19 14 28 32 28v0c20 0 31 -11 28 -32l-16 -103h142l17 107c3 19 14 28 32 28v0c20 0 31 -11 28 -32l-16 -103h64c20 0 31 -11 28 -31l-1 -5c-3 -19 -14 -27 -32 -27h-69l-21 -133h68c20 0 31 -11 28 -31
l-1 -5c-3 -19 -14 -27 -32 -27h-73l-18 -114c-3 -19 -14 -28 -32 -28v0c-20 0 -31 11 -28 32l17 110h-142l-18 -114c-3 -19 -14 -28 -32 -28v0c-20 0 -31 11 -28 32l17 110h-60c-20 0 -31 12 -28 32l1 4c3 19 14 27 32 27h65l21 133h-64zM203 233h142l21 133h-142z" />
    <glyph glyph-name="slash" unicode="/" horiz-adv-x="600" 
d="M492 790c8 14 20 20 36 20h8c24 0 32 -15 20 -36l-447 -746c-8 -14 -20 -20 -36 -20h-8c-24 0 -32 15 -20 36z" />
    <glyph glyph-name="backslash" unicode="\" horiz-adv-x="600" 
d="M72 810c16 0 28 -6 36 -20l447 -746c12 -21 6 -36 -15 -36h-13c-16 0 -28 6 -36 20l-447 746c-12 21 -4 36 20 36h8z" />
    <glyph glyph-name="uniFF20" unicode="&#xff20;" horiz-adv-x="675" 
d="M468 256c58 8 87 65 83 160c-5 89 -45 138 -99 138c-55 0 -91 -52 -88 -150c3 -94 44 -154 104 -148zM-23 401c5 250 180 418 363 418c213 0 331 -146 331 -332c0 -174 -106 -293 -256 -293c-106 0 -176 86 -178 205c-2 120 79 212 182 212c50 0 93 -12 133 -32
c-5 91 -77 181 -201 181c-125 0 -235 -142 -232 -359c3 -227 115 -337 222 -337c51 0 90 16 118 32c16 10 29 10 40 -2c10 -11 8 -24 -8 -37c-47 -35 -106 -59 -197 -59c-181 0 -322 171 -317 403z" />
    <glyph glyph-name="uniFF3C" unicode="&#xff3c;" horiz-adv-x="600" 
d="M72 810c16 0 28 -6 36 -20l447 -746c12 -21 6 -36 -15 -36h-13c-16 0 -28 6 -36 20l-447 746c-12 21 -4 36 20 36h8z" />
    <glyph glyph-name="uniFF1A" unicode="&#xff1a;" 
d="M149 9c-57 0 -101 44 -101 101s44 101 101 101s101 -44 101 -101s-44 -101 -101 -101zM48 510c0 57 44 101 101 101s101 -44 101 -101s-44 -101 -101 -101s-101 44 -101 101z" />
    <glyph glyph-name="uniFF0C" unicode="&#xff0c;" horiz-adv-x="330" 
d="M67 -123c-7 16 0 28 20 36c82 35 94 83 45 102c-47 16 -73 56 -71 101c5 56 44 97 109 95c83 -3 127 -88 98 -192c-20 -73 -70 -129 -163 -159c-18 -6 -31 0 -38 17z" />
    <glyph glyph-name="uniFF01" unicode="&#xff01;" 
d="M149 9c-57 0 -101 44 -101 101s44 101 101 101s101 -44 101 -101s-44 -101 -101 -101zM63 710c-13 55 25 109 87 109c60 0 97 -54 85 -109c-21 -95 -53 -269 -62 -359c-2 -18 -9 -28 -22 -28s-20 7 -21 20c-8 87 -43 268 -67 367z" />
    <glyph glyph-name="uniFF03" unicode="&#xff03;" horiz-adv-x="572" 
d="M99 366c-20 0 -31 12 -28 32l1 4c3 19 14 27 32 27h69l17 107c3 19 14 28 32 28v0c20 0 31 -11 28 -32l-16 -103h142l17 107c3 19 14 28 32 28v0c20 0 31 -11 28 -32l-16 -103h64c20 0 31 -11 28 -31l-1 -5c-3 -19 -14 -27 -32 -27h-69l-21 -133h68c20 0 31 -11 28 -31
l-1 -5c-3 -19 -14 -27 -32 -27h-73l-18 -114c-3 -19 -14 -28 -32 -28v0c-20 0 -31 11 -28 32l17 110h-142l-18 -114c-3 -19 -14 -28 -32 -28v0c-20 0 -31 11 -28 32l17 110h-60c-20 0 -31 12 -28 32l1 4c3 19 14 27 32 27h65l21 133h-64zM203 233h142l21 133h-142z" />
    <glyph glyph-name="hyphen" unicode="-" horiz-adv-x="457" 
d="M111 318c-19 0 -30 11 -30 30v13c0 19 11 30 30 30h235c19 0 30 -11 30 -30v-13c0 -19 -11 -30 -30 -30h-235z" />
    <glyph glyph-name="uni00AD" unicode="&#xad;" horiz-adv-x="457" 
d="M111 318c-19 0 -30 11 -30 30v13c0 19 11 30 30 30h235c19 0 30 -11 30 -30v-13c0 -19 -11 -30 -30 -30h-235z" />
    <glyph glyph-name="endash" unicode="&#x2013;" horiz-adv-x="657" 
d="M111 328c-19 0 -30 11 -30 30v3c0 19 11 30 30 30h435c19 0 30 -11 30 -30v-3c0 -19 -11 -30 -30 -30h-435z" />
    <glyph glyph-name="emdash" unicode="&#x2014;" horiz-adv-x="857" 
d="M111 328c-19 0 -30 11 -30 30v3c0 19 11 30 30 30h635c19 0 30 -11 30 -30v-3c0 -19 -11 -30 -30 -30h-635z" />
    <glyph glyph-name="underscore" unicode="_" horiz-adv-x="597" 
d="M88 -42c-18 0 -30 10 -32 28v3c-2 21 8 32 28 32h429c20 0 30 -12 28 -32v-3c-2 -18 -14 -28 -32 -28h-421z" />
    <glyph glyph-name="parenleft" unicode="(" horiz-adv-x="430" 
d="M339 -68c-7 -9 -20 -11 -35 -1c-117 67 -196 213 -196 438s79 371 196 438c15 10 28 8 35 -1c6 -10 2 -20 -12 -33c-71 -69 -89 -206 -89 -404s18 -335 89 -404c14 -13 19 -23 12 -33z" />
    <glyph glyph-name="parenright" unicode=")" horiz-adv-x="430" 
d="M92 -68c-7 9 -2 20 11 33c71 70 89 206 89 404s-18 334 -89 404c-13 13 -18 24 -11 33c6 9 19 11 34 1c117 -67 196 -213 196 -438s-79 -371 -196 -438c-15 -10 -27 -8 -34 1z" />
    <glyph glyph-name="braceleft" unicode="{" horiz-adv-x="430" 
d="M338 -69c-7 -10 -18 -12 -35 -5c-125 46 -150 122 -151 216c-1 112 -26 178 -79 201c-16 7 -25 13 -25 24c0 10 9 16 25 23c50 20 72 81 69 183c-4 106 23 189 161 240c17 6 28 4 35 -6c6 -9 -1 -18 -19 -29c-81 -48 -83 -129 -70 -225c12 -98 -11 -154 -69 -184
c57 -28 79 -83 68 -179c-13 -98 -11 -180 71 -230c18 -11 25 -20 19 -29z" />
    <glyph glyph-name="braceright" unicode="}" horiz-adv-x="430" 
d="M92 -69c-6 9 1 18 19 29c82 50 84 132 71 230c-11 96 11 151 68 179c-58 30 -81 86 -69 184c13 96 11 177 -70 225c-18 11 -25 20 -19 29c7 10 18 12 35 6c138 -51 165 -134 161 -240c-3 -102 19 -163 69 -183c16 -7 25 -12 25 -23s-9 -17 -25 -24
c-53 -23 -78 -89 -79 -201c-1 -94 -26 -170 -151 -216c-17 -7 -28 -4 -35 5z" />
    <glyph glyph-name="bracketleft" unicode="[" horiz-adv-x="430" 
d="M138 -84c-19 0 -30 11 -30 30v834c0 19 11 30 30 30h226c19 0 30 -7 30 -19s-11 -19 -30 -19h-126v-818h126c19 0 30 -7 30 -19s-11 -19 -30 -19h-226z" />
    <glyph glyph-name="bracketright" unicode="]" horiz-adv-x="430" 
d="M322 -54c0 -19 -11 -30 -30 -30h-226c-19 0 -30 7 -30 19s11 19 30 19h126v818h-126c-19 0 -30 7 -30 19s11 19 30 19h226c19 0 30 -11 30 -30v-834z" />
    <glyph glyph-name="quotesinglbase" unicode="&#x201a;" horiz-adv-x="330" 
d="M67 -123c-7 16 0 28 20 36c82 35 94 83 45 102c-47 16 -73 56 -71 101c5 56 44 97 109 95c83 -3 127 -88 98 -192c-20 -73 -70 -129 -163 -159c-18 -6 -31 0 -38 17z" />
    <glyph glyph-name="quotedblbase" unicode="&#x201e;" horiz-adv-x="660" 
d="M67 -123c-7 16 0 28 20 36c82 35 94 83 45 102c-47 16 -73 56 -71 101c5 56 44 97 109 95c83 -3 127 -88 98 -192c-20 -73 -70 -129 -163 -159c-18 -6 -31 0 -38 17zM397 -123c-7 16 0 28 20 36c82 35 94 83 45 102c-47 16 -73 56 -71 101c5 56 44 97 109 95
c83 -3 127 -88 98 -192c-20 -73 -70 -129 -163 -159c-18 -6 -31 0 -38 17z" />
    <glyph glyph-name="quotedblleft" unicode="&#x201c;" horiz-adv-x="610" 
d="M263 794c7 -16 0 -28 -20 -36c-82 -35 -94 -83 -45 -102c47 -16 73 -56 71 -101c-5 -56 -44 -97 -109 -95c-83 3 -127 88 -98 192c20 73 70 129 163 159c18 6 31 0 38 -17zM342 652c20 73 70 129 163 159c18 6 31 -1 38 -17s0 -28 -20 -36c-82 -35 -94 -83 -45 -102
c47 -16 73 -56 71 -101c-5 -56 -44 -97 -109 -95c-83 3 -127 88 -98 192z" />
    <glyph glyph-name="quotedblright" unicode="&#x201d;" horiz-adv-x="610" 
d="M67 486c-7 16 0 28 20 36c82 35 94 83 45 102c-47 16 -73 56 -71 101c5 56 44 97 109 95c83 -3 127 -88 98 -192c-20 -73 -70 -129 -163 -159c-18 -6 -31 0 -38 17zM347 486c-7 16 0 28 20 36c82 35 94 83 45 102c-47 16 -73 56 -71 101c5 56 44 97 109 95
c83 -3 127 -88 98 -192c-20 -73 -70 -129 -163 -159c-18 -6 -31 0 -38 17z" />
    <glyph glyph-name="quoteleft" unicode="&#x2018;" horiz-adv-x="330" 
d="M263 794c7 -16 0 -28 -20 -36c-82 -35 -94 -83 -45 -102c47 -16 73 -56 71 -101c-5 -56 -44 -97 -109 -95c-83 3 -127 88 -98 192c20 73 70 129 163 159c18 6 31 0 38 -17z" />
    <glyph glyph-name="quoteright" unicode="&#x2019;" horiz-adv-x="330" 
d="M67 486c-7 16 0 28 20 36c82 35 94 83 45 102c-47 16 -73 56 -71 101c5 56 44 97 109 95c83 -3 127 -88 98 -192c-20 -73 -70 -129 -163 -159c-18 -6 -31 0 -38 17z" />
    <glyph glyph-name="guillemotleft" unicode="&#xab;" horiz-adv-x="600" 
d="M542 108c-7 -7 -19 -4 -32 10l-240 241c-13 14 -13 28 0 42l240 241c13 14 25 17 32 10s6 -18 -4 -34l-151 -238l151 -238c10 -16 11 -27 4 -34zM60 359c-13 14 -13 28 0 42l240 241c13 14 25 17 32 10s6 -18 -4 -34l-151 -238l151 -238c10 -16 11 -27 4 -34
s-19 -4 -32 10z" />
    <glyph glyph-name="guillemotright" unicode="&#xbb;" horiz-adv-x="600" 
d="M90 118c-13 -14 -25 -17 -32 -10c-8 8 -6 18 4 34l151 238l-151 238c-10 16 -12 26 -4 34c7 7 19 4 32 -10l240 -241c13 -14 13 -28 0 -42zM268 108c-7 7 -6 18 4 34l151 238l-151 238c-10 16 -11 27 -4 34s19 4 32 -10l240 -241c13 -14 13 -28 0 -42l-240 -241
c-13 -14 -25 -17 -32 -10z" />
    <glyph glyph-name="guilsinglleft" unicode="&#x2039;" horiz-adv-x="390" 
d="M332 108c-7 -7 -19 -4 -32 10l-240 241c-13 14 -13 28 0 42l240 241c13 14 25 17 32 10s6 -18 -4 -34l-151 -238l151 -238c10 -16 11 -27 4 -34z" />
    <glyph glyph-name="guilsinglright" unicode="&#x203a;" horiz-adv-x="390" 
d="M90 118c-13 -14 -25 -17 -32 -10c-8 8 -6 18 4 34l151 238l-151 238c-10 16 -12 26 -4 34c7 7 19 4 32 -10l240 -241c13 -14 13 -28 0 -42z" />
    <glyph glyph-name="quotedbl" unicode="&#x22;" horiz-adv-x="546" 
d="M151 493c-13 0 -20 10 -22 29c-8 62 -35 137 -57 189c-21 52 16 108 78 108c60 0 96 -56 76 -108c-22 -51 -45 -127 -53 -189c-2 -19 -9 -29 -22 -29zM320 711c-21 52 16 108 78 108c60 0 96 -56 76 -108c-22 -51 -45 -127 -53 -189c-2 -19 -9 -29 -22 -29s-20 10 -22 29
c-8 62 -35 137 -57 189z" />
    <glyph glyph-name="quotesingle" unicode="'" 
d="M151 493c-13 0 -20 10 -22 29c-8 62 -35 137 -57 189c-21 52 16 108 78 108c60 0 96 -56 76 -108c-22 -51 -45 -127 -53 -189c-2 -19 -9 -29 -22 -29z" />
    <glyph glyph-name="florin" unicode="&#x192;" horiz-adv-x="595" 
d="M59 0c6 14 17 19 35 17c79 -9 137 39 137 126v209h-93c-19 0 -30 9 -30 25c0 15 11 24 30 24h93v225c0 151 103 241 286 168c19 -7 25 -20 20 -34c-6 -14 -18 -19 -36 -17c-79 9 -137 -39 -137 -126v-216h102c19 0 30 -8 30 -24s-11 -25 -30 -25h-102v-218
c0 -150 -103 -241 -286 -168c-18 7 -25 20 -19 34z" />
    <glyph glyph-name="uni0030" unicode="0" horiz-adv-x="3093" 
d="M1691 771c-33 0 -52 16 -57 48c-3 14 -3 28 -3 41c0 33 -3 70 4 98c6 29 29 39 53 40c24 0 52 -8 60 -32c11 -28 6 -67 6 -98c0 -18 0 -37 -3 -51c-7 -33 -29 -46 -60 -46zM575 20l4 281h45l34 -176l32 176h48l1 -281h-39l-5 117l-20 -117h-33l-23 114l-2 -114h-42z
M776 20v281h36l47 -134v134h45v-281h-35l-49 138v-138h-44zM935 20v51h48v-51h-48zM1000 119l45 2c0 -16 0 -34 10 -50c4 -7 9 -13 18 -9c8 2 12 11 12 23c0 30 -29 52 -44 70c-9 12 -22 19 -26 29c-11 18 -16 42 -11 66c1 40 48 67 87 49c33 -16 37 -57 37 -90l-43 -2
c-4 18 0 51 -18 54c-22 1 -24 -26 -20 -36c6 -16 17 -23 27 -33l22 -25c26 -26 37 -57 33 -94c-1 -24 -18 -49 -49 -56c-27 -4 -56 7 -68 33c-8 21 -12 44 -12 69zM1041 -196c0 20 11 39 37 34c23 -1 23 -20 23 -37h-14c0 4 1 13 -1 20c-4 10 -19 10 -25 2
c-6 -9 -4 -30 -4 -40c0 -9 -2 -31 6 -41c4 -8 19 -7 23 3c2 7 1 15 1 22h14c0 -19 -2 -43 -27 -43c-41 0 -33 52 -33 80zM1115 -216c0 30 0 59 33 54c33 -1 31 -33 31 -55c0 -25 1 -59 -32 -59c-38 0 -32 37 -32 60zM1117 773v224h48c22 0 43 -3 54 -25
c14 -27 14 -65 -11 -83c-15 -15 -41 -13 -61 -13v-103h-30zM1119 602v140h29v-150c0 -19 -1 -43 19 -54c33 -10 41 24 41 50v71v83h31v-102c0 -39 10 -107 -38 -121c-26 -13 -65 -1 -76 29c-6 15 -6 32 -6 54zM1129 -207c0 -12 -4 -49 8 -54c27 -14 25 23 25 39
c0 12 3 43 -8 47c-17 8 -25 -4 -25 -17v-15zM1147 900c11 0 21 -1 33 2c16 4 19 16 19 31s0 34 -19 39c-12 4 -22 1 -33 1v-73zM1151 161c0 28 -3 56 1 81c4 24 16 48 41 59c21 5 45 5 62 -6c33 -20 31 -63 31 -93h-46c0 49 -2 53 -14 59c-22 3 -26 -17 -26 -38v-102
c0 -15 -6 -53 16 -59c33 -13 28 48 28 63h-28v42h72v-147h-36l-2 9c-18 -16 -50 -16 -69 -3c-20 9 -27 36 -29 57c-4 27 -1 51 -1 78zM1158 -132v113h43v-11h-26v-39h21v-10h-21v-53h-17zM1193 -275v113h18l21 -90l18 90h16l1 -113h-11v83l-18 -83h-13l-18 83v-83h-14z
M1211 -72c0 27 0 56 34 56c32 -5 29 -38 29 -60c0 -25 0 -57 -31 -57c-35 0 -32 35 -32 61zM1227 -69c0 -10 -7 -46 11 -53c20 -5 20 24 20 42c0 11 5 44 -8 49c-12 8 -23 -5 -23 -20v-18zM1250 773v224h85v-24h-55v-73h46v-24h-46v-82h57v-21h-87zM1263 579l31 9
c2 -15 2 -31 11 -40c9 -10 26 -13 34 -3c14 10 11 32 3 44c-7 8 -12 19 -25 25c-13 12 -34 26 -44 43c-17 28 -10 73 26 85c16 3 38 0 54 -9c15 -11 19 -30 19 -48l-24 -9c-1 17 -6 37 -24 40c-15 5 -26 -4 -28 -16c-9 -25 17 -41 35 -57c19 -17 41 -31 44 -60
c8 -34 -15 -67 -51 -67c-37 0 -58 28 -61 63zM1287 -275v113h17l20 -90l19 90h15l2 -113h-10l-2 83l-18 -83h-13l-15 83l-3 -83h-12zM1291 -132v113c13 0 30 3 42 -3c17 -9 21 -47 0 -54l17 -56h-17l-16 53h-12v-53h-14zM1298 -15l75 352h44l-80 -352h-39zM1302 346v118
c15 0 42 4 52 -13c4 -13 4 -35 -4 -43c-11 -9 -20 -7 -33 -7v-55h-15zM1305 -69c15 0 28 3 28 21c0 17 -12 18 -28 18v-39zM1317 411c5 0 14 0 16 2c9 5 9 13 9 23c0 19 -9 19 -25 19v-44zM1360 773v224c30 0 64 3 89 -9c32 -19 35 -89 0 -103l27 -112h-27l-32 104h-23v-104
h-34zM1372 346v118h12v-105h30v-13h-42zM1379 -275v113h45v-11h-28v-34h23v-12h-23v-46h28v-10h-45zM1386 -30v11h60v-11h-22v-102h-17v102h-21zM1394 900c9 0 20 0 31 2c15 7 20 21 18 38c0 11 -3 26 -18 30c-11 6 -22 3 -31 3v-73zM1403 519v223h86v-26h-57v-73h45v-22
h-45v-83h57v-19h-86zM1425 346v118h44v-9h-29v-42h24v-12h-24v-42h29v-13h-44zM1427 118l45 1c0 -16 0 -34 9 -49c1 -8 7 -13 17 -10c10 2 10 12 10 24c0 31 -27 52 -44 69c-8 13 -19 21 -23 29c-14 18 -16 44 -14 66c3 42 51 66 88 49c34 -15 38 -56 38 -89l-45 -3
c0 18 1 51 -17 54c-19 2 -21 -24 -17 -36c5 -15 14 -23 24 -33l23 -24c24 -27 38 -57 34 -94c-2 -25 -20 -50 -49 -57c-27 -4 -56 7 -69 34c-10 21 -10 43 -10 69zM1435 -275v113c17 0 32 5 44 -2c16 -11 18 -46 -2 -53l17 -58h-15l-13 56h-13v-56h-18zM1453 -207
c14 0 24 0 24 15c0 17 -10 19 -24 19v-34zM1453 -132v113h14v-50h32v50h16v-113h-16v53h-32v-53h-14zM1476 346l25 118h18l22 -118h-16l-6 32h-25l-3 -32h-15zM1495 387h24l-11 56zM1495 835l31 9c1 -18 4 -32 12 -40c10 -11 27 -12 37 -3c12 8 9 30 0 43
c-6 6 -12 15 -25 25c-12 12 -31 26 -43 41c-18 31 -12 77 27 84c14 6 38 4 53 -6c14 -9 18 -30 20 -47l-25 -8c-4 15 -7 37 -24 43c-14 0 -28 -7 -31 -20c-3 -26 20 -43 38 -56c17 -19 39 -36 45 -61c7 -35 -15 -68 -52 -68c-39 0 -61 28 -63 64zM1508 -196
c0 20 11 39 36 34c21 -1 23 -20 23 -37h-16c0 4 4 13 -1 20c-2 10 -16 10 -23 2c-8 -9 -3 -30 -3 -40c0 -9 -5 -31 3 -41c7 -8 21 -7 23 3c5 7 1 15 1 22h16c0 -19 -2 -43 -29 -43c-41 0 -30 52 -30 80zM1531 -132v113h44v-11h-27v-39h22v-10h-22v-45h27v-8h-44zM1548 379
l17 6c0 -9 0 -23 7 -26c12 -1 19 3 19 14c0 14 -19 26 -26 36c-15 12 -24 35 -7 49c7 6 20 8 31 4c11 -5 16 -18 16 -29l-14 -2c-9 31 -24 26 -26 13c-4 -13 5 -24 13 -31c11 -9 26 -15 27 -28c6 -20 -5 -39 -27 -39c-17 0 -28 16 -30 33zM1572 608c0 32 -3 67 3 96
c9 26 30 38 55 38c28 0 51 -8 58 -32c13 -28 5 -68 5 -96c0 -20 4 -37 -2 -54c-4 -29 -25 -44 -56 -44s-57 16 -60 46c-3 15 -3 30 -3 46zM1579 18v281h49v-281h-49zM1584 -275v113h16v-113h-16zM1605 588c0 -18 -1 -39 13 -46c10 -4 21 -4 28 0c12 6 17 18 18 28
c2 7 0 18 0 24v81c0 13 2 26 -8 35c-10 6 -21 11 -28 6c-13 0 -18 -6 -23 -18c-4 -22 0 -49 0 -72v-38zM1611 -275l24 113h17l26 -113h-15l-5 30h-24l-6 -30h-17zM1618 346v118h46v-9h-29v-42h23v-12h-23v-42h31v-13h-48zM1624 -132v113h43v-11h-32v-39h23v-10h-23v-53h-11z
M1635 -237h21l-10 55zM1651 18v281h49v-233h58v-48h-107zM1664 841c0 -15 -1 -36 17 -45c6 -3 19 -3 25 0c14 8 16 20 16 30v102c0 13 0 28 -10 38c-7 10 -15 10 -25 7c-11 -1 -17 -7 -21 -22c-8 -18 -2 -48 -2 -70v-40zM1678 -105c-2 7 0 18 0 26v60h12v-50
c0 -14 -5 -55 15 -55c22 0 17 41 17 55v50h14v-51c0 -20 3 -54 -21 -62c-21 -6 -34 5 -37 27zM1688 -275v113h15v-103h30v-10h-45zM1703 464h17l16 -85l18 85h14l-24 -118h-16zM1727 519v223h21l63 -150v150h28v-223h-22l-66 151v-151h-24zM1754 -132v113h17v-105h26v-8h-43
zM1772 -162h14l17 -83l18 83h14l-26 -113h-12zM1780 346v118h17v-118h-17zM1782 18v281h49v-281h-49zM1786 773v224h18l63 -150v150h28v-224h-21l-63 150v-150h-25zM1809 -132v113h16v-105h28v-8h-44zM1812 379l15 6c0 -9 4 -23 12 -26c8 -1 14 3 14 14c3 14 -14 26 -26 36
c-13 12 -24 35 -6 49c10 6 23 8 31 4c10 -5 14 -18 15 -29l-14 -2c-3 31 -18 26 -24 13c-6 -14 8 -23 15 -31c8 -6 22 -15 23 -28c6 -20 -5 -39 -24 -39c-22 0 -29 16 -31 33zM1837 18l51 281h44l48 -281h-47l-9 67h-30l-10 -67h-47zM1847 -275v113h46v-11h-30v-34h25v-12
h-25v-46h30v-10h-46zM1873 519v223h30v-204h54v-19h-84zM1882 346v118h17v-118h-17zM1893 -132l21 113h18l25 -113h-17l-4 28h-22l-8 -28h-13zM1901 125h15l-8 57zM1905 -275v113c14 0 31 5 44 -2c16 -11 16 -47 -4 -54l18 -57h-16l-15 56h-11v-56h-16zM1909 455v9h54v-9
h-19v-109h-13v109h-22zM1914 -93h19l-10 52zM1917 773l48 224h31l47 -224h-29l-11 53h-46l-12 -53h-28zM1921 -207c15 0 24 0 24 15c0 17 -9 19 -24 19v-34zM1962 850h37l-17 101zM1968 -132v113h10l32 -75v75h15v-113h-11l-30 77v-77h-16zM1968 742h28l33 -109l34 109h31
c-10 -32 -21 -63 -31 -96l-15 -44c-5 -10 -2 -22 -2 -30v-53h-31v44c0 10 1 25 0 34c-5 17 -8 29 -16 43zM1975 -242l15 3c0 -6 2 -19 9 -22c11 -5 19 3 19 12c0 12 -19 27 -28 33c-14 14 -22 39 -5 49c11 8 23 10 31 4c11 -4 13 -14 13 -25l-11 -7c-2 9 -2 19 -9 22
c-8 4 -13 0 -17 -6c-6 -13 7 -20 16 -28c8 -10 21 -17 21 -33c7 -18 -2 -36 -22 -36c-21 0 -31 15 -32 34zM1986 18v281h34l48 -134v134h45v-281h-36l-47 138v-138h-44zM2043 -132v113c13 0 35 3 51 -8c11 -9 6 -33 6 -49c0 -17 5 -41 -12 -49c-11 -10 -33 -7 -45 -7z
M2046 -275v113h14v-113h-14zM2059 -124c12 0 21 0 26 19v58c-1 17 -12 17 -26 17v-94zM2066 773v224h32v-203h56v-21h-88zM2077 -216c0 30 0 59 36 54c32 -1 28 -33 28 -55c0 -25 2 -59 -31 -59c-36 0 -33 37 -33 60zM2097 -207c0 -12 -9 -49 4 -54c26 -14 25 23 25 39
c0 12 4 43 -7 47c-18 8 -22 -4 -22 -17v-15zM2110 519v30h31v-30h-31zM2110 742h31l-11 -177h-10zM2137 133v49h60v-49h-60zM2158 -275v113h9l35 -76v76h12v-113h-11l-36 79v-79h-9zM2221 18v281h82c21 0 50 -21 50 -73c0 -26 -8 -60 -33 -77l31 -131h-47l-24 122h-13v-122
h-46zM2267 180h25c16 9 18 79 -10 79h-15v-79zM2359 18l52 281h44l48 -281h-47l-9 67h-30l-10 -67h-48zM2424 125h15l-8 57zM2509 18v281h48v-281h-48zM2581 18v281h48v-233h59v-48h-107z" />
    <glyph glyph-name="uni0030" unicode="9" horiz-adv-x="3093" 
d="M1691 771c-33 0 -52 16 -57 48c-3 14 -3 28 -3 41c0 33 -3 70 4 98c6 29 29 39 53 40c24 0 52 -8 60 -32c11 -28 6 -67 6 -98c0 -18 0 -37 -3 -51c-7 -33 -29 -46 -60 -46zM575 20l4 281h45l34 -176l32 176h48l1 -281h-39l-5 117l-20 -117h-33l-23 114l-2 -114h-42z
M776 20v281h36l47 -134v134h45v-281h-35l-49 138v-138h-44zM935 20v51h48v-51h-48zM1000 119l45 2c0 -16 0 -34 10 -50c4 -7 9 -13 18 -9c8 2 12 11 12 23c0 30 -29 52 -44 70c-9 12 -22 19 -26 29c-11 18 -16 42 -11 66c1 40 48 67 87 49c33 -16 37 -57 37 -90l-43 -2
c-4 18 0 51 -18 54c-22 1 -24 -26 -20 -36c6 -16 17 -23 27 -33l22 -25c26 -26 37 -57 33 -94c-1 -24 -18 -49 -49 -56c-27 -4 -56 7 -68 33c-8 21 -12 44 -12 69zM1041 -196c0 20 11 39 37 34c23 -1 23 -20 23 -37h-14c0 4 1 13 -1 20c-4 10 -19 10 -25 2
c-6 -9 -4 -30 -4 -40c0 -9 -2 -31 6 -41c4 -8 19 -7 23 3c2 7 1 15 1 22h14c0 -19 -2 -43 -27 -43c-41 0 -33 52 -33 80zM1115 -216c0 30 0 59 33 54c33 -1 31 -33 31 -55c0 -25 1 -59 -32 -59c-38 0 -32 37 -32 60zM1117 773v224h48c22 0 43 -3 54 -25
c14 -27 14 -65 -11 -83c-15 -15 -41 -13 -61 -13v-103h-30zM1119 602v140h29v-150c0 -19 -1 -43 19 -54c33 -10 41 24 41 50v71v83h31v-102c0 -39 10 -107 -38 -121c-26 -13 -65 -1 -76 29c-6 15 -6 32 -6 54zM1129 -207c0 -12 -4 -49 8 -54c27 -14 25 23 25 39
c0 12 3 43 -8 47c-17 8 -25 -4 -25 -17v-15zM1147 900c11 0 21 -1 33 2c16 4 19 16 19 31s0 34 -19 39c-12 4 -22 1 -33 1v-73zM1151 161c0 28 -3 56 1 81c4 24 16 48 41 59c21 5 45 5 62 -6c33 -20 31 -63 31 -93h-46c0 49 -2 53 -14 59c-22 3 -26 -17 -26 -38v-102
c0 -15 -6 -53 16 -59c33 -13 28 48 28 63h-28v42h72v-147h-36l-2 9c-18 -16 -50 -16 -69 -3c-20 9 -27 36 -29 57c-4 27 -1 51 -1 78zM1158 -132v113h43v-11h-26v-39h21v-10h-21v-53h-17zM1193 -275v113h18l21 -90l18 90h16l1 -113h-11v83l-18 -83h-13l-18 83v-83h-14z
M1211 -72c0 27 0 56 34 56c32 -5 29 -38 29 -60c0 -25 0 -57 -31 -57c-35 0 -32 35 -32 61zM1227 -69c0 -10 -7 -46 11 -53c20 -5 20 24 20 42c0 11 5 44 -8 49c-12 8 -23 -5 -23 -20v-18zM1250 773v224h85v-24h-55v-73h46v-24h-46v-82h57v-21h-87zM1263 579l31 9
c2 -15 2 -31 11 -40c9 -10 26 -13 34 -3c14 10 11 32 3 44c-7 8 -12 19 -25 25c-13 12 -34 26 -44 43c-17 28 -10 73 26 85c16 3 38 0 54 -9c15 -11 19 -30 19 -48l-24 -9c-1 17 -6 37 -24 40c-15 5 -26 -4 -28 -16c-9 -25 17 -41 35 -57c19 -17 41 -31 44 -60
c8 -34 -15 -67 -51 -67c-37 0 -58 28 -61 63zM1287 -275v113h17l20 -90l19 90h15l2 -113h-10l-2 83l-18 -83h-13l-15 83l-3 -83h-12zM1291 -132v113c13 0 30 3 42 -3c17 -9 21 -47 0 -54l17 -56h-17l-16 53h-12v-53h-14zM1298 -15l75 352h44l-80 -352h-39zM1302 346v118
c15 0 42 4 52 -13c4 -13 4 -35 -4 -43c-11 -9 -20 -7 -33 -7v-55h-15zM1305 -69c15 0 28 3 28 21c0 17 -12 18 -28 18v-39zM1317 411c5 0 14 0 16 2c9 5 9 13 9 23c0 19 -9 19 -25 19v-44zM1360 773v224c30 0 64 3 89 -9c32 -19 35 -89 0 -103l27 -112h-27l-32 104h-23v-104
h-34zM1372 346v118h12v-105h30v-13h-42zM1379 -275v113h45v-11h-28v-34h23v-12h-23v-46h28v-10h-45zM1386 -30v11h60v-11h-22v-102h-17v102h-21zM1394 900c9 0 20 0 31 2c15 7 20 21 18 38c0 11 -3 26 -18 30c-11 6 -22 3 -31 3v-73zM1403 519v223h86v-26h-57v-73h45v-22
h-45v-83h57v-19h-86zM1425 346v118h44v-9h-29v-42h24v-12h-24v-42h29v-13h-44zM1427 118l45 1c0 -16 0 -34 9 -49c1 -8 7 -13 17 -10c10 2 10 12 10 24c0 31 -27 52 -44 69c-8 13 -19 21 -23 29c-14 18 -16 44 -14 66c3 42 51 66 88 49c34 -15 38 -56 38 -89l-45 -3
c0 18 1 51 -17 54c-19 2 -21 -24 -17 -36c5 -15 14 -23 24 -33l23 -24c24 -27 38 -57 34 -94c-2 -25 -20 -50 -49 -57c-27 -4 -56 7 -69 34c-10 21 -10 43 -10 69zM1435 -275v113c17 0 32 5 44 -2c16 -11 18 -46 -2 -53l17 -58h-15l-13 56h-13v-56h-18zM1453 -207
c14 0 24 0 24 15c0 17 -10 19 -24 19v-34zM1453 -132v113h14v-50h32v50h16v-113h-16v53h-32v-53h-14zM1476 346l25 118h18l22 -118h-16l-6 32h-25l-3 -32h-15zM1495 387h24l-11 56zM1495 835l31 9c1 -18 4 -32 12 -40c10 -11 27 -12 37 -3c12 8 9 30 0 43
c-6 6 -12 15 -25 25c-12 12 -31 26 -43 41c-18 31 -12 77 27 84c14 6 38 4 53 -6c14 -9 18 -30 20 -47l-25 -8c-4 15 -7 37 -24 43c-14 0 -28 -7 -31 -20c-3 -26 20 -43 38 -56c17 -19 39 -36 45 -61c7 -35 -15 -68 -52 -68c-39 0 -61 28 -63 64zM1508 -196
c0 20 11 39 36 34c21 -1 23 -20 23 -37h-16c0 4 4 13 -1 20c-2 10 -16 10 -23 2c-8 -9 -3 -30 -3 -40c0 -9 -5 -31 3 -41c7 -8 21 -7 23 3c5 7 1 15 1 22h16c0 -19 -2 -43 -29 -43c-41 0 -30 52 -30 80zM1531 -132v113h44v-11h-27v-39h22v-10h-22v-45h27v-8h-44zM1548 379
l17 6c0 -9 0 -23 7 -26c12 -1 19 3 19 14c0 14 -19 26 -26 36c-15 12 -24 35 -7 49c7 6 20 8 31 4c11 -5 16 -18 16 -29l-14 -2c-9 31 -24 26 -26 13c-4 -13 5 -24 13 -31c11 -9 26 -15 27 -28c6 -20 -5 -39 -27 -39c-17 0 -28 16 -30 33zM1572 608c0 32 -3 67 3 96
c9 26 30 38 55 38c28 0 51 -8 58 -32c13 -28 5 -68 5 -96c0 -20 4 -37 -2 -54c-4 -29 -25 -44 -56 -44s-57 16 -60 46c-3 15 -3 30 -3 46zM1579 18v281h49v-281h-49zM1584 -275v113h16v-113h-16zM1605 588c0 -18 -1 -39 13 -46c10 -4 21 -4 28 0c12 6 17 18 18 28
c2 7 0 18 0 24v81c0 13 2 26 -8 35c-10 6 -21 11 -28 6c-13 0 -18 -6 -23 -18c-4 -22 0 -49 0 -72v-38zM1611 -275l24 113h17l26 -113h-15l-5 30h-24l-6 -30h-17zM1618 346v118h46v-9h-29v-42h23v-12h-23v-42h31v-13h-48zM1624 -132v113h43v-11h-32v-39h23v-10h-23v-53h-11z
M1635 -237h21l-10 55zM1651 18v281h49v-233h58v-48h-107zM1664 841c0 -15 -1 -36 17 -45c6 -3 19 -3 25 0c14 8 16 20 16 30v102c0 13 0 28 -10 38c-7 10 -15 10 -25 7c-11 -1 -17 -7 -21 -22c-8 -18 -2 -48 -2 -70v-40zM1678 -105c-2 7 0 18 0 26v60h12v-50
c0 -14 -5 -55 15 -55c22 0 17 41 17 55v50h14v-51c0 -20 3 -54 -21 -62c-21 -6 -34 5 -37 27zM1688 -275v113h15v-103h30v-10h-45zM1703 464h17l16 -85l18 85h14l-24 -118h-16zM1727 519v223h21l63 -150v150h28v-223h-22l-66 151v-151h-24zM1754 -132v113h17v-105h26v-8h-43
zM1772 -162h14l17 -83l18 83h14l-26 -113h-12zM1780 346v118h17v-118h-17zM1782 18v281h49v-281h-49zM1786 773v224h18l63 -150v150h28v-224h-21l-63 150v-150h-25zM1809 -132v113h16v-105h28v-8h-44zM1812 379l15 6c0 -9 4 -23 12 -26c8 -1 14 3 14 14c3 14 -14 26 -26 36
c-13 12 -24 35 -6 49c10 6 23 8 31 4c10 -5 14 -18 15 -29l-14 -2c-3 31 -18 26 -24 13c-6 -14 8 -23 15 -31c8 -6 22 -15 23 -28c6 -20 -5 -39 -24 -39c-22 0 -29 16 -31 33zM1837 18l51 281h44l48 -281h-47l-9 67h-30l-10 -67h-47zM1847 -275v113h46v-11h-30v-34h25v-12
h-25v-46h30v-10h-46zM1873 519v223h30v-204h54v-19h-84zM1882 346v118h17v-118h-17zM1893 -132l21 113h18l25 -113h-17l-4 28h-22l-8 -28h-13zM1901 125h15l-8 57zM1905 -275v113c14 0 31 5 44 -2c16 -11 16 -47 -4 -54l18 -57h-16l-15 56h-11v-56h-16zM1909 455v9h54v-9
h-19v-109h-13v109h-22zM1914 -93h19l-10 52zM1917 773l48 224h31l47 -224h-29l-11 53h-46l-12 -53h-28zM1921 -207c15 0 24 0 24 15c0 17 -9 19 -24 19v-34zM1962 850h37l-17 101zM1968 -132v113h10l32 -75v75h15v-113h-11l-30 77v-77h-16zM1968 742h28l33 -109l34 109h31
c-10 -32 -21 -63 -31 -96l-15 -44c-5 -10 -2 -22 -2 -30v-53h-31v44c0 10 1 25 0 34c-5 17 -8 29 -16 43zM1975 -242l15 3c0 -6 2 -19 9 -22c11 -5 19 3 19 12c0 12 -19 27 -28 33c-14 14 -22 39 -5 49c11 8 23 10 31 4c11 -4 13 -14 13 -25l-11 -7c-2 9 -2 19 -9 22
c-8 4 -13 0 -17 -6c-6 -13 7 -20 16 -28c8 -10 21 -17 21 -33c7 -18 -2 -36 -22 -36c-21 0 -31 15 -32 34zM1986 18v281h34l48 -134v134h45v-281h-36l-47 138v-138h-44zM2043 -132v113c13 0 35 3 51 -8c11 -9 6 -33 6 -49c0 -17 5 -41 -12 -49c-11 -10 -33 -7 -45 -7z
M2046 -275v113h14v-113h-14zM2059 -124c12 0 21 0 26 19v58c-1 17 -12 17 -26 17v-94zM2066 773v224h32v-203h56v-21h-88zM2077 -216c0 30 0 59 36 54c32 -1 28 -33 28 -55c0 -25 2 -59 -31 -59c-36 0 -33 37 -33 60zM2097 -207c0 -12 -9 -49 4 -54c26 -14 25 23 25 39
c0 12 4 43 -7 47c-18 8 -22 -4 -22 -17v-15zM2110 519v30h31v-30h-31zM2110 742h31l-11 -177h-10zM2137 133v49h60v-49h-60zM2158 -275v113h9l35 -76v76h12v-113h-11l-36 79v-79h-9zM2221 18v281h82c21 0 50 -21 50 -73c0 -26 -8 -60 -33 -77l31 -131h-47l-24 122h-13v-122
h-46zM2267 180h25c16 9 18 79 -10 79h-15v-79zM2359 18l52 281h44l48 -281h-47l-9 67h-30l-10 -67h-48zM2424 125h15l-8 57zM2509 18v281h48v-281h-48zM2581 18v281h48v-233h59v-48h-107z" />
    <glyph glyph-name="uni0030" unicode="8" horiz-adv-x="3093" 
d="M1691 771c-33 0 -52 16 -57 48c-3 14 -3 28 -3 41c0 33 -3 70 4 98c6 29 29 39 53 40c24 0 52 -8 60 -32c11 -28 6 -67 6 -98c0 -18 0 -37 -3 -51c-7 -33 -29 -46 -60 -46zM575 20l4 281h45l34 -176l32 176h48l1 -281h-39l-5 117l-20 -117h-33l-23 114l-2 -114h-42z
M776 20v281h36l47 -134v134h45v-281h-35l-49 138v-138h-44zM935 20v51h48v-51h-48zM1000 119l45 2c0 -16 0 -34 10 -50c4 -7 9 -13 18 -9c8 2 12 11 12 23c0 30 -29 52 -44 70c-9 12 -22 19 -26 29c-11 18 -16 42 -11 66c1 40 48 67 87 49c33 -16 37 -57 37 -90l-43 -2
c-4 18 0 51 -18 54c-22 1 -24 -26 -20 -36c6 -16 17 -23 27 -33l22 -25c26 -26 37 -57 33 -94c-1 -24 -18 -49 -49 -56c-27 -4 -56 7 -68 33c-8 21 -12 44 -12 69zM1041 -196c0 20 11 39 37 34c23 -1 23 -20 23 -37h-14c0 4 1 13 -1 20c-4 10 -19 10 -25 2
c-6 -9 -4 -30 -4 -40c0 -9 -2 -31 6 -41c4 -8 19 -7 23 3c2 7 1 15 1 22h14c0 -19 -2 -43 -27 -43c-41 0 -33 52 -33 80zM1115 -216c0 30 0 59 33 54c33 -1 31 -33 31 -55c0 -25 1 -59 -32 -59c-38 0 -32 37 -32 60zM1117 773v224h48c22 0 43 -3 54 -25
c14 -27 14 -65 -11 -83c-15 -15 -41 -13 -61 -13v-103h-30zM1119 602v140h29v-150c0 -19 -1 -43 19 -54c33 -10 41 24 41 50v71v83h31v-102c0 -39 10 -107 -38 -121c-26 -13 -65 -1 -76 29c-6 15 -6 32 -6 54zM1129 -207c0 -12 -4 -49 8 -54c27 -14 25 23 25 39
c0 12 3 43 -8 47c-17 8 -25 -4 -25 -17v-15zM1147 900c11 0 21 -1 33 2c16 4 19 16 19 31s0 34 -19 39c-12 4 -22 1 -33 1v-73zM1151 161c0 28 -3 56 1 81c4 24 16 48 41 59c21 5 45 5 62 -6c33 -20 31 -63 31 -93h-46c0 49 -2 53 -14 59c-22 3 -26 -17 -26 -38v-102
c0 -15 -6 -53 16 -59c33 -13 28 48 28 63h-28v42h72v-147h-36l-2 9c-18 -16 -50 -16 -69 -3c-20 9 -27 36 -29 57c-4 27 -1 51 -1 78zM1158 -132v113h43v-11h-26v-39h21v-10h-21v-53h-17zM1193 -275v113h18l21 -90l18 90h16l1 -113h-11v83l-18 -83h-13l-18 83v-83h-14z
M1211 -72c0 27 0 56 34 56c32 -5 29 -38 29 -60c0 -25 0 -57 -31 -57c-35 0 -32 35 -32 61zM1227 -69c0 -10 -7 -46 11 -53c20 -5 20 24 20 42c0 11 5 44 -8 49c-12 8 -23 -5 -23 -20v-18zM1250 773v224h85v-24h-55v-73h46v-24h-46v-82h57v-21h-87zM1263 579l31 9
c2 -15 2 -31 11 -40c9 -10 26 -13 34 -3c14 10 11 32 3 44c-7 8 -12 19 -25 25c-13 12 -34 26 -44 43c-17 28 -10 73 26 85c16 3 38 0 54 -9c15 -11 19 -30 19 -48l-24 -9c-1 17 -6 37 -24 40c-15 5 -26 -4 -28 -16c-9 -25 17 -41 35 -57c19 -17 41 -31 44 -60
c8 -34 -15 -67 -51 -67c-37 0 -58 28 -61 63zM1287 -275v113h17l20 -90l19 90h15l2 -113h-10l-2 83l-18 -83h-13l-15 83l-3 -83h-12zM1291 -132v113c13 0 30 3 42 -3c17 -9 21 -47 0 -54l17 -56h-17l-16 53h-12v-53h-14zM1298 -15l75 352h44l-80 -352h-39zM1302 346v118
c15 0 42 4 52 -13c4 -13 4 -35 -4 -43c-11 -9 -20 -7 -33 -7v-55h-15zM1305 -69c15 0 28 3 28 21c0 17 -12 18 -28 18v-39zM1317 411c5 0 14 0 16 2c9 5 9 13 9 23c0 19 -9 19 -25 19v-44zM1360 773v224c30 0 64 3 89 -9c32 -19 35 -89 0 -103l27 -112h-27l-32 104h-23v-104
h-34zM1372 346v118h12v-105h30v-13h-42zM1379 -275v113h45v-11h-28v-34h23v-12h-23v-46h28v-10h-45zM1386 -30v11h60v-11h-22v-102h-17v102h-21zM1394 900c9 0 20 0 31 2c15 7 20 21 18 38c0 11 -3 26 -18 30c-11 6 -22 3 -31 3v-73zM1403 519v223h86v-26h-57v-73h45v-22
h-45v-83h57v-19h-86zM1425 346v118h44v-9h-29v-42h24v-12h-24v-42h29v-13h-44zM1427 118l45 1c0 -16 0 -34 9 -49c1 -8 7 -13 17 -10c10 2 10 12 10 24c0 31 -27 52 -44 69c-8 13 -19 21 -23 29c-14 18 -16 44 -14 66c3 42 51 66 88 49c34 -15 38 -56 38 -89l-45 -3
c0 18 1 51 -17 54c-19 2 -21 -24 -17 -36c5 -15 14 -23 24 -33l23 -24c24 -27 38 -57 34 -94c-2 -25 -20 -50 -49 -57c-27 -4 -56 7 -69 34c-10 21 -10 43 -10 69zM1435 -275v113c17 0 32 5 44 -2c16 -11 18 -46 -2 -53l17 -58h-15l-13 56h-13v-56h-18zM1453 -207
c14 0 24 0 24 15c0 17 -10 19 -24 19v-34zM1453 -132v113h14v-50h32v50h16v-113h-16v53h-32v-53h-14zM1476 346l25 118h18l22 -118h-16l-6 32h-25l-3 -32h-15zM1495 387h24l-11 56zM1495 835l31 9c1 -18 4 -32 12 -40c10 -11 27 -12 37 -3c12 8 9 30 0 43
c-6 6 -12 15 -25 25c-12 12 -31 26 -43 41c-18 31 -12 77 27 84c14 6 38 4 53 -6c14 -9 18 -30 20 -47l-25 -8c-4 15 -7 37 -24 43c-14 0 -28 -7 -31 -20c-3 -26 20 -43 38 -56c17 -19 39 -36 45 -61c7 -35 -15 -68 -52 -68c-39 0 -61 28 -63 64zM1508 -196
c0 20 11 39 36 34c21 -1 23 -20 23 -37h-16c0 4 4 13 -1 20c-2 10 -16 10 -23 2c-8 -9 -3 -30 -3 -40c0 -9 -5 -31 3 -41c7 -8 21 -7 23 3c5 7 1 15 1 22h16c0 -19 -2 -43 -29 -43c-41 0 -30 52 -30 80zM1531 -132v113h44v-11h-27v-39h22v-10h-22v-45h27v-8h-44zM1548 379
l17 6c0 -9 0 -23 7 -26c12 -1 19 3 19 14c0 14 -19 26 -26 36c-15 12 -24 35 -7 49c7 6 20 8 31 4c11 -5 16 -18 16 -29l-14 -2c-9 31 -24 26 -26 13c-4 -13 5 -24 13 -31c11 -9 26 -15 27 -28c6 -20 -5 -39 -27 -39c-17 0 -28 16 -30 33zM1572 608c0 32 -3 67 3 96
c9 26 30 38 55 38c28 0 51 -8 58 -32c13 -28 5 -68 5 -96c0 -20 4 -37 -2 -54c-4 -29 -25 -44 -56 -44s-57 16 -60 46c-3 15 -3 30 -3 46zM1579 18v281h49v-281h-49zM1584 -275v113h16v-113h-16zM1605 588c0 -18 -1 -39 13 -46c10 -4 21 -4 28 0c12 6 17 18 18 28
c2 7 0 18 0 24v81c0 13 2 26 -8 35c-10 6 -21 11 -28 6c-13 0 -18 -6 -23 -18c-4 -22 0 -49 0 -72v-38zM1611 -275l24 113h17l26 -113h-15l-5 30h-24l-6 -30h-17zM1618 346v118h46v-9h-29v-42h23v-12h-23v-42h31v-13h-48zM1624 -132v113h43v-11h-32v-39h23v-10h-23v-53h-11z
M1635 -237h21l-10 55zM1651 18v281h49v-233h58v-48h-107zM1664 841c0 -15 -1 -36 17 -45c6 -3 19 -3 25 0c14 8 16 20 16 30v102c0 13 0 28 -10 38c-7 10 -15 10 -25 7c-11 -1 -17 -7 -21 -22c-8 -18 -2 -48 -2 -70v-40zM1678 -105c-2 7 0 18 0 26v60h12v-50
c0 -14 -5 -55 15 -55c22 0 17 41 17 55v50h14v-51c0 -20 3 -54 -21 -62c-21 -6 -34 5 -37 27zM1688 -275v113h15v-103h30v-10h-45zM1703 464h17l16 -85l18 85h14l-24 -118h-16zM1727 519v223h21l63 -150v150h28v-223h-22l-66 151v-151h-24zM1754 -132v113h17v-105h26v-8h-43
zM1772 -162h14l17 -83l18 83h14l-26 -113h-12zM1780 346v118h17v-118h-17zM1782 18v281h49v-281h-49zM1786 773v224h18l63 -150v150h28v-224h-21l-63 150v-150h-25zM1809 -132v113h16v-105h28v-8h-44zM1812 379l15 6c0 -9 4 -23 12 -26c8 -1 14 3 14 14c3 14 -14 26 -26 36
c-13 12 -24 35 -6 49c10 6 23 8 31 4c10 -5 14 -18 15 -29l-14 -2c-3 31 -18 26 -24 13c-6 -14 8 -23 15 -31c8 -6 22 -15 23 -28c6 -20 -5 -39 -24 -39c-22 0 -29 16 -31 33zM1837 18l51 281h44l48 -281h-47l-9 67h-30l-10 -67h-47zM1847 -275v113h46v-11h-30v-34h25v-12
h-25v-46h30v-10h-46zM1873 519v223h30v-204h54v-19h-84zM1882 346v118h17v-118h-17zM1893 -132l21 113h18l25 -113h-17l-4 28h-22l-8 -28h-13zM1901 125h15l-8 57zM1905 -275v113c14 0 31 5 44 -2c16 -11 16 -47 -4 -54l18 -57h-16l-15 56h-11v-56h-16zM1909 455v9h54v-9
h-19v-109h-13v109h-22zM1914 -93h19l-10 52zM1917 773l48 224h31l47 -224h-29l-11 53h-46l-12 -53h-28zM1921 -207c15 0 24 0 24 15c0 17 -9 19 -24 19v-34zM1962 850h37l-17 101zM1968 -132v113h10l32 -75v75h15v-113h-11l-30 77v-77h-16zM1968 742h28l33 -109l34 109h31
c-10 -32 -21 -63 -31 -96l-15 -44c-5 -10 -2 -22 -2 -30v-53h-31v44c0 10 1 25 0 34c-5 17 -8 29 -16 43zM1975 -242l15 3c0 -6 2 -19 9 -22c11 -5 19 3 19 12c0 12 -19 27 -28 33c-14 14 -22 39 -5 49c11 8 23 10 31 4c11 -4 13 -14 13 -25l-11 -7c-2 9 -2 19 -9 22
c-8 4 -13 0 -17 -6c-6 -13 7 -20 16 -28c8 -10 21 -17 21 -33c7 -18 -2 -36 -22 -36c-21 0 -31 15 -32 34zM1986 18v281h34l48 -134v134h45v-281h-36l-47 138v-138h-44zM2043 -132v113c13 0 35 3 51 -8c11 -9 6 -33 6 -49c0 -17 5 -41 -12 -49c-11 -10 -33 -7 -45 -7z
M2046 -275v113h14v-113h-14zM2059 -124c12 0 21 0 26 19v58c-1 17 -12 17 -26 17v-94zM2066 773v224h32v-203h56v-21h-88zM2077 -216c0 30 0 59 36 54c32 -1 28 -33 28 -55c0 -25 2 -59 -31 -59c-36 0 -33 37 -33 60zM2097 -207c0 -12 -9 -49 4 -54c26 -14 25 23 25 39
c0 12 4 43 -7 47c-18 8 -22 -4 -22 -17v-15zM2110 519v30h31v-30h-31zM2110 742h31l-11 -177h-10zM2137 133v49h60v-49h-60zM2158 -275v113h9l35 -76v76h12v-113h-11l-36 79v-79h-9zM2221 18v281h82c21 0 50 -21 50 -73c0 -26 -8 -60 -33 -77l31 -131h-47l-24 122h-13v-122
h-46zM2267 180h25c16 9 18 79 -10 79h-15v-79zM2359 18l52 281h44l48 -281h-47l-9 67h-30l-10 -67h-48zM2424 125h15l-8 57zM2509 18v281h48v-281h-48zM2581 18v281h48v-233h59v-48h-107z" />
    <glyph glyph-name="uni0030" unicode="7" horiz-adv-x="3093" 
d="M1691 771c-33 0 -52 16 -57 48c-3 14 -3 28 -3 41c0 33 -3 70 4 98c6 29 29 39 53 40c24 0 52 -8 60 -32c11 -28 6 -67 6 -98c0 -18 0 -37 -3 -51c-7 -33 -29 -46 -60 -46zM575 20l4 281h45l34 -176l32 176h48l1 -281h-39l-5 117l-20 -117h-33l-23 114l-2 -114h-42z
M776 20v281h36l47 -134v134h45v-281h-35l-49 138v-138h-44zM935 20v51h48v-51h-48zM1000 119l45 2c0 -16 0 -34 10 -50c4 -7 9 -13 18 -9c8 2 12 11 12 23c0 30 -29 52 -44 70c-9 12 -22 19 -26 29c-11 18 -16 42 -11 66c1 40 48 67 87 49c33 -16 37 -57 37 -90l-43 -2
c-4 18 0 51 -18 54c-22 1 -24 -26 -20 -36c6 -16 17 -23 27 -33l22 -25c26 -26 37 -57 33 -94c-1 -24 -18 -49 -49 -56c-27 -4 -56 7 -68 33c-8 21 -12 44 -12 69zM1041 -196c0 20 11 39 37 34c23 -1 23 -20 23 -37h-14c0 4 1 13 -1 20c-4 10 -19 10 -25 2
c-6 -9 -4 -30 -4 -40c0 -9 -2 -31 6 -41c4 -8 19 -7 23 3c2 7 1 15 1 22h14c0 -19 -2 -43 -27 -43c-41 0 -33 52 -33 80zM1115 -216c0 30 0 59 33 54c33 -1 31 -33 31 -55c0 -25 1 -59 -32 -59c-38 0 -32 37 -32 60zM1117 773v224h48c22 0 43 -3 54 -25
c14 -27 14 -65 -11 -83c-15 -15 -41 -13 -61 -13v-103h-30zM1119 602v140h29v-150c0 -19 -1 -43 19 -54c33 -10 41 24 41 50v71v83h31v-102c0 -39 10 -107 -38 -121c-26 -13 -65 -1 -76 29c-6 15 -6 32 -6 54zM1129 -207c0 -12 -4 -49 8 -54c27 -14 25 23 25 39
c0 12 3 43 -8 47c-17 8 -25 -4 -25 -17v-15zM1147 900c11 0 21 -1 33 2c16 4 19 16 19 31s0 34 -19 39c-12 4 -22 1 -33 1v-73zM1151 161c0 28 -3 56 1 81c4 24 16 48 41 59c21 5 45 5 62 -6c33 -20 31 -63 31 -93h-46c0 49 -2 53 -14 59c-22 3 -26 -17 -26 -38v-102
c0 -15 -6 -53 16 -59c33 -13 28 48 28 63h-28v42h72v-147h-36l-2 9c-18 -16 -50 -16 -69 -3c-20 9 -27 36 -29 57c-4 27 -1 51 -1 78zM1158 -132v113h43v-11h-26v-39h21v-10h-21v-53h-17zM1193 -275v113h18l21 -90l18 90h16l1 -113h-11v83l-18 -83h-13l-18 83v-83h-14z
M1211 -72c0 27 0 56 34 56c32 -5 29 -38 29 -60c0 -25 0 -57 -31 -57c-35 0 -32 35 -32 61zM1227 -69c0 -10 -7 -46 11 -53c20 -5 20 24 20 42c0 11 5 44 -8 49c-12 8 -23 -5 -23 -20v-18zM1250 773v224h85v-24h-55v-73h46v-24h-46v-82h57v-21h-87zM1263 579l31 9
c2 -15 2 -31 11 -40c9 -10 26 -13 34 -3c14 10 11 32 3 44c-7 8 -12 19 -25 25c-13 12 -34 26 -44 43c-17 28 -10 73 26 85c16 3 38 0 54 -9c15 -11 19 -30 19 -48l-24 -9c-1 17 -6 37 -24 40c-15 5 -26 -4 -28 -16c-9 -25 17 -41 35 -57c19 -17 41 -31 44 -60
c8 -34 -15 -67 -51 -67c-37 0 -58 28 -61 63zM1287 -275v113h17l20 -90l19 90h15l2 -113h-10l-2 83l-18 -83h-13l-15 83l-3 -83h-12zM1291 -132v113c13 0 30 3 42 -3c17 -9 21 -47 0 -54l17 -56h-17l-16 53h-12v-53h-14zM1298 -15l75 352h44l-80 -352h-39zM1302 346v118
c15 0 42 4 52 -13c4 -13 4 -35 -4 -43c-11 -9 -20 -7 -33 -7v-55h-15zM1305 -69c15 0 28 3 28 21c0 17 -12 18 -28 18v-39zM1317 411c5 0 14 0 16 2c9 5 9 13 9 23c0 19 -9 19 -25 19v-44zM1360 773v224c30 0 64 3 89 -9c32 -19 35 -89 0 -103l27 -112h-27l-32 104h-23v-104
h-34zM1372 346v118h12v-105h30v-13h-42zM1379 -275v113h45v-11h-28v-34h23v-12h-23v-46h28v-10h-45zM1386 -30v11h60v-11h-22v-102h-17v102h-21zM1394 900c9 0 20 0 31 2c15 7 20 21 18 38c0 11 -3 26 -18 30c-11 6 -22 3 -31 3v-73zM1403 519v223h86v-26h-57v-73h45v-22
h-45v-83h57v-19h-86zM1425 346v118h44v-9h-29v-42h24v-12h-24v-42h29v-13h-44zM1427 118l45 1c0 -16 0 -34 9 -49c1 -8 7 -13 17 -10c10 2 10 12 10 24c0 31 -27 52 -44 69c-8 13 -19 21 -23 29c-14 18 -16 44 -14 66c3 42 51 66 88 49c34 -15 38 -56 38 -89l-45 -3
c0 18 1 51 -17 54c-19 2 -21 -24 -17 -36c5 -15 14 -23 24 -33l23 -24c24 -27 38 -57 34 -94c-2 -25 -20 -50 -49 -57c-27 -4 -56 7 -69 34c-10 21 -10 43 -10 69zM1435 -275v113c17 0 32 5 44 -2c16 -11 18 -46 -2 -53l17 -58h-15l-13 56h-13v-56h-18zM1453 -207
c14 0 24 0 24 15c0 17 -10 19 -24 19v-34zM1453 -132v113h14v-50h32v50h16v-113h-16v53h-32v-53h-14zM1476 346l25 118h18l22 -118h-16l-6 32h-25l-3 -32h-15zM1495 387h24l-11 56zM1495 835l31 9c1 -18 4 -32 12 -40c10 -11 27 -12 37 -3c12 8 9 30 0 43
c-6 6 -12 15 -25 25c-12 12 -31 26 -43 41c-18 31 -12 77 27 84c14 6 38 4 53 -6c14 -9 18 -30 20 -47l-25 -8c-4 15 -7 37 -24 43c-14 0 -28 -7 -31 -20c-3 -26 20 -43 38 -56c17 -19 39 -36 45 -61c7 -35 -15 -68 -52 -68c-39 0 -61 28 -63 64zM1508 -196
c0 20 11 39 36 34c21 -1 23 -20 23 -37h-16c0 4 4 13 -1 20c-2 10 -16 10 -23 2c-8 -9 -3 -30 -3 -40c0 -9 -5 -31 3 -41c7 -8 21 -7 23 3c5 7 1 15 1 22h16c0 -19 -2 -43 -29 -43c-41 0 -30 52 -30 80zM1531 -132v113h44v-11h-27v-39h22v-10h-22v-45h27v-8h-44zM1548 379
l17 6c0 -9 0 -23 7 -26c12 -1 19 3 19 14c0 14 -19 26 -26 36c-15 12 -24 35 -7 49c7 6 20 8 31 4c11 -5 16 -18 16 -29l-14 -2c-9 31 -24 26 -26 13c-4 -13 5 -24 13 -31c11 -9 26 -15 27 -28c6 -20 -5 -39 -27 -39c-17 0 -28 16 -30 33zM1572 608c0 32 -3 67 3 96
c9 26 30 38 55 38c28 0 51 -8 58 -32c13 -28 5 -68 5 -96c0 -20 4 -37 -2 -54c-4 -29 -25 -44 -56 -44s-57 16 -60 46c-3 15 -3 30 -3 46zM1579 18v281h49v-281h-49zM1584 -275v113h16v-113h-16zM1605 588c0 -18 -1 -39 13 -46c10 -4 21 -4 28 0c12 6 17 18 18 28
c2 7 0 18 0 24v81c0 13 2 26 -8 35c-10 6 -21 11 -28 6c-13 0 -18 -6 -23 -18c-4 -22 0 -49 0 -72v-38zM1611 -275l24 113h17l26 -113h-15l-5 30h-24l-6 -30h-17zM1618 346v118h46v-9h-29v-42h23v-12h-23v-42h31v-13h-48zM1624 -132v113h43v-11h-32v-39h23v-10h-23v-53h-11z
M1635 -237h21l-10 55zM1651 18v281h49v-233h58v-48h-107zM1664 841c0 -15 -1 -36 17 -45c6 -3 19 -3 25 0c14 8 16 20 16 30v102c0 13 0 28 -10 38c-7 10 -15 10 -25 7c-11 -1 -17 -7 -21 -22c-8 -18 -2 -48 -2 -70v-40zM1678 -105c-2 7 0 18 0 26v60h12v-50
c0 -14 -5 -55 15 -55c22 0 17 41 17 55v50h14v-51c0 -20 3 -54 -21 -62c-21 -6 -34 5 -37 27zM1688 -275v113h15v-103h30v-10h-45zM1703 464h17l16 -85l18 85h14l-24 -118h-16zM1727 519v223h21l63 -150v150h28v-223h-22l-66 151v-151h-24zM1754 -132v113h17v-105h26v-8h-43
zM1772 -162h14l17 -83l18 83h14l-26 -113h-12zM1780 346v118h17v-118h-17zM1782 18v281h49v-281h-49zM1786 773v224h18l63 -150v150h28v-224h-21l-63 150v-150h-25zM1809 -132v113h16v-105h28v-8h-44zM1812 379l15 6c0 -9 4 -23 12 -26c8 -1 14 3 14 14c3 14 -14 26 -26 36
c-13 12 -24 35 -6 49c10 6 23 8 31 4c10 -5 14 -18 15 -29l-14 -2c-3 31 -18 26 -24 13c-6 -14 8 -23 15 -31c8 -6 22 -15 23 -28c6 -20 -5 -39 -24 -39c-22 0 -29 16 -31 33zM1837 18l51 281h44l48 -281h-47l-9 67h-30l-10 -67h-47zM1847 -275v113h46v-11h-30v-34h25v-12
h-25v-46h30v-10h-46zM1873 519v223h30v-204h54v-19h-84zM1882 346v118h17v-118h-17zM1893 -132l21 113h18l25 -113h-17l-4 28h-22l-8 -28h-13zM1901 125h15l-8 57zM1905 -275v113c14 0 31 5 44 -2c16 -11 16 -47 -4 -54l18 -57h-16l-15 56h-11v-56h-16zM1909 455v9h54v-9
h-19v-109h-13v109h-22zM1914 -93h19l-10 52zM1917 773l48 224h31l47 -224h-29l-11 53h-46l-12 -53h-28zM1921 -207c15 0 24 0 24 15c0 17 -9 19 -24 19v-34zM1962 850h37l-17 101zM1968 -132v113h10l32 -75v75h15v-113h-11l-30 77v-77h-16zM1968 742h28l33 -109l34 109h31
c-10 -32 -21 -63 -31 -96l-15 -44c-5 -10 -2 -22 -2 -30v-53h-31v44c0 10 1 25 0 34c-5 17 -8 29 -16 43zM1975 -242l15 3c0 -6 2 -19 9 -22c11 -5 19 3 19 12c0 12 -19 27 -28 33c-14 14 -22 39 -5 49c11 8 23 10 31 4c11 -4 13 -14 13 -25l-11 -7c-2 9 -2 19 -9 22
c-8 4 -13 0 -17 -6c-6 -13 7 -20 16 -28c8 -10 21 -17 21 -33c7 -18 -2 -36 -22 -36c-21 0 -31 15 -32 34zM1986 18v281h34l48 -134v134h45v-281h-36l-47 138v-138h-44zM2043 -132v113c13 0 35 3 51 -8c11 -9 6 -33 6 -49c0 -17 5 -41 -12 -49c-11 -10 -33 -7 -45 -7z
M2046 -275v113h14v-113h-14zM2059 -124c12 0 21 0 26 19v58c-1 17 -12 17 -26 17v-94zM2066 773v224h32v-203h56v-21h-88zM2077 -216c0 30 0 59 36 54c32 -1 28 -33 28 -55c0 -25 2 -59 -31 -59c-36 0 -33 37 -33 60zM2097 -207c0 -12 -9 -49 4 -54c26 -14 25 23 25 39
c0 12 4 43 -7 47c-18 8 -22 -4 -22 -17v-15zM2110 519v30h31v-30h-31zM2110 742h31l-11 -177h-10zM2137 133v49h60v-49h-60zM2158 -275v113h9l35 -76v76h12v-113h-11l-36 79v-79h-9zM2221 18v281h82c21 0 50 -21 50 -73c0 -26 -8 -60 -33 -77l31 -131h-47l-24 122h-13v-122
h-46zM2267 180h25c16 9 18 79 -10 79h-15v-79zM2359 18l52 281h44l48 -281h-47l-9 67h-30l-10 -67h-48zM2424 125h15l-8 57zM2509 18v281h48v-281h-48zM2581 18v281h48v-233h59v-48h-107z" />
    <glyph glyph-name="uni0030" unicode="6" horiz-adv-x="3093" 
d="M1691 771c-33 0 -52 16 -57 48c-3 14 -3 28 -3 41c0 33 -3 70 4 98c6 29 29 39 53 40c24 0 52 -8 60 -32c11 -28 6 -67 6 -98c0 -18 0 -37 -3 -51c-7 -33 -29 -46 -60 -46zM575 20l4 281h45l34 -176l32 176h48l1 -281h-39l-5 117l-20 -117h-33l-23 114l-2 -114h-42z
M776 20v281h36l47 -134v134h45v-281h-35l-49 138v-138h-44zM935 20v51h48v-51h-48zM1000 119l45 2c0 -16 0 -34 10 -50c4 -7 9 -13 18 -9c8 2 12 11 12 23c0 30 -29 52 -44 70c-9 12 -22 19 -26 29c-11 18 -16 42 -11 66c1 40 48 67 87 49c33 -16 37 -57 37 -90l-43 -2
c-4 18 0 51 -18 54c-22 1 -24 -26 -20 -36c6 -16 17 -23 27 -33l22 -25c26 -26 37 -57 33 -94c-1 -24 -18 -49 -49 -56c-27 -4 -56 7 -68 33c-8 21 -12 44 -12 69zM1041 -196c0 20 11 39 37 34c23 -1 23 -20 23 -37h-14c0 4 1 13 -1 20c-4 10 -19 10 -25 2
c-6 -9 -4 -30 -4 -40c0 -9 -2 -31 6 -41c4 -8 19 -7 23 3c2 7 1 15 1 22h14c0 -19 -2 -43 -27 -43c-41 0 -33 52 -33 80zM1115 -216c0 30 0 59 33 54c33 -1 31 -33 31 -55c0 -25 1 -59 -32 -59c-38 0 -32 37 -32 60zM1117 773v224h48c22 0 43 -3 54 -25
c14 -27 14 -65 -11 -83c-15 -15 -41 -13 -61 -13v-103h-30zM1119 602v140h29v-150c0 -19 -1 -43 19 -54c33 -10 41 24 41 50v71v83h31v-102c0 -39 10 -107 -38 -121c-26 -13 -65 -1 -76 29c-6 15 -6 32 -6 54zM1129 -207c0 -12 -4 -49 8 -54c27 -14 25 23 25 39
c0 12 3 43 -8 47c-17 8 -25 -4 -25 -17v-15zM1147 900c11 0 21 -1 33 2c16 4 19 16 19 31s0 34 -19 39c-12 4 -22 1 -33 1v-73zM1151 161c0 28 -3 56 1 81c4 24 16 48 41 59c21 5 45 5 62 -6c33 -20 31 -63 31 -93h-46c0 49 -2 53 -14 59c-22 3 -26 -17 -26 -38v-102
c0 -15 -6 -53 16 -59c33 -13 28 48 28 63h-28v42h72v-147h-36l-2 9c-18 -16 -50 -16 -69 -3c-20 9 -27 36 -29 57c-4 27 -1 51 -1 78zM1158 -132v113h43v-11h-26v-39h21v-10h-21v-53h-17zM1193 -275v113h18l21 -90l18 90h16l1 -113h-11v83l-18 -83h-13l-18 83v-83h-14z
M1211 -72c0 27 0 56 34 56c32 -5 29 -38 29 -60c0 -25 0 -57 -31 -57c-35 0 -32 35 -32 61zM1227 -69c0 -10 -7 -46 11 -53c20 -5 20 24 20 42c0 11 5 44 -8 49c-12 8 -23 -5 -23 -20v-18zM1250 773v224h85v-24h-55v-73h46v-24h-46v-82h57v-21h-87zM1263 579l31 9
c2 -15 2 -31 11 -40c9 -10 26 -13 34 -3c14 10 11 32 3 44c-7 8 -12 19 -25 25c-13 12 -34 26 -44 43c-17 28 -10 73 26 85c16 3 38 0 54 -9c15 -11 19 -30 19 -48l-24 -9c-1 17 -6 37 -24 40c-15 5 -26 -4 -28 -16c-9 -25 17 -41 35 -57c19 -17 41 -31 44 -60
c8 -34 -15 -67 -51 -67c-37 0 -58 28 -61 63zM1287 -275v113h17l20 -90l19 90h15l2 -113h-10l-2 83l-18 -83h-13l-15 83l-3 -83h-12zM1291 -132v113c13 0 30 3 42 -3c17 -9 21 -47 0 -54l17 -56h-17l-16 53h-12v-53h-14zM1298 -15l75 352h44l-80 -352h-39zM1302 346v118
c15 0 42 4 52 -13c4 -13 4 -35 -4 -43c-11 -9 -20 -7 -33 -7v-55h-15zM1305 -69c15 0 28 3 28 21c0 17 -12 18 -28 18v-39zM1317 411c5 0 14 0 16 2c9 5 9 13 9 23c0 19 -9 19 -25 19v-44zM1360 773v224c30 0 64 3 89 -9c32 -19 35 -89 0 -103l27 -112h-27l-32 104h-23v-104
h-34zM1372 346v118h12v-105h30v-13h-42zM1379 -275v113h45v-11h-28v-34h23v-12h-23v-46h28v-10h-45zM1386 -30v11h60v-11h-22v-102h-17v102h-21zM1394 900c9 0 20 0 31 2c15 7 20 21 18 38c0 11 -3 26 -18 30c-11 6 -22 3 -31 3v-73zM1403 519v223h86v-26h-57v-73h45v-22
h-45v-83h57v-19h-86zM1425 346v118h44v-9h-29v-42h24v-12h-24v-42h29v-13h-44zM1427 118l45 1c0 -16 0 -34 9 -49c1 -8 7 -13 17 -10c10 2 10 12 10 24c0 31 -27 52 -44 69c-8 13 -19 21 -23 29c-14 18 -16 44 -14 66c3 42 51 66 88 49c34 -15 38 -56 38 -89l-45 -3
c0 18 1 51 -17 54c-19 2 -21 -24 -17 -36c5 -15 14 -23 24 -33l23 -24c24 -27 38 -57 34 -94c-2 -25 -20 -50 -49 -57c-27 -4 -56 7 -69 34c-10 21 -10 43 -10 69zM1435 -275v113c17 0 32 5 44 -2c16 -11 18 -46 -2 -53l17 -58h-15l-13 56h-13v-56h-18zM1453 -207
c14 0 24 0 24 15c0 17 -10 19 -24 19v-34zM1453 -132v113h14v-50h32v50h16v-113h-16v53h-32v-53h-14zM1476 346l25 118h18l22 -118h-16l-6 32h-25l-3 -32h-15zM1495 387h24l-11 56zM1495 835l31 9c1 -18 4 -32 12 -40c10 -11 27 -12 37 -3c12 8 9 30 0 43
c-6 6 -12 15 -25 25c-12 12 -31 26 -43 41c-18 31 -12 77 27 84c14 6 38 4 53 -6c14 -9 18 -30 20 -47l-25 -8c-4 15 -7 37 -24 43c-14 0 -28 -7 -31 -20c-3 -26 20 -43 38 -56c17 -19 39 -36 45 -61c7 -35 -15 -68 -52 -68c-39 0 -61 28 -63 64zM1508 -196
c0 20 11 39 36 34c21 -1 23 -20 23 -37h-16c0 4 4 13 -1 20c-2 10 -16 10 -23 2c-8 -9 -3 -30 -3 -40c0 -9 -5 -31 3 -41c7 -8 21 -7 23 3c5 7 1 15 1 22h16c0 -19 -2 -43 -29 -43c-41 0 -30 52 -30 80zM1531 -132v113h44v-11h-27v-39h22v-10h-22v-45h27v-8h-44zM1548 379
l17 6c0 -9 0 -23 7 -26c12 -1 19 3 19 14c0 14 -19 26 -26 36c-15 12 -24 35 -7 49c7 6 20 8 31 4c11 -5 16 -18 16 -29l-14 -2c-9 31 -24 26 -26 13c-4 -13 5 -24 13 -31c11 -9 26 -15 27 -28c6 -20 -5 -39 -27 -39c-17 0 -28 16 -30 33zM1572 608c0 32 -3 67 3 96
c9 26 30 38 55 38c28 0 51 -8 58 -32c13 -28 5 -68 5 -96c0 -20 4 -37 -2 -54c-4 -29 -25 -44 -56 -44s-57 16 -60 46c-3 15 -3 30 -3 46zM1579 18v281h49v-281h-49zM1584 -275v113h16v-113h-16zM1605 588c0 -18 -1 -39 13 -46c10 -4 21 -4 28 0c12 6 17 18 18 28
c2 7 0 18 0 24v81c0 13 2 26 -8 35c-10 6 -21 11 -28 6c-13 0 -18 -6 -23 -18c-4 -22 0 -49 0 -72v-38zM1611 -275l24 113h17l26 -113h-15l-5 30h-24l-6 -30h-17zM1618 346v118h46v-9h-29v-42h23v-12h-23v-42h31v-13h-48zM1624 -132v113h43v-11h-32v-39h23v-10h-23v-53h-11z
M1635 -237h21l-10 55zM1651 18v281h49v-233h58v-48h-107zM1664 841c0 -15 -1 -36 17 -45c6 -3 19 -3 25 0c14 8 16 20 16 30v102c0 13 0 28 -10 38c-7 10 -15 10 -25 7c-11 -1 -17 -7 -21 -22c-8 -18 -2 -48 -2 -70v-40zM1678 -105c-2 7 0 18 0 26v60h12v-50
c0 -14 -5 -55 15 -55c22 0 17 41 17 55v50h14v-51c0 -20 3 -54 -21 -62c-21 -6 -34 5 -37 27zM1688 -275v113h15v-103h30v-10h-45zM1703 464h17l16 -85l18 85h14l-24 -118h-16zM1727 519v223h21l63 -150v150h28v-223h-22l-66 151v-151h-24zM1754 -132v113h17v-105h26v-8h-43
zM1772 -162h14l17 -83l18 83h14l-26 -113h-12zM1780 346v118h17v-118h-17zM1782 18v281h49v-281h-49zM1786 773v224h18l63 -150v150h28v-224h-21l-63 150v-150h-25zM1809 -132v113h16v-105h28v-8h-44zM1812 379l15 6c0 -9 4 -23 12 -26c8 -1 14 3 14 14c3 14 -14 26 -26 36
c-13 12 -24 35 -6 49c10 6 23 8 31 4c10 -5 14 -18 15 -29l-14 -2c-3 31 -18 26 -24 13c-6 -14 8 -23 15 -31c8 -6 22 -15 23 -28c6 -20 -5 -39 -24 -39c-22 0 -29 16 -31 33zM1837 18l51 281h44l48 -281h-47l-9 67h-30l-10 -67h-47zM1847 -275v113h46v-11h-30v-34h25v-12
h-25v-46h30v-10h-46zM1873 519v223h30v-204h54v-19h-84zM1882 346v118h17v-118h-17zM1893 -132l21 113h18l25 -113h-17l-4 28h-22l-8 -28h-13zM1901 125h15l-8 57zM1905 -275v113c14 0 31 5 44 -2c16 -11 16 -47 -4 -54l18 -57h-16l-15 56h-11v-56h-16zM1909 455v9h54v-9
h-19v-109h-13v109h-22zM1914 -93h19l-10 52zM1917 773l48 224h31l47 -224h-29l-11 53h-46l-12 -53h-28zM1921 -207c15 0 24 0 24 15c0 17 -9 19 -24 19v-34zM1962 850h37l-17 101zM1968 -132v113h10l32 -75v75h15v-113h-11l-30 77v-77h-16zM1968 742h28l33 -109l34 109h31
c-10 -32 -21 -63 -31 -96l-15 -44c-5 -10 -2 -22 -2 -30v-53h-31v44c0 10 1 25 0 34c-5 17 -8 29 -16 43zM1975 -242l15 3c0 -6 2 -19 9 -22c11 -5 19 3 19 12c0 12 -19 27 -28 33c-14 14 -22 39 -5 49c11 8 23 10 31 4c11 -4 13 -14 13 -25l-11 -7c-2 9 -2 19 -9 22
c-8 4 -13 0 -17 -6c-6 -13 7 -20 16 -28c8 -10 21 -17 21 -33c7 -18 -2 -36 -22 -36c-21 0 -31 15 -32 34zM1986 18v281h34l48 -134v134h45v-281h-36l-47 138v-138h-44zM2043 -132v113c13 0 35 3 51 -8c11 -9 6 -33 6 -49c0 -17 5 -41 -12 -49c-11 -10 -33 -7 -45 -7z
M2046 -275v113h14v-113h-14zM2059 -124c12 0 21 0 26 19v58c-1 17 -12 17 -26 17v-94zM2066 773v224h32v-203h56v-21h-88zM2077 -216c0 30 0 59 36 54c32 -1 28 -33 28 -55c0 -25 2 -59 -31 -59c-36 0 -33 37 -33 60zM2097 -207c0 -12 -9 -49 4 -54c26 -14 25 23 25 39
c0 12 4 43 -7 47c-18 8 -22 -4 -22 -17v-15zM2110 519v30h31v-30h-31zM2110 742h31l-11 -177h-10zM2137 133v49h60v-49h-60zM2158 -275v113h9l35 -76v76h12v-113h-11l-36 79v-79h-9zM2221 18v281h82c21 0 50 -21 50 -73c0 -26 -8 -60 -33 -77l31 -131h-47l-24 122h-13v-122
h-46zM2267 180h25c16 9 18 79 -10 79h-15v-79zM2359 18l52 281h44l48 -281h-47l-9 67h-30l-10 -67h-48zM2424 125h15l-8 57zM2509 18v281h48v-281h-48zM2581 18v281h48v-233h59v-48h-107z" />
    <glyph glyph-name="uni0030" unicode="5" horiz-adv-x="3093" 
d="M1691 771c-33 0 -52 16 -57 48c-3 14 -3 28 -3 41c0 33 -3 70 4 98c6 29 29 39 53 40c24 0 52 -8 60 -32c11 -28 6 -67 6 -98c0 -18 0 -37 -3 -51c-7 -33 -29 -46 -60 -46zM575 20l4 281h45l34 -176l32 176h48l1 -281h-39l-5 117l-20 -117h-33l-23 114l-2 -114h-42z
M776 20v281h36l47 -134v134h45v-281h-35l-49 138v-138h-44zM935 20v51h48v-51h-48zM1000 119l45 2c0 -16 0 -34 10 -50c4 -7 9 -13 18 -9c8 2 12 11 12 23c0 30 -29 52 -44 70c-9 12 -22 19 -26 29c-11 18 -16 42 -11 66c1 40 48 67 87 49c33 -16 37 -57 37 -90l-43 -2
c-4 18 0 51 -18 54c-22 1 -24 -26 -20 -36c6 -16 17 -23 27 -33l22 -25c26 -26 37 -57 33 -94c-1 -24 -18 -49 -49 -56c-27 -4 -56 7 -68 33c-8 21 -12 44 -12 69zM1041 -196c0 20 11 39 37 34c23 -1 23 -20 23 -37h-14c0 4 1 13 -1 20c-4 10 -19 10 -25 2
c-6 -9 -4 -30 -4 -40c0 -9 -2 -31 6 -41c4 -8 19 -7 23 3c2 7 1 15 1 22h14c0 -19 -2 -43 -27 -43c-41 0 -33 52 -33 80zM1115 -216c0 30 0 59 33 54c33 -1 31 -33 31 -55c0 -25 1 -59 -32 -59c-38 0 -32 37 -32 60zM1117 773v224h48c22 0 43 -3 54 -25
c14 -27 14 -65 -11 -83c-15 -15 -41 -13 -61 -13v-103h-30zM1119 602v140h29v-150c0 -19 -1 -43 19 -54c33 -10 41 24 41 50v71v83h31v-102c0 -39 10 -107 -38 -121c-26 -13 -65 -1 -76 29c-6 15 -6 32 -6 54zM1129 -207c0 -12 -4 -49 8 -54c27 -14 25 23 25 39
c0 12 3 43 -8 47c-17 8 -25 -4 -25 -17v-15zM1147 900c11 0 21 -1 33 2c16 4 19 16 19 31s0 34 -19 39c-12 4 -22 1 -33 1v-73zM1151 161c0 28 -3 56 1 81c4 24 16 48 41 59c21 5 45 5 62 -6c33 -20 31 -63 31 -93h-46c0 49 -2 53 -14 59c-22 3 -26 -17 -26 -38v-102
c0 -15 -6 -53 16 -59c33 -13 28 48 28 63h-28v42h72v-147h-36l-2 9c-18 -16 -50 -16 -69 -3c-20 9 -27 36 -29 57c-4 27 -1 51 -1 78zM1158 -132v113h43v-11h-26v-39h21v-10h-21v-53h-17zM1193 -275v113h18l21 -90l18 90h16l1 -113h-11v83l-18 -83h-13l-18 83v-83h-14z
M1211 -72c0 27 0 56 34 56c32 -5 29 -38 29 -60c0 -25 0 -57 -31 -57c-35 0 -32 35 -32 61zM1227 -69c0 -10 -7 -46 11 -53c20 -5 20 24 20 42c0 11 5 44 -8 49c-12 8 -23 -5 -23 -20v-18zM1250 773v224h85v-24h-55v-73h46v-24h-46v-82h57v-21h-87zM1263 579l31 9
c2 -15 2 -31 11 -40c9 -10 26 -13 34 -3c14 10 11 32 3 44c-7 8 -12 19 -25 25c-13 12 -34 26 -44 43c-17 28 -10 73 26 85c16 3 38 0 54 -9c15 -11 19 -30 19 -48l-24 -9c-1 17 -6 37 -24 40c-15 5 -26 -4 -28 -16c-9 -25 17 -41 35 -57c19 -17 41 -31 44 -60
c8 -34 -15 -67 -51 -67c-37 0 -58 28 -61 63zM1287 -275v113h17l20 -90l19 90h15l2 -113h-10l-2 83l-18 -83h-13l-15 83l-3 -83h-12zM1291 -132v113c13 0 30 3 42 -3c17 -9 21 -47 0 -54l17 -56h-17l-16 53h-12v-53h-14zM1298 -15l75 352h44l-80 -352h-39zM1302 346v118
c15 0 42 4 52 -13c4 -13 4 -35 -4 -43c-11 -9 -20 -7 -33 -7v-55h-15zM1305 -69c15 0 28 3 28 21c0 17 -12 18 -28 18v-39zM1317 411c5 0 14 0 16 2c9 5 9 13 9 23c0 19 -9 19 -25 19v-44zM1360 773v224c30 0 64 3 89 -9c32 -19 35 -89 0 -103l27 -112h-27l-32 104h-23v-104
h-34zM1372 346v118h12v-105h30v-13h-42zM1379 -275v113h45v-11h-28v-34h23v-12h-23v-46h28v-10h-45zM1386 -30v11h60v-11h-22v-102h-17v102h-21zM1394 900c9 0 20 0 31 2c15 7 20 21 18 38c0 11 -3 26 -18 30c-11 6 -22 3 -31 3v-73zM1403 519v223h86v-26h-57v-73h45v-22
h-45v-83h57v-19h-86zM1425 346v118h44v-9h-29v-42h24v-12h-24v-42h29v-13h-44zM1427 118l45 1c0 -16 0 -34 9 -49c1 -8 7 -13 17 -10c10 2 10 12 10 24c0 31 -27 52 -44 69c-8 13 -19 21 -23 29c-14 18 -16 44 -14 66c3 42 51 66 88 49c34 -15 38 -56 38 -89l-45 -3
c0 18 1 51 -17 54c-19 2 -21 -24 -17 -36c5 -15 14 -23 24 -33l23 -24c24 -27 38 -57 34 -94c-2 -25 -20 -50 -49 -57c-27 -4 -56 7 -69 34c-10 21 -10 43 -10 69zM1435 -275v113c17 0 32 5 44 -2c16 -11 18 -46 -2 -53l17 -58h-15l-13 56h-13v-56h-18zM1453 -207
c14 0 24 0 24 15c0 17 -10 19 -24 19v-34zM1453 -132v113h14v-50h32v50h16v-113h-16v53h-32v-53h-14zM1476 346l25 118h18l22 -118h-16l-6 32h-25l-3 -32h-15zM1495 387h24l-11 56zM1495 835l31 9c1 -18 4 -32 12 -40c10 -11 27 -12 37 -3c12 8 9 30 0 43
c-6 6 -12 15 -25 25c-12 12 -31 26 -43 41c-18 31 -12 77 27 84c14 6 38 4 53 -6c14 -9 18 -30 20 -47l-25 -8c-4 15 -7 37 -24 43c-14 0 -28 -7 -31 -20c-3 -26 20 -43 38 -56c17 -19 39 -36 45 -61c7 -35 -15 -68 -52 -68c-39 0 -61 28 -63 64zM1508 -196
c0 20 11 39 36 34c21 -1 23 -20 23 -37h-16c0 4 4 13 -1 20c-2 10 -16 10 -23 2c-8 -9 -3 -30 -3 -40c0 -9 -5 -31 3 -41c7 -8 21 -7 23 3c5 7 1 15 1 22h16c0 -19 -2 -43 -29 -43c-41 0 -30 52 -30 80zM1531 -132v113h44v-11h-27v-39h22v-10h-22v-45h27v-8h-44zM1548 379
l17 6c0 -9 0 -23 7 -26c12 -1 19 3 19 14c0 14 -19 26 -26 36c-15 12 -24 35 -7 49c7 6 20 8 31 4c11 -5 16 -18 16 -29l-14 -2c-9 31 -24 26 -26 13c-4 -13 5 -24 13 -31c11 -9 26 -15 27 -28c6 -20 -5 -39 -27 -39c-17 0 -28 16 -30 33zM1572 608c0 32 -3 67 3 96
c9 26 30 38 55 38c28 0 51 -8 58 -32c13 -28 5 -68 5 -96c0 -20 4 -37 -2 -54c-4 -29 -25 -44 -56 -44s-57 16 -60 46c-3 15 -3 30 -3 46zM1579 18v281h49v-281h-49zM1584 -275v113h16v-113h-16zM1605 588c0 -18 -1 -39 13 -46c10 -4 21 -4 28 0c12 6 17 18 18 28
c2 7 0 18 0 24v81c0 13 2 26 -8 35c-10 6 -21 11 -28 6c-13 0 -18 -6 -23 -18c-4 -22 0 -49 0 -72v-38zM1611 -275l24 113h17l26 -113h-15l-5 30h-24l-6 -30h-17zM1618 346v118h46v-9h-29v-42h23v-12h-23v-42h31v-13h-48zM1624 -132v113h43v-11h-32v-39h23v-10h-23v-53h-11z
M1635 -237h21l-10 55zM1651 18v281h49v-233h58v-48h-107zM1664 841c0 -15 -1 -36 17 -45c6 -3 19 -3 25 0c14 8 16 20 16 30v102c0 13 0 28 -10 38c-7 10 -15 10 -25 7c-11 -1 -17 -7 -21 -22c-8 -18 -2 -48 -2 -70v-40zM1678 -105c-2 7 0 18 0 26v60h12v-50
c0 -14 -5 -55 15 -55c22 0 17 41 17 55v50h14v-51c0 -20 3 -54 -21 -62c-21 -6 -34 5 -37 27zM1688 -275v113h15v-103h30v-10h-45zM1703 464h17l16 -85l18 85h14l-24 -118h-16zM1727 519v223h21l63 -150v150h28v-223h-22l-66 151v-151h-24zM1754 -132v113h17v-105h26v-8h-43
zM1772 -162h14l17 -83l18 83h14l-26 -113h-12zM1780 346v118h17v-118h-17zM1782 18v281h49v-281h-49zM1786 773v224h18l63 -150v150h28v-224h-21l-63 150v-150h-25zM1809 -132v113h16v-105h28v-8h-44zM1812 379l15 6c0 -9 4 -23 12 -26c8 -1 14 3 14 14c3 14 -14 26 -26 36
c-13 12 -24 35 -6 49c10 6 23 8 31 4c10 -5 14 -18 15 -29l-14 -2c-3 31 -18 26 -24 13c-6 -14 8 -23 15 -31c8 -6 22 -15 23 -28c6 -20 -5 -39 -24 -39c-22 0 -29 16 -31 33zM1837 18l51 281h44l48 -281h-47l-9 67h-30l-10 -67h-47zM1847 -275v113h46v-11h-30v-34h25v-12
h-25v-46h30v-10h-46zM1873 519v223h30v-204h54v-19h-84zM1882 346v118h17v-118h-17zM1893 -132l21 113h18l25 -113h-17l-4 28h-22l-8 -28h-13zM1901 125h15l-8 57zM1905 -275v113c14 0 31 5 44 -2c16 -11 16 -47 -4 -54l18 -57h-16l-15 56h-11v-56h-16zM1909 455v9h54v-9
h-19v-109h-13v109h-22zM1914 -93h19l-10 52zM1917 773l48 224h31l47 -224h-29l-11 53h-46l-12 -53h-28zM1921 -207c15 0 24 0 24 15c0 17 -9 19 -24 19v-34zM1962 850h37l-17 101zM1968 -132v113h10l32 -75v75h15v-113h-11l-30 77v-77h-16zM1968 742h28l33 -109l34 109h31
c-10 -32 -21 -63 -31 -96l-15 -44c-5 -10 -2 -22 -2 -30v-53h-31v44c0 10 1 25 0 34c-5 17 -8 29 -16 43zM1975 -242l15 3c0 -6 2 -19 9 -22c11 -5 19 3 19 12c0 12 -19 27 -28 33c-14 14 -22 39 -5 49c11 8 23 10 31 4c11 -4 13 -14 13 -25l-11 -7c-2 9 -2 19 -9 22
c-8 4 -13 0 -17 -6c-6 -13 7 -20 16 -28c8 -10 21 -17 21 -33c7 -18 -2 -36 -22 -36c-21 0 -31 15 -32 34zM1986 18v281h34l48 -134v134h45v-281h-36l-47 138v-138h-44zM2043 -132v113c13 0 35 3 51 -8c11 -9 6 -33 6 -49c0 -17 5 -41 -12 -49c-11 -10 -33 -7 -45 -7z
M2046 -275v113h14v-113h-14zM2059 -124c12 0 21 0 26 19v58c-1 17 -12 17 -26 17v-94zM2066 773v224h32v-203h56v-21h-88zM2077 -216c0 30 0 59 36 54c32 -1 28 -33 28 -55c0 -25 2 -59 -31 -59c-36 0 -33 37 -33 60zM2097 -207c0 -12 -9 -49 4 -54c26 -14 25 23 25 39
c0 12 4 43 -7 47c-18 8 -22 -4 -22 -17v-15zM2110 519v30h31v-30h-31zM2110 742h31l-11 -177h-10zM2137 133v49h60v-49h-60zM2158 -275v113h9l35 -76v76h12v-113h-11l-36 79v-79h-9zM2221 18v281h82c21 0 50 -21 50 -73c0 -26 -8 -60 -33 -77l31 -131h-47l-24 122h-13v-122
h-46zM2267 180h25c16 9 18 79 -10 79h-15v-79zM2359 18l52 281h44l48 -281h-47l-9 67h-30l-10 -67h-48zM2424 125h15l-8 57zM2509 18v281h48v-281h-48zM2581 18v281h48v-233h59v-48h-107z" />
    <glyph glyph-name="uni0030" unicode="4" horiz-adv-x="3093" 
d="M1691 771c-33 0 -52 16 -57 48c-3 14 -3 28 -3 41c0 33 -3 70 4 98c6 29 29 39 53 40c24 0 52 -8 60 -32c11 -28 6 -67 6 -98c0 -18 0 -37 -3 -51c-7 -33 -29 -46 -60 -46zM575 20l4 281h45l34 -176l32 176h48l1 -281h-39l-5 117l-20 -117h-33l-23 114l-2 -114h-42z
M776 20v281h36l47 -134v134h45v-281h-35l-49 138v-138h-44zM935 20v51h48v-51h-48zM1000 119l45 2c0 -16 0 -34 10 -50c4 -7 9 -13 18 -9c8 2 12 11 12 23c0 30 -29 52 -44 70c-9 12 -22 19 -26 29c-11 18 -16 42 -11 66c1 40 48 67 87 49c33 -16 37 -57 37 -90l-43 -2
c-4 18 0 51 -18 54c-22 1 -24 -26 -20 -36c6 -16 17 -23 27 -33l22 -25c26 -26 37 -57 33 -94c-1 -24 -18 -49 -49 -56c-27 -4 -56 7 -68 33c-8 21 -12 44 -12 69zM1041 -196c0 20 11 39 37 34c23 -1 23 -20 23 -37h-14c0 4 1 13 -1 20c-4 10 -19 10 -25 2
c-6 -9 -4 -30 -4 -40c0 -9 -2 -31 6 -41c4 -8 19 -7 23 3c2 7 1 15 1 22h14c0 -19 -2 -43 -27 -43c-41 0 -33 52 -33 80zM1115 -216c0 30 0 59 33 54c33 -1 31 -33 31 -55c0 -25 1 -59 -32 -59c-38 0 -32 37 -32 60zM1117 773v224h48c22 0 43 -3 54 -25
c14 -27 14 -65 -11 -83c-15 -15 -41 -13 -61 -13v-103h-30zM1119 602v140h29v-150c0 -19 -1 -43 19 -54c33 -10 41 24 41 50v71v83h31v-102c0 -39 10 -107 -38 -121c-26 -13 -65 -1 -76 29c-6 15 -6 32 -6 54zM1129 -207c0 -12 -4 -49 8 -54c27 -14 25 23 25 39
c0 12 3 43 -8 47c-17 8 -25 -4 -25 -17v-15zM1147 900c11 0 21 -1 33 2c16 4 19 16 19 31s0 34 -19 39c-12 4 -22 1 -33 1v-73zM1151 161c0 28 -3 56 1 81c4 24 16 48 41 59c21 5 45 5 62 -6c33 -20 31 -63 31 -93h-46c0 49 -2 53 -14 59c-22 3 -26 -17 -26 -38v-102
c0 -15 -6 -53 16 -59c33 -13 28 48 28 63h-28v42h72v-147h-36l-2 9c-18 -16 -50 -16 -69 -3c-20 9 -27 36 -29 57c-4 27 -1 51 -1 78zM1158 -132v113h43v-11h-26v-39h21v-10h-21v-53h-17zM1193 -275v113h18l21 -90l18 90h16l1 -113h-11v83l-18 -83h-13l-18 83v-83h-14z
M1211 -72c0 27 0 56 34 56c32 -5 29 -38 29 -60c0 -25 0 -57 -31 -57c-35 0 -32 35 -32 61zM1227 -69c0 -10 -7 -46 11 -53c20 -5 20 24 20 42c0 11 5 44 -8 49c-12 8 -23 -5 -23 -20v-18zM1250 773v224h85v-24h-55v-73h46v-24h-46v-82h57v-21h-87zM1263 579l31 9
c2 -15 2 -31 11 -40c9 -10 26 -13 34 -3c14 10 11 32 3 44c-7 8 -12 19 -25 25c-13 12 -34 26 -44 43c-17 28 -10 73 26 85c16 3 38 0 54 -9c15 -11 19 -30 19 -48l-24 -9c-1 17 -6 37 -24 40c-15 5 -26 -4 -28 -16c-9 -25 17 -41 35 -57c19 -17 41 -31 44 -60
c8 -34 -15 -67 -51 -67c-37 0 -58 28 -61 63zM1287 -275v113h17l20 -90l19 90h15l2 -113h-10l-2 83l-18 -83h-13l-15 83l-3 -83h-12zM1291 -132v113c13 0 30 3 42 -3c17 -9 21 -47 0 -54l17 -56h-17l-16 53h-12v-53h-14zM1298 -15l75 352h44l-80 -352h-39zM1302 346v118
c15 0 42 4 52 -13c4 -13 4 -35 -4 -43c-11 -9 -20 -7 -33 -7v-55h-15zM1305 -69c15 0 28 3 28 21c0 17 -12 18 -28 18v-39zM1317 411c5 0 14 0 16 2c9 5 9 13 9 23c0 19 -9 19 -25 19v-44zM1360 773v224c30 0 64 3 89 -9c32 -19 35 -89 0 -103l27 -112h-27l-32 104h-23v-104
h-34zM1372 346v118h12v-105h30v-13h-42zM1379 -275v113h45v-11h-28v-34h23v-12h-23v-46h28v-10h-45zM1386 -30v11h60v-11h-22v-102h-17v102h-21zM1394 900c9 0 20 0 31 2c15 7 20 21 18 38c0 11 -3 26 -18 30c-11 6 -22 3 -31 3v-73zM1403 519v223h86v-26h-57v-73h45v-22
h-45v-83h57v-19h-86zM1425 346v118h44v-9h-29v-42h24v-12h-24v-42h29v-13h-44zM1427 118l45 1c0 -16 0 -34 9 -49c1 -8 7 -13 17 -10c10 2 10 12 10 24c0 31 -27 52 -44 69c-8 13 -19 21 -23 29c-14 18 -16 44 -14 66c3 42 51 66 88 49c34 -15 38 -56 38 -89l-45 -3
c0 18 1 51 -17 54c-19 2 -21 -24 -17 -36c5 -15 14 -23 24 -33l23 -24c24 -27 38 -57 34 -94c-2 -25 -20 -50 -49 -57c-27 -4 -56 7 -69 34c-10 21 -10 43 -10 69zM1435 -275v113c17 0 32 5 44 -2c16 -11 18 -46 -2 -53l17 -58h-15l-13 56h-13v-56h-18zM1453 -207
c14 0 24 0 24 15c0 17 -10 19 -24 19v-34zM1453 -132v113h14v-50h32v50h16v-113h-16v53h-32v-53h-14zM1476 346l25 118h18l22 -118h-16l-6 32h-25l-3 -32h-15zM1495 387h24l-11 56zM1495 835l31 9c1 -18 4 -32 12 -40c10 -11 27 -12 37 -3c12 8 9 30 0 43
c-6 6 -12 15 -25 25c-12 12 -31 26 -43 41c-18 31 -12 77 27 84c14 6 38 4 53 -6c14 -9 18 -30 20 -47l-25 -8c-4 15 -7 37 -24 43c-14 0 -28 -7 -31 -20c-3 -26 20 -43 38 -56c17 -19 39 -36 45 -61c7 -35 -15 -68 -52 -68c-39 0 -61 28 -63 64zM1508 -196
c0 20 11 39 36 34c21 -1 23 -20 23 -37h-16c0 4 4 13 -1 20c-2 10 -16 10 -23 2c-8 -9 -3 -30 -3 -40c0 -9 -5 -31 3 -41c7 -8 21 -7 23 3c5 7 1 15 1 22h16c0 -19 -2 -43 -29 -43c-41 0 -30 52 -30 80zM1531 -132v113h44v-11h-27v-39h22v-10h-22v-45h27v-8h-44zM1548 379
l17 6c0 -9 0 -23 7 -26c12 -1 19 3 19 14c0 14 -19 26 -26 36c-15 12 -24 35 -7 49c7 6 20 8 31 4c11 -5 16 -18 16 -29l-14 -2c-9 31 -24 26 -26 13c-4 -13 5 -24 13 -31c11 -9 26 -15 27 -28c6 -20 -5 -39 -27 -39c-17 0 -28 16 -30 33zM1572 608c0 32 -3 67 3 96
c9 26 30 38 55 38c28 0 51 -8 58 -32c13 -28 5 -68 5 -96c0 -20 4 -37 -2 -54c-4 -29 -25 -44 -56 -44s-57 16 -60 46c-3 15 -3 30 -3 46zM1579 18v281h49v-281h-49zM1584 -275v113h16v-113h-16zM1605 588c0 -18 -1 -39 13 -46c10 -4 21 -4 28 0c12 6 17 18 18 28
c2 7 0 18 0 24v81c0 13 2 26 -8 35c-10 6 -21 11 -28 6c-13 0 -18 -6 -23 -18c-4 -22 0 -49 0 -72v-38zM1611 -275l24 113h17l26 -113h-15l-5 30h-24l-6 -30h-17zM1618 346v118h46v-9h-29v-42h23v-12h-23v-42h31v-13h-48zM1624 -132v113h43v-11h-32v-39h23v-10h-23v-53h-11z
M1635 -237h21l-10 55zM1651 18v281h49v-233h58v-48h-107zM1664 841c0 -15 -1 -36 17 -45c6 -3 19 -3 25 0c14 8 16 20 16 30v102c0 13 0 28 -10 38c-7 10 -15 10 -25 7c-11 -1 -17 -7 -21 -22c-8 -18 -2 -48 -2 -70v-40zM1678 -105c-2 7 0 18 0 26v60h12v-50
c0 -14 -5 -55 15 -55c22 0 17 41 17 55v50h14v-51c0 -20 3 -54 -21 -62c-21 -6 -34 5 -37 27zM1688 -275v113h15v-103h30v-10h-45zM1703 464h17l16 -85l18 85h14l-24 -118h-16zM1727 519v223h21l63 -150v150h28v-223h-22l-66 151v-151h-24zM1754 -132v113h17v-105h26v-8h-43
zM1772 -162h14l17 -83l18 83h14l-26 -113h-12zM1780 346v118h17v-118h-17zM1782 18v281h49v-281h-49zM1786 773v224h18l63 -150v150h28v-224h-21l-63 150v-150h-25zM1809 -132v113h16v-105h28v-8h-44zM1812 379l15 6c0 -9 4 -23 12 -26c8 -1 14 3 14 14c3 14 -14 26 -26 36
c-13 12 -24 35 -6 49c10 6 23 8 31 4c10 -5 14 -18 15 -29l-14 -2c-3 31 -18 26 -24 13c-6 -14 8 -23 15 -31c8 -6 22 -15 23 -28c6 -20 -5 -39 -24 -39c-22 0 -29 16 -31 33zM1837 18l51 281h44l48 -281h-47l-9 67h-30l-10 -67h-47zM1847 -275v113h46v-11h-30v-34h25v-12
h-25v-46h30v-10h-46zM1873 519v223h30v-204h54v-19h-84zM1882 346v118h17v-118h-17zM1893 -132l21 113h18l25 -113h-17l-4 28h-22l-8 -28h-13zM1901 125h15l-8 57zM1905 -275v113c14 0 31 5 44 -2c16 -11 16 -47 -4 -54l18 -57h-16l-15 56h-11v-56h-16zM1909 455v9h54v-9
h-19v-109h-13v109h-22zM1914 -93h19l-10 52zM1917 773l48 224h31l47 -224h-29l-11 53h-46l-12 -53h-28zM1921 -207c15 0 24 0 24 15c0 17 -9 19 -24 19v-34zM1962 850h37l-17 101zM1968 -132v113h10l32 -75v75h15v-113h-11l-30 77v-77h-16zM1968 742h28l33 -109l34 109h31
c-10 -32 -21 -63 -31 -96l-15 -44c-5 -10 -2 -22 -2 -30v-53h-31v44c0 10 1 25 0 34c-5 17 -8 29 -16 43zM1975 -242l15 3c0 -6 2 -19 9 -22c11 -5 19 3 19 12c0 12 -19 27 -28 33c-14 14 -22 39 -5 49c11 8 23 10 31 4c11 -4 13 -14 13 -25l-11 -7c-2 9 -2 19 -9 22
c-8 4 -13 0 -17 -6c-6 -13 7 -20 16 -28c8 -10 21 -17 21 -33c7 -18 -2 -36 -22 -36c-21 0 -31 15 -32 34zM1986 18v281h34l48 -134v134h45v-281h-36l-47 138v-138h-44zM2043 -132v113c13 0 35 3 51 -8c11 -9 6 -33 6 -49c0 -17 5 -41 -12 -49c-11 -10 -33 -7 -45 -7z
M2046 -275v113h14v-113h-14zM2059 -124c12 0 21 0 26 19v58c-1 17 -12 17 -26 17v-94zM2066 773v224h32v-203h56v-21h-88zM2077 -216c0 30 0 59 36 54c32 -1 28 -33 28 -55c0 -25 2 -59 -31 -59c-36 0 -33 37 -33 60zM2097 -207c0 -12 -9 -49 4 -54c26 -14 25 23 25 39
c0 12 4 43 -7 47c-18 8 -22 -4 -22 -17v-15zM2110 519v30h31v-30h-31zM2110 742h31l-11 -177h-10zM2137 133v49h60v-49h-60zM2158 -275v113h9l35 -76v76h12v-113h-11l-36 79v-79h-9zM2221 18v281h82c21 0 50 -21 50 -73c0 -26 -8 -60 -33 -77l31 -131h-47l-24 122h-13v-122
h-46zM2267 180h25c16 9 18 79 -10 79h-15v-79zM2359 18l52 281h44l48 -281h-47l-9 67h-30l-10 -67h-48zM2424 125h15l-8 57zM2509 18v281h48v-281h-48zM2581 18v281h48v-233h59v-48h-107z" />
    <glyph glyph-name="uni0030" unicode="3" horiz-adv-x="3093" 
d="M1691 771c-33 0 -52 16 -57 48c-3 14 -3 28 -3 41c0 33 -3 70 4 98c6 29 29 39 53 40c24 0 52 -8 60 -32c11 -28 6 -67 6 -98c0 -18 0 -37 -3 -51c-7 -33 -29 -46 -60 -46zM575 20l4 281h45l34 -176l32 176h48l1 -281h-39l-5 117l-20 -117h-33l-23 114l-2 -114h-42z
M776 20v281h36l47 -134v134h45v-281h-35l-49 138v-138h-44zM935 20v51h48v-51h-48zM1000 119l45 2c0 -16 0 -34 10 -50c4 -7 9 -13 18 -9c8 2 12 11 12 23c0 30 -29 52 -44 70c-9 12 -22 19 -26 29c-11 18 -16 42 -11 66c1 40 48 67 87 49c33 -16 37 -57 37 -90l-43 -2
c-4 18 0 51 -18 54c-22 1 -24 -26 -20 -36c6 -16 17 -23 27 -33l22 -25c26 -26 37 -57 33 -94c-1 -24 -18 -49 -49 -56c-27 -4 -56 7 -68 33c-8 21 -12 44 -12 69zM1041 -196c0 20 11 39 37 34c23 -1 23 -20 23 -37h-14c0 4 1 13 -1 20c-4 10 -19 10 -25 2
c-6 -9 -4 -30 -4 -40c0 -9 -2 -31 6 -41c4 -8 19 -7 23 3c2 7 1 15 1 22h14c0 -19 -2 -43 -27 -43c-41 0 -33 52 -33 80zM1115 -216c0 30 0 59 33 54c33 -1 31 -33 31 -55c0 -25 1 -59 -32 -59c-38 0 -32 37 -32 60zM1117 773v224h48c22 0 43 -3 54 -25
c14 -27 14 -65 -11 -83c-15 -15 -41 -13 -61 -13v-103h-30zM1119 602v140h29v-150c0 -19 -1 -43 19 -54c33 -10 41 24 41 50v71v83h31v-102c0 -39 10 -107 -38 -121c-26 -13 -65 -1 -76 29c-6 15 -6 32 -6 54zM1129 -207c0 -12 -4 -49 8 -54c27 -14 25 23 25 39
c0 12 3 43 -8 47c-17 8 -25 -4 -25 -17v-15zM1147 900c11 0 21 -1 33 2c16 4 19 16 19 31s0 34 -19 39c-12 4 -22 1 -33 1v-73zM1151 161c0 28 -3 56 1 81c4 24 16 48 41 59c21 5 45 5 62 -6c33 -20 31 -63 31 -93h-46c0 49 -2 53 -14 59c-22 3 -26 -17 -26 -38v-102
c0 -15 -6 -53 16 -59c33 -13 28 48 28 63h-28v42h72v-147h-36l-2 9c-18 -16 -50 -16 -69 -3c-20 9 -27 36 -29 57c-4 27 -1 51 -1 78zM1158 -132v113h43v-11h-26v-39h21v-10h-21v-53h-17zM1193 -275v113h18l21 -90l18 90h16l1 -113h-11v83l-18 -83h-13l-18 83v-83h-14z
M1211 -72c0 27 0 56 34 56c32 -5 29 -38 29 -60c0 -25 0 -57 -31 -57c-35 0 -32 35 -32 61zM1227 -69c0 -10 -7 -46 11 -53c20 -5 20 24 20 42c0 11 5 44 -8 49c-12 8 -23 -5 -23 -20v-18zM1250 773v224h85v-24h-55v-73h46v-24h-46v-82h57v-21h-87zM1263 579l31 9
c2 -15 2 -31 11 -40c9 -10 26 -13 34 -3c14 10 11 32 3 44c-7 8 -12 19 -25 25c-13 12 -34 26 -44 43c-17 28 -10 73 26 85c16 3 38 0 54 -9c15 -11 19 -30 19 -48l-24 -9c-1 17 -6 37 -24 40c-15 5 -26 -4 -28 -16c-9 -25 17 -41 35 -57c19 -17 41 -31 44 -60
c8 -34 -15 -67 -51 -67c-37 0 -58 28 -61 63zM1287 -275v113h17l20 -90l19 90h15l2 -113h-10l-2 83l-18 -83h-13l-15 83l-3 -83h-12zM1291 -132v113c13 0 30 3 42 -3c17 -9 21 -47 0 -54l17 -56h-17l-16 53h-12v-53h-14zM1298 -15l75 352h44l-80 -352h-39zM1302 346v118
c15 0 42 4 52 -13c4 -13 4 -35 -4 -43c-11 -9 -20 -7 -33 -7v-55h-15zM1305 -69c15 0 28 3 28 21c0 17 -12 18 -28 18v-39zM1317 411c5 0 14 0 16 2c9 5 9 13 9 23c0 19 -9 19 -25 19v-44zM1360 773v224c30 0 64 3 89 -9c32 -19 35 -89 0 -103l27 -112h-27l-32 104h-23v-104
h-34zM1372 346v118h12v-105h30v-13h-42zM1379 -275v113h45v-11h-28v-34h23v-12h-23v-46h28v-10h-45zM1386 -30v11h60v-11h-22v-102h-17v102h-21zM1394 900c9 0 20 0 31 2c15 7 20 21 18 38c0 11 -3 26 -18 30c-11 6 -22 3 -31 3v-73zM1403 519v223h86v-26h-57v-73h45v-22
h-45v-83h57v-19h-86zM1425 346v118h44v-9h-29v-42h24v-12h-24v-42h29v-13h-44zM1427 118l45 1c0 -16 0 -34 9 -49c1 -8 7 -13 17 -10c10 2 10 12 10 24c0 31 -27 52 -44 69c-8 13 -19 21 -23 29c-14 18 -16 44 -14 66c3 42 51 66 88 49c34 -15 38 -56 38 -89l-45 -3
c0 18 1 51 -17 54c-19 2 -21 -24 -17 -36c5 -15 14 -23 24 -33l23 -24c24 -27 38 -57 34 -94c-2 -25 -20 -50 -49 -57c-27 -4 -56 7 -69 34c-10 21 -10 43 -10 69zM1435 -275v113c17 0 32 5 44 -2c16 -11 18 -46 -2 -53l17 -58h-15l-13 56h-13v-56h-18zM1453 -207
c14 0 24 0 24 15c0 17 -10 19 -24 19v-34zM1453 -132v113h14v-50h32v50h16v-113h-16v53h-32v-53h-14zM1476 346l25 118h18l22 -118h-16l-6 32h-25l-3 -32h-15zM1495 387h24l-11 56zM1495 835l31 9c1 -18 4 -32 12 -40c10 -11 27 -12 37 -3c12 8 9 30 0 43
c-6 6 -12 15 -25 25c-12 12 -31 26 -43 41c-18 31 -12 77 27 84c14 6 38 4 53 -6c14 -9 18 -30 20 -47l-25 -8c-4 15 -7 37 -24 43c-14 0 -28 -7 -31 -20c-3 -26 20 -43 38 -56c17 -19 39 -36 45 -61c7 -35 -15 -68 -52 -68c-39 0 -61 28 -63 64zM1508 -196
c0 20 11 39 36 34c21 -1 23 -20 23 -37h-16c0 4 4 13 -1 20c-2 10 -16 10 -23 2c-8 -9 -3 -30 -3 -40c0 -9 -5 -31 3 -41c7 -8 21 -7 23 3c5 7 1 15 1 22h16c0 -19 -2 -43 -29 -43c-41 0 -30 52 -30 80zM1531 -132v113h44v-11h-27v-39h22v-10h-22v-45h27v-8h-44zM1548 379
l17 6c0 -9 0 -23 7 -26c12 -1 19 3 19 14c0 14 -19 26 -26 36c-15 12 -24 35 -7 49c7 6 20 8 31 4c11 -5 16 -18 16 -29l-14 -2c-9 31 -24 26 -26 13c-4 -13 5 -24 13 -31c11 -9 26 -15 27 -28c6 -20 -5 -39 -27 -39c-17 0 -28 16 -30 33zM1572 608c0 32 -3 67 3 96
c9 26 30 38 55 38c28 0 51 -8 58 -32c13 -28 5 -68 5 -96c0 -20 4 -37 -2 -54c-4 -29 -25 -44 -56 -44s-57 16 -60 46c-3 15 -3 30 -3 46zM1579 18v281h49v-281h-49zM1584 -275v113h16v-113h-16zM1605 588c0 -18 -1 -39 13 -46c10 -4 21 -4 28 0c12 6 17 18 18 28
c2 7 0 18 0 24v81c0 13 2 26 -8 35c-10 6 -21 11 -28 6c-13 0 -18 -6 -23 -18c-4 -22 0 -49 0 -72v-38zM1611 -275l24 113h17l26 -113h-15l-5 30h-24l-6 -30h-17zM1618 346v118h46v-9h-29v-42h23v-12h-23v-42h31v-13h-48zM1624 -132v113h43v-11h-32v-39h23v-10h-23v-53h-11z
M1635 -237h21l-10 55zM1651 18v281h49v-233h58v-48h-107zM1664 841c0 -15 -1 -36 17 -45c6 -3 19 -3 25 0c14 8 16 20 16 30v102c0 13 0 28 -10 38c-7 10 -15 10 -25 7c-11 -1 -17 -7 -21 -22c-8 -18 -2 -48 -2 -70v-40zM1678 -105c-2 7 0 18 0 26v60h12v-50
c0 -14 -5 -55 15 -55c22 0 17 41 17 55v50h14v-51c0 -20 3 -54 -21 -62c-21 -6 -34 5 -37 27zM1688 -275v113h15v-103h30v-10h-45zM1703 464h17l16 -85l18 85h14l-24 -118h-16zM1727 519v223h21l63 -150v150h28v-223h-22l-66 151v-151h-24zM1754 -132v113h17v-105h26v-8h-43
zM1772 -162h14l17 -83l18 83h14l-26 -113h-12zM1780 346v118h17v-118h-17zM1782 18v281h49v-281h-49zM1786 773v224h18l63 -150v150h28v-224h-21l-63 150v-150h-25zM1809 -132v113h16v-105h28v-8h-44zM1812 379l15 6c0 -9 4 -23 12 -26c8 -1 14 3 14 14c3 14 -14 26 -26 36
c-13 12 -24 35 -6 49c10 6 23 8 31 4c10 -5 14 -18 15 -29l-14 -2c-3 31 -18 26 -24 13c-6 -14 8 -23 15 -31c8 -6 22 -15 23 -28c6 -20 -5 -39 -24 -39c-22 0 -29 16 -31 33zM1837 18l51 281h44l48 -281h-47l-9 67h-30l-10 -67h-47zM1847 -275v113h46v-11h-30v-34h25v-12
h-25v-46h30v-10h-46zM1873 519v223h30v-204h54v-19h-84zM1882 346v118h17v-118h-17zM1893 -132l21 113h18l25 -113h-17l-4 28h-22l-8 -28h-13zM1901 125h15l-8 57zM1905 -275v113c14 0 31 5 44 -2c16 -11 16 -47 -4 -54l18 -57h-16l-15 56h-11v-56h-16zM1909 455v9h54v-9
h-19v-109h-13v109h-22zM1914 -93h19l-10 52zM1917 773l48 224h31l47 -224h-29l-11 53h-46l-12 -53h-28zM1921 -207c15 0 24 0 24 15c0 17 -9 19 -24 19v-34zM1962 850h37l-17 101zM1968 -132v113h10l32 -75v75h15v-113h-11l-30 77v-77h-16zM1968 742h28l33 -109l34 109h31
c-10 -32 -21 -63 -31 -96l-15 -44c-5 -10 -2 -22 -2 -30v-53h-31v44c0 10 1 25 0 34c-5 17 -8 29 -16 43zM1975 -242l15 3c0 -6 2 -19 9 -22c11 -5 19 3 19 12c0 12 -19 27 -28 33c-14 14 -22 39 -5 49c11 8 23 10 31 4c11 -4 13 -14 13 -25l-11 -7c-2 9 -2 19 -9 22
c-8 4 -13 0 -17 -6c-6 -13 7 -20 16 -28c8 -10 21 -17 21 -33c7 -18 -2 -36 -22 -36c-21 0 -31 15 -32 34zM1986 18v281h34l48 -134v134h45v-281h-36l-47 138v-138h-44zM2043 -132v113c13 0 35 3 51 -8c11 -9 6 -33 6 -49c0 -17 5 -41 -12 -49c-11 -10 -33 -7 -45 -7z
M2046 -275v113h14v-113h-14zM2059 -124c12 0 21 0 26 19v58c-1 17 -12 17 -26 17v-94zM2066 773v224h32v-203h56v-21h-88zM2077 -216c0 30 0 59 36 54c32 -1 28 -33 28 -55c0 -25 2 -59 -31 -59c-36 0 -33 37 -33 60zM2097 -207c0 -12 -9 -49 4 -54c26 -14 25 23 25 39
c0 12 4 43 -7 47c-18 8 -22 -4 -22 -17v-15zM2110 519v30h31v-30h-31zM2110 742h31l-11 -177h-10zM2137 133v49h60v-49h-60zM2158 -275v113h9l35 -76v76h12v-113h-11l-36 79v-79h-9zM2221 18v281h82c21 0 50 -21 50 -73c0 -26 -8 -60 -33 -77l31 -131h-47l-24 122h-13v-122
h-46zM2267 180h25c16 9 18 79 -10 79h-15v-79zM2359 18l52 281h44l48 -281h-47l-9 67h-30l-10 -67h-48zM2424 125h15l-8 57zM2509 18v281h48v-281h-48zM2581 18v281h48v-233h59v-48h-107z" />
    <glyph glyph-name="uni0030" unicode="2" horiz-adv-x="3093" 
d="M1691 771c-33 0 -52 16 -57 48c-3 14 -3 28 -3 41c0 33 -3 70 4 98c6 29 29 39 53 40c24 0 52 -8 60 -32c11 -28 6 -67 6 -98c0 -18 0 -37 -3 -51c-7 -33 -29 -46 -60 -46zM575 20l4 281h45l34 -176l32 176h48l1 -281h-39l-5 117l-20 -117h-33l-23 114l-2 -114h-42z
M776 20v281h36l47 -134v134h45v-281h-35l-49 138v-138h-44zM935 20v51h48v-51h-48zM1000 119l45 2c0 -16 0 -34 10 -50c4 -7 9 -13 18 -9c8 2 12 11 12 23c0 30 -29 52 -44 70c-9 12 -22 19 -26 29c-11 18 -16 42 -11 66c1 40 48 67 87 49c33 -16 37 -57 37 -90l-43 -2
c-4 18 0 51 -18 54c-22 1 -24 -26 -20 -36c6 -16 17 -23 27 -33l22 -25c26 -26 37 -57 33 -94c-1 -24 -18 -49 -49 -56c-27 -4 -56 7 -68 33c-8 21 -12 44 -12 69zM1041 -196c0 20 11 39 37 34c23 -1 23 -20 23 -37h-14c0 4 1 13 -1 20c-4 10 -19 10 -25 2
c-6 -9 -4 -30 -4 -40c0 -9 -2 -31 6 -41c4 -8 19 -7 23 3c2 7 1 15 1 22h14c0 -19 -2 -43 -27 -43c-41 0 -33 52 -33 80zM1115 -216c0 30 0 59 33 54c33 -1 31 -33 31 -55c0 -25 1 -59 -32 -59c-38 0 -32 37 -32 60zM1117 773v224h48c22 0 43 -3 54 -25
c14 -27 14 -65 -11 -83c-15 -15 -41 -13 -61 -13v-103h-30zM1119 602v140h29v-150c0 -19 -1 -43 19 -54c33 -10 41 24 41 50v71v83h31v-102c0 -39 10 -107 -38 -121c-26 -13 -65 -1 -76 29c-6 15 -6 32 -6 54zM1129 -207c0 -12 -4 -49 8 -54c27 -14 25 23 25 39
c0 12 3 43 -8 47c-17 8 -25 -4 -25 -17v-15zM1147 900c11 0 21 -1 33 2c16 4 19 16 19 31s0 34 -19 39c-12 4 -22 1 -33 1v-73zM1151 161c0 28 -3 56 1 81c4 24 16 48 41 59c21 5 45 5 62 -6c33 -20 31 -63 31 -93h-46c0 49 -2 53 -14 59c-22 3 -26 -17 -26 -38v-102
c0 -15 -6 -53 16 -59c33 -13 28 48 28 63h-28v42h72v-147h-36l-2 9c-18 -16 -50 -16 -69 -3c-20 9 -27 36 -29 57c-4 27 -1 51 -1 78zM1158 -132v113h43v-11h-26v-39h21v-10h-21v-53h-17zM1193 -275v113h18l21 -90l18 90h16l1 -113h-11v83l-18 -83h-13l-18 83v-83h-14z
M1211 -72c0 27 0 56 34 56c32 -5 29 -38 29 -60c0 -25 0 -57 -31 -57c-35 0 -32 35 -32 61zM1227 -69c0 -10 -7 -46 11 -53c20 -5 20 24 20 42c0 11 5 44 -8 49c-12 8 -23 -5 -23 -20v-18zM1250 773v224h85v-24h-55v-73h46v-24h-46v-82h57v-21h-87zM1263 579l31 9
c2 -15 2 -31 11 -40c9 -10 26 -13 34 -3c14 10 11 32 3 44c-7 8 -12 19 -25 25c-13 12 -34 26 -44 43c-17 28 -10 73 26 85c16 3 38 0 54 -9c15 -11 19 -30 19 -48l-24 -9c-1 17 -6 37 -24 40c-15 5 -26 -4 -28 -16c-9 -25 17 -41 35 -57c19 -17 41 -31 44 -60
c8 -34 -15 -67 -51 -67c-37 0 -58 28 -61 63zM1287 -275v113h17l20 -90l19 90h15l2 -113h-10l-2 83l-18 -83h-13l-15 83l-3 -83h-12zM1291 -132v113c13 0 30 3 42 -3c17 -9 21 -47 0 -54l17 -56h-17l-16 53h-12v-53h-14zM1298 -15l75 352h44l-80 -352h-39zM1302 346v118
c15 0 42 4 52 -13c4 -13 4 -35 -4 -43c-11 -9 -20 -7 -33 -7v-55h-15zM1305 -69c15 0 28 3 28 21c0 17 -12 18 -28 18v-39zM1317 411c5 0 14 0 16 2c9 5 9 13 9 23c0 19 -9 19 -25 19v-44zM1360 773v224c30 0 64 3 89 -9c32 -19 35 -89 0 -103l27 -112h-27l-32 104h-23v-104
h-34zM1372 346v118h12v-105h30v-13h-42zM1379 -275v113h45v-11h-28v-34h23v-12h-23v-46h28v-10h-45zM1386 -30v11h60v-11h-22v-102h-17v102h-21zM1394 900c9 0 20 0 31 2c15 7 20 21 18 38c0 11 -3 26 -18 30c-11 6 -22 3 -31 3v-73zM1403 519v223h86v-26h-57v-73h45v-22
h-45v-83h57v-19h-86zM1425 346v118h44v-9h-29v-42h24v-12h-24v-42h29v-13h-44zM1427 118l45 1c0 -16 0 -34 9 -49c1 -8 7 -13 17 -10c10 2 10 12 10 24c0 31 -27 52 -44 69c-8 13 -19 21 -23 29c-14 18 -16 44 -14 66c3 42 51 66 88 49c34 -15 38 -56 38 -89l-45 -3
c0 18 1 51 -17 54c-19 2 -21 -24 -17 -36c5 -15 14 -23 24 -33l23 -24c24 -27 38 -57 34 -94c-2 -25 -20 -50 -49 -57c-27 -4 -56 7 -69 34c-10 21 -10 43 -10 69zM1435 -275v113c17 0 32 5 44 -2c16 -11 18 -46 -2 -53l17 -58h-15l-13 56h-13v-56h-18zM1453 -207
c14 0 24 0 24 15c0 17 -10 19 -24 19v-34zM1453 -132v113h14v-50h32v50h16v-113h-16v53h-32v-53h-14zM1476 346l25 118h18l22 -118h-16l-6 32h-25l-3 -32h-15zM1495 387h24l-11 56zM1495 835l31 9c1 -18 4 -32 12 -40c10 -11 27 -12 37 -3c12 8 9 30 0 43
c-6 6 -12 15 -25 25c-12 12 -31 26 -43 41c-18 31 -12 77 27 84c14 6 38 4 53 -6c14 -9 18 -30 20 -47l-25 -8c-4 15 -7 37 -24 43c-14 0 -28 -7 -31 -20c-3 -26 20 -43 38 -56c17 -19 39 -36 45 -61c7 -35 -15 -68 -52 -68c-39 0 -61 28 -63 64zM1508 -196
c0 20 11 39 36 34c21 -1 23 -20 23 -37h-16c0 4 4 13 -1 20c-2 10 -16 10 -23 2c-8 -9 -3 -30 -3 -40c0 -9 -5 -31 3 -41c7 -8 21 -7 23 3c5 7 1 15 1 22h16c0 -19 -2 -43 -29 -43c-41 0 -30 52 -30 80zM1531 -132v113h44v-11h-27v-39h22v-10h-22v-45h27v-8h-44zM1548 379
l17 6c0 -9 0 -23 7 -26c12 -1 19 3 19 14c0 14 -19 26 -26 36c-15 12 -24 35 -7 49c7 6 20 8 31 4c11 -5 16 -18 16 -29l-14 -2c-9 31 -24 26 -26 13c-4 -13 5 -24 13 -31c11 -9 26 -15 27 -28c6 -20 -5 -39 -27 -39c-17 0 -28 16 -30 33zM1572 608c0 32 -3 67 3 96
c9 26 30 38 55 38c28 0 51 -8 58 -32c13 -28 5 -68 5 -96c0 -20 4 -37 -2 -54c-4 -29 -25 -44 -56 -44s-57 16 -60 46c-3 15 -3 30 -3 46zM1579 18v281h49v-281h-49zM1584 -275v113h16v-113h-16zM1605 588c0 -18 -1 -39 13 -46c10 -4 21 -4 28 0c12 6 17 18 18 28
c2 7 0 18 0 24v81c0 13 2 26 -8 35c-10 6 -21 11 -28 6c-13 0 -18 -6 -23 -18c-4 -22 0 -49 0 -72v-38zM1611 -275l24 113h17l26 -113h-15l-5 30h-24l-6 -30h-17zM1618 346v118h46v-9h-29v-42h23v-12h-23v-42h31v-13h-48zM1624 -132v113h43v-11h-32v-39h23v-10h-23v-53h-11z
M1635 -237h21l-10 55zM1651 18v281h49v-233h58v-48h-107zM1664 841c0 -15 -1 -36 17 -45c6 -3 19 -3 25 0c14 8 16 20 16 30v102c0 13 0 28 -10 38c-7 10 -15 10 -25 7c-11 -1 -17 -7 -21 -22c-8 -18 -2 -48 -2 -70v-40zM1678 -105c-2 7 0 18 0 26v60h12v-50
c0 -14 -5 -55 15 -55c22 0 17 41 17 55v50h14v-51c0 -20 3 -54 -21 -62c-21 -6 -34 5 -37 27zM1688 -275v113h15v-103h30v-10h-45zM1703 464h17l16 -85l18 85h14l-24 -118h-16zM1727 519v223h21l63 -150v150h28v-223h-22l-66 151v-151h-24zM1754 -132v113h17v-105h26v-8h-43
zM1772 -162h14l17 -83l18 83h14l-26 -113h-12zM1780 346v118h17v-118h-17zM1782 18v281h49v-281h-49zM1786 773v224h18l63 -150v150h28v-224h-21l-63 150v-150h-25zM1809 -132v113h16v-105h28v-8h-44zM1812 379l15 6c0 -9 4 -23 12 -26c8 -1 14 3 14 14c3 14 -14 26 -26 36
c-13 12 -24 35 -6 49c10 6 23 8 31 4c10 -5 14 -18 15 -29l-14 -2c-3 31 -18 26 -24 13c-6 -14 8 -23 15 -31c8 -6 22 -15 23 -28c6 -20 -5 -39 -24 -39c-22 0 -29 16 -31 33zM1837 18l51 281h44l48 -281h-47l-9 67h-30l-10 -67h-47zM1847 -275v113h46v-11h-30v-34h25v-12
h-25v-46h30v-10h-46zM1873 519v223h30v-204h54v-19h-84zM1882 346v118h17v-118h-17zM1893 -132l21 113h18l25 -113h-17l-4 28h-22l-8 -28h-13zM1901 125h15l-8 57zM1905 -275v113c14 0 31 5 44 -2c16 -11 16 -47 -4 -54l18 -57h-16l-15 56h-11v-56h-16zM1909 455v9h54v-9
h-19v-109h-13v109h-22zM1914 -93h19l-10 52zM1917 773l48 224h31l47 -224h-29l-11 53h-46l-12 -53h-28zM1921 -207c15 0 24 0 24 15c0 17 -9 19 -24 19v-34zM1962 850h37l-17 101zM1968 -132v113h10l32 -75v75h15v-113h-11l-30 77v-77h-16zM1968 742h28l33 -109l34 109h31
c-10 -32 -21 -63 -31 -96l-15 -44c-5 -10 -2 -22 -2 -30v-53h-31v44c0 10 1 25 0 34c-5 17 -8 29 -16 43zM1975 -242l15 3c0 -6 2 -19 9 -22c11 -5 19 3 19 12c0 12 -19 27 -28 33c-14 14 -22 39 -5 49c11 8 23 10 31 4c11 -4 13 -14 13 -25l-11 -7c-2 9 -2 19 -9 22
c-8 4 -13 0 -17 -6c-6 -13 7 -20 16 -28c8 -10 21 -17 21 -33c7 -18 -2 -36 -22 -36c-21 0 -31 15 -32 34zM1986 18v281h34l48 -134v134h45v-281h-36l-47 138v-138h-44zM2043 -132v113c13 0 35 3 51 -8c11 -9 6 -33 6 -49c0 -17 5 -41 -12 -49c-11 -10 -33 -7 -45 -7z
M2046 -275v113h14v-113h-14zM2059 -124c12 0 21 0 26 19v58c-1 17 -12 17 -26 17v-94zM2066 773v224h32v-203h56v-21h-88zM2077 -216c0 30 0 59 36 54c32 -1 28 -33 28 -55c0 -25 2 -59 -31 -59c-36 0 -33 37 -33 60zM2097 -207c0 -12 -9 -49 4 -54c26 -14 25 23 25 39
c0 12 4 43 -7 47c-18 8 -22 -4 -22 -17v-15zM2110 519v30h31v-30h-31zM2110 742h31l-11 -177h-10zM2137 133v49h60v-49h-60zM2158 -275v113h9l35 -76v76h12v-113h-11l-36 79v-79h-9zM2221 18v281h82c21 0 50 -21 50 -73c0 -26 -8 -60 -33 -77l31 -131h-47l-24 122h-13v-122
h-46zM2267 180h25c16 9 18 79 -10 79h-15v-79zM2359 18l52 281h44l48 -281h-47l-9 67h-30l-10 -67h-48zM2424 125h15l-8 57zM2509 18v281h48v-281h-48zM2581 18v281h48v-233h59v-48h-107z" />
    <glyph glyph-name="uni0030" unicode="1" horiz-adv-x="3093" 
d="M1691 771c-33 0 -52 16 -57 48c-3 14 -3 28 -3 41c0 33 -3 70 4 98c6 29 29 39 53 40c24 0 52 -8 60 -32c11 -28 6 -67 6 -98c0 -18 0 -37 -3 -51c-7 -33 -29 -46 -60 -46zM575 20l4 281h45l34 -176l32 176h48l1 -281h-39l-5 117l-20 -117h-33l-23 114l-2 -114h-42z
M776 20v281h36l47 -134v134h45v-281h-35l-49 138v-138h-44zM935 20v51h48v-51h-48zM1000 119l45 2c0 -16 0 -34 10 -50c4 -7 9 -13 18 -9c8 2 12 11 12 23c0 30 -29 52 -44 70c-9 12 -22 19 -26 29c-11 18 -16 42 -11 66c1 40 48 67 87 49c33 -16 37 -57 37 -90l-43 -2
c-4 18 0 51 -18 54c-22 1 -24 -26 -20 -36c6 -16 17 -23 27 -33l22 -25c26 -26 37 -57 33 -94c-1 -24 -18 -49 -49 -56c-27 -4 -56 7 -68 33c-8 21 -12 44 -12 69zM1041 -196c0 20 11 39 37 34c23 -1 23 -20 23 -37h-14c0 4 1 13 -1 20c-4 10 -19 10 -25 2
c-6 -9 -4 -30 -4 -40c0 -9 -2 -31 6 -41c4 -8 19 -7 23 3c2 7 1 15 1 22h14c0 -19 -2 -43 -27 -43c-41 0 -33 52 -33 80zM1115 -216c0 30 0 59 33 54c33 -1 31 -33 31 -55c0 -25 1 -59 -32 -59c-38 0 -32 37 -32 60zM1117 773v224h48c22 0 43 -3 54 -25
c14 -27 14 -65 -11 -83c-15 -15 -41 -13 -61 -13v-103h-30zM1119 602v140h29v-150c0 -19 -1 -43 19 -54c33 -10 41 24 41 50v71v83h31v-102c0 -39 10 -107 -38 -121c-26 -13 -65 -1 -76 29c-6 15 -6 32 -6 54zM1129 -207c0 -12 -4 -49 8 -54c27 -14 25 23 25 39
c0 12 3 43 -8 47c-17 8 -25 -4 -25 -17v-15zM1147 900c11 0 21 -1 33 2c16 4 19 16 19 31s0 34 -19 39c-12 4 -22 1 -33 1v-73zM1151 161c0 28 -3 56 1 81c4 24 16 48 41 59c21 5 45 5 62 -6c33 -20 31 -63 31 -93h-46c0 49 -2 53 -14 59c-22 3 -26 -17 -26 -38v-102
c0 -15 -6 -53 16 -59c33 -13 28 48 28 63h-28v42h72v-147h-36l-2 9c-18 -16 -50 -16 -69 -3c-20 9 -27 36 -29 57c-4 27 -1 51 -1 78zM1158 -132v113h43v-11h-26v-39h21v-10h-21v-53h-17zM1193 -275v113h18l21 -90l18 90h16l1 -113h-11v83l-18 -83h-13l-18 83v-83h-14z
M1211 -72c0 27 0 56 34 56c32 -5 29 -38 29 -60c0 -25 0 -57 -31 -57c-35 0 -32 35 -32 61zM1227 -69c0 -10 -7 -46 11 -53c20 -5 20 24 20 42c0 11 5 44 -8 49c-12 8 -23 -5 -23 -20v-18zM1250 773v224h85v-24h-55v-73h46v-24h-46v-82h57v-21h-87zM1263 579l31 9
c2 -15 2 -31 11 -40c9 -10 26 -13 34 -3c14 10 11 32 3 44c-7 8 -12 19 -25 25c-13 12 -34 26 -44 43c-17 28 -10 73 26 85c16 3 38 0 54 -9c15 -11 19 -30 19 -48l-24 -9c-1 17 -6 37 -24 40c-15 5 -26 -4 -28 -16c-9 -25 17 -41 35 -57c19 -17 41 -31 44 -60
c8 -34 -15 -67 -51 -67c-37 0 -58 28 -61 63zM1287 -275v113h17l20 -90l19 90h15l2 -113h-10l-2 83l-18 -83h-13l-15 83l-3 -83h-12zM1291 -132v113c13 0 30 3 42 -3c17 -9 21 -47 0 -54l17 -56h-17l-16 53h-12v-53h-14zM1298 -15l75 352h44l-80 -352h-39zM1302 346v118
c15 0 42 4 52 -13c4 -13 4 -35 -4 -43c-11 -9 -20 -7 -33 -7v-55h-15zM1305 -69c15 0 28 3 28 21c0 17 -12 18 -28 18v-39zM1317 411c5 0 14 0 16 2c9 5 9 13 9 23c0 19 -9 19 -25 19v-44zM1360 773v224c30 0 64 3 89 -9c32 -19 35 -89 0 -103l27 -112h-27l-32 104h-23v-104
h-34zM1372 346v118h12v-105h30v-13h-42zM1379 -275v113h45v-11h-28v-34h23v-12h-23v-46h28v-10h-45zM1386 -30v11h60v-11h-22v-102h-17v102h-21zM1394 900c9 0 20 0 31 2c15 7 20 21 18 38c0 11 -3 26 -18 30c-11 6 -22 3 -31 3v-73zM1403 519v223h86v-26h-57v-73h45v-22
h-45v-83h57v-19h-86zM1425 346v118h44v-9h-29v-42h24v-12h-24v-42h29v-13h-44zM1427 118l45 1c0 -16 0 -34 9 -49c1 -8 7 -13 17 -10c10 2 10 12 10 24c0 31 -27 52 -44 69c-8 13 -19 21 -23 29c-14 18 -16 44 -14 66c3 42 51 66 88 49c34 -15 38 -56 38 -89l-45 -3
c0 18 1 51 -17 54c-19 2 -21 -24 -17 -36c5 -15 14 -23 24 -33l23 -24c24 -27 38 -57 34 -94c-2 -25 -20 -50 -49 -57c-27 -4 -56 7 -69 34c-10 21 -10 43 -10 69zM1435 -275v113c17 0 32 5 44 -2c16 -11 18 -46 -2 -53l17 -58h-15l-13 56h-13v-56h-18zM1453 -207
c14 0 24 0 24 15c0 17 -10 19 -24 19v-34zM1453 -132v113h14v-50h32v50h16v-113h-16v53h-32v-53h-14zM1476 346l25 118h18l22 -118h-16l-6 32h-25l-3 -32h-15zM1495 387h24l-11 56zM1495 835l31 9c1 -18 4 -32 12 -40c10 -11 27 -12 37 -3c12 8 9 30 0 43
c-6 6 -12 15 -25 25c-12 12 -31 26 -43 41c-18 31 -12 77 27 84c14 6 38 4 53 -6c14 -9 18 -30 20 -47l-25 -8c-4 15 -7 37 -24 43c-14 0 -28 -7 -31 -20c-3 -26 20 -43 38 -56c17 -19 39 -36 45 -61c7 -35 -15 -68 -52 -68c-39 0 -61 28 -63 64zM1508 -196
c0 20 11 39 36 34c21 -1 23 -20 23 -37h-16c0 4 4 13 -1 20c-2 10 -16 10 -23 2c-8 -9 -3 -30 -3 -40c0 -9 -5 -31 3 -41c7 -8 21 -7 23 3c5 7 1 15 1 22h16c0 -19 -2 -43 -29 -43c-41 0 -30 52 -30 80zM1531 -132v113h44v-11h-27v-39h22v-10h-22v-45h27v-8h-44zM1548 379
l17 6c0 -9 0 -23 7 -26c12 -1 19 3 19 14c0 14 -19 26 -26 36c-15 12 -24 35 -7 49c7 6 20 8 31 4c11 -5 16 -18 16 -29l-14 -2c-9 31 -24 26 -26 13c-4 -13 5 -24 13 -31c11 -9 26 -15 27 -28c6 -20 -5 -39 -27 -39c-17 0 -28 16 -30 33zM1572 608c0 32 -3 67 3 96
c9 26 30 38 55 38c28 0 51 -8 58 -32c13 -28 5 -68 5 -96c0 -20 4 -37 -2 -54c-4 -29 -25 -44 -56 -44s-57 16 -60 46c-3 15 -3 30 -3 46zM1579 18v281h49v-281h-49zM1584 -275v113h16v-113h-16zM1605 588c0 -18 -1 -39 13 -46c10 -4 21 -4 28 0c12 6 17 18 18 28
c2 7 0 18 0 24v81c0 13 2 26 -8 35c-10 6 -21 11 -28 6c-13 0 -18 -6 -23 -18c-4 -22 0 -49 0 -72v-38zM1611 -275l24 113h17l26 -113h-15l-5 30h-24l-6 -30h-17zM1618 346v118h46v-9h-29v-42h23v-12h-23v-42h31v-13h-48zM1624 -132v113h43v-11h-32v-39h23v-10h-23v-53h-11z
M1635 -237h21l-10 55zM1651 18v281h49v-233h58v-48h-107zM1664 841c0 -15 -1 -36 17 -45c6 -3 19 -3 25 0c14 8 16 20 16 30v102c0 13 0 28 -10 38c-7 10 -15 10 -25 7c-11 -1 -17 -7 -21 -22c-8 -18 -2 -48 -2 -70v-40zM1678 -105c-2 7 0 18 0 26v60h12v-50
c0 -14 -5 -55 15 -55c22 0 17 41 17 55v50h14v-51c0 -20 3 -54 -21 -62c-21 -6 -34 5 -37 27zM1688 -275v113h15v-103h30v-10h-45zM1703 464h17l16 -85l18 85h14l-24 -118h-16zM1727 519v223h21l63 -150v150h28v-223h-22l-66 151v-151h-24zM1754 -132v113h17v-105h26v-8h-43
zM1772 -162h14l17 -83l18 83h14l-26 -113h-12zM1780 346v118h17v-118h-17zM1782 18v281h49v-281h-49zM1786 773v224h18l63 -150v150h28v-224h-21l-63 150v-150h-25zM1809 -132v113h16v-105h28v-8h-44zM1812 379l15 6c0 -9 4 -23 12 -26c8 -1 14 3 14 14c3 14 -14 26 -26 36
c-13 12 -24 35 -6 49c10 6 23 8 31 4c10 -5 14 -18 15 -29l-14 -2c-3 31 -18 26 -24 13c-6 -14 8 -23 15 -31c8 -6 22 -15 23 -28c6 -20 -5 -39 -24 -39c-22 0 -29 16 -31 33zM1837 18l51 281h44l48 -281h-47l-9 67h-30l-10 -67h-47zM1847 -275v113h46v-11h-30v-34h25v-12
h-25v-46h30v-10h-46zM1873 519v223h30v-204h54v-19h-84zM1882 346v118h17v-118h-17zM1893 -132l21 113h18l25 -113h-17l-4 28h-22l-8 -28h-13zM1901 125h15l-8 57zM1905 -275v113c14 0 31 5 44 -2c16 -11 16 -47 -4 -54l18 -57h-16l-15 56h-11v-56h-16zM1909 455v9h54v-9
h-19v-109h-13v109h-22zM1914 -93h19l-10 52zM1917 773l48 224h31l47 -224h-29l-11 53h-46l-12 -53h-28zM1921 -207c15 0 24 0 24 15c0 17 -9 19 -24 19v-34zM1962 850h37l-17 101zM1968 -132v113h10l32 -75v75h15v-113h-11l-30 77v-77h-16zM1968 742h28l33 -109l34 109h31
c-10 -32 -21 -63 -31 -96l-15 -44c-5 -10 -2 -22 -2 -30v-53h-31v44c0 10 1 25 0 34c-5 17 -8 29 -16 43zM1975 -242l15 3c0 -6 2 -19 9 -22c11 -5 19 3 19 12c0 12 -19 27 -28 33c-14 14 -22 39 -5 49c11 8 23 10 31 4c11 -4 13 -14 13 -25l-11 -7c-2 9 -2 19 -9 22
c-8 4 -13 0 -17 -6c-6 -13 7 -20 16 -28c8 -10 21 -17 21 -33c7 -18 -2 -36 -22 -36c-21 0 -31 15 -32 34zM1986 18v281h34l48 -134v134h45v-281h-36l-47 138v-138h-44zM2043 -132v113c13 0 35 3 51 -8c11 -9 6 -33 6 -49c0 -17 5 -41 -12 -49c-11 -10 -33 -7 -45 -7z
M2046 -275v113h14v-113h-14zM2059 -124c12 0 21 0 26 19v58c-1 17 -12 17 -26 17v-94zM2066 773v224h32v-203h56v-21h-88zM2077 -216c0 30 0 59 36 54c32 -1 28 -33 28 -55c0 -25 2 -59 -31 -59c-36 0 -33 37 -33 60zM2097 -207c0 -12 -9 -49 4 -54c26 -14 25 23 25 39
c0 12 4 43 -7 47c-18 8 -22 -4 -22 -17v-15zM2110 519v30h31v-30h-31zM2110 742h31l-11 -177h-10zM2137 133v49h60v-49h-60zM2158 -275v113h9l35 -76v76h12v-113h-11l-36 79v-79h-9zM2221 18v281h82c21 0 50 -21 50 -73c0 -26 -8 -60 -33 -77l31 -131h-47l-24 122h-13v-122
h-46zM2267 180h25c16 9 18 79 -10 79h-15v-79zM2359 18l52 281h44l48 -281h-47l-9 67h-30l-10 -67h-48zM2424 125h15l-8 57zM2509 18v281h48v-281h-48zM2581 18v281h48v-233h59v-48h-107z" />
    <glyph glyph-name="at" unicode="@" horiz-adv-x="675" 
d="M468 256c58 8 87 65 83 160c-5 89 -45 138 -99 138c-55 0 -91 -52 -88 -150c3 -94 44 -154 104 -148zM-23 401c5 250 180 418 363 418c213 0 331 -146 331 -332c0 -174 -106 -293 -256 -293c-106 0 -176 86 -178 205c-2 120 79 212 182 212c50 0 93 -12 133 -32
c-5 91 -77 181 -201 181c-125 0 -235 -142 -232 -359c3 -227 115 -337 222 -337c51 0 90 16 118 32c16 10 29 10 40 -2c10 -11 8 -24 -8 -37c-47 -35 -106 -59 -197 -59c-181 0 -322 171 -317 403z" />
    <glyph glyph-name="ampersand" unicode="&#x26;" horiz-adv-x="1140" 
d="M312 -2c-148 -7 -270 93 -264 228c5 100 89 181 205 264c-60 40 -95 77 -100 123c-9 83 91 200 243 206c97 4 159 -47 155 -134c-2 -57 -54 -102 -133 -156c122 -66 191 -129 255 -199l116 165c23 36 16 59 -18 66l-21 5c-16 4 -25 13 -28 29c-2 13 9 22 29 22h259
c21 0 32 -7 29 -22c-3 -16 -13 -24 -30 -27l-14 -3c-63 -10 -94 -31 -145 -101l-136 -181c35 -44 81 -100 133 -144c51 -44 131 -45 190 -6c16 10 28 13 38 3c0 0 11 -24 0 -38c-77 -98 -219 -132 -324 -66c-58 37 -84 71 -127 126c-78 -81 -174 -154 -312 -160zM189 272
c2 -81 83 -157 188 -157c81 0 156 35 210 89c-63 75 -175 181 -281 253c-74 -52 -118 -104 -117 -185zM364 762c-96 0 -110 -145 8 -189c102 90 56 189 -8 189z" />
    <glyph glyph-name="paragraph" unicode="&#xb6;" horiz-adv-x="650" 
d="M197 810h46c19 0 30 -11 30 -30v-942c0 -19 -11 -30 -30 -30h-8c-19 0 -30 11 -30 30v642c-110 -4 -172 70 -172 165c0 93 59 165 164 165zM479 -192c-19 0 -30 11 -30 30v942c0 19 11 30 30 30h8c19 0 30 -11 30 -30v-942c0 -19 -11 -30 -30 -30h-8z" />
    <glyph glyph-name="section" unicode="&#xa7;" horiz-adv-x="418" 
d="M59 31c-16 7 -23 18 -23 35v70c0 19 3 30 8 30s10 -8 16 -25c23 -66 67 -102 138 -102c131 0 174 150 -9 206c-95 30 -151 87 -142 175c4 39 26 78 69 108c-50 34 -75 80 -69 142c8 73 80 151 213 151c20 0 42 -3 66 -7c19 -4 27 -16 24 -35l-9 -62
c-3 -19 -9 -29 -17 -27c-8 1 -12 11 -15 29c-7 41 -35 64 -90 64c-66 0 -115 -47 -105 -101c13 -64 62 -73 168 -118c126 -54 128 -200 40 -273c116 -91 59 -290 -119 -290c-65 0 -111 17 -144 30zM114 432c13 -64 62 -73 170 -119c3 1 1 -2 6 -1c63 43 44 139 -101 183
c-15 4 -29 10 -42 15c-24 -18 -39 -47 -33 -78z" />
    <glyph glyph-name="copyright" unicode="&#xa9;" horiz-adv-x="918" 
d="M459 -2c-228 0 -411 182 -411 411s183 411 411 411c229 0 411 -182 411 -411s-182 -411 -411 -411zM91 409c0 -204 165 -368 368 -368c204 0 368 164 368 368s-164 368 -368 368c-203 0 -368 -164 -368 -368zM202 413c0 160 142 265 276 265c59 0 109 -11 150 -30
c15 -7 21 -19 21 -35v-55c0 -19 -4 -30 -11 -30c-8 0 -12 9 -18 26c-19 59 -73 90 -152 90c-108 0 -180 -81 -180 -231c0 -117 78 -221 192 -221c57 0 101 32 137 76c11 15 19 22 24 19c4 -2 5 -12 0 -30l-11 -42c-4 -16 -12 -24 -26 -30c-37 -15 -90 -26 -140 -26
c-140 0 -262 95 -262 254z" />
    <glyph glyph-name="registered" unicode="&#xae;" horiz-adv-x="918" 
d="M459 -2c-228 0 -411 182 -411 411s183 411 411 411c229 0 411 -182 411 -411s-182 -411 -411 -411zM91 409c0 -204 165 -368 368 -368c204 0 368 164 368 368s-164 368 -368 368c-203 0 -368 -164 -368 -368zM306 165c-20 0 -32 4 -31 11s10 13 27 16v0c20 4 27 22 27 37
v378c0 14 -6 33 -27 37v0c-17 3 -26 9 -27 16s11 11 31 11h150c28 0 60 -3 87 -9c13 -3 22 -8 32 -17c29 -27 48 -64 48 -110c0 -68 -41 -111 -101 -132l106 -163c14 -22 30 -35 44 -44c14 -8 22 -12 23 -17s-10 -11 -29 -13l-59 -7c-17 -2 -29 4 -37 19l-120 211h-16
c-13 0 -26 2 -33 3v-163c0 -15 7 -33 28 -37v0c17 -3 26 -9 27 -16s-11 -11 -31 -11h-119zM401 455c0 -31 15 -38 36 -38c57 0 108 21 108 109c0 75 -47 112 -98 112h-17c-18 0 -29 -17 -29 -38v-145z" />
    <glyph glyph-name="trademark" unicode="&#x2122;" horiz-adv-x="1347" 
d="M235 299c-20 0 -32 4 -31 11s10 12 26 16l3 1c24 4 30 23 30 37v375c0 14 -8 37 -31 37h-93c-35 0 -62 -20 -81 -63c-2 -4 -6 -4 -11 -1s-6 13 -2 30l15 64c4 19 10 27 17 26s9 -9 21 -17c6 -3 12 -5 19 -5h401c8 0 16 2 23 6c15 8 23 15 28 12c6 -4 6 -13 2 -30l-17 -74
c-4 -18 -11 -28 -17 -27s-10 2 -10 3c5 39 -16 76 -60 76h-93c-22 0 -31 -23 -31 -37v-375c0 -14 5 -32 29 -37l3 -1c16 -4 26 -9 27 -16s-11 -11 -31 -11h-136zM595 299c-20 0 -32 4 -31 11s10 13 26 17l16 4c25 6 36 19 38 45l37 355c-1 24 -13 45 -41 51h-2
c-17 3 -26 10 -27 17s11 11 31 11h97c17 0 29 -8 35 -23l150 -362l169 363c7 16 18 22 35 22h95c20 0 33 -4 32 -9c-1 -7 -10 -8 -27 -12c-28 -7 -48 -26 -48 -69l20 -344c2 -26 14 -39 39 -45l15 -3c16 -4 25 -10 26 -17s-11 -12 -31 -12h-154c-20 0 -32 4 -31 11
s8 13 22 16c25 4 34 20 32 40l-21 344l-182 -389c-7 -16 -13 -22 -21 -22s-15 8 -22 23l-164 374l-25 -330c-2 -20 7 -36 31 -40c14 -4 21 -9 22 -16s-11 -11 -31 -11h-110z" />
    <glyph glyph-name="degree" unicode="&#xb0;" horiz-adv-x="600" 
d="M236 482c-93 0 -165 72 -165 165c0 92 72 164 165 164c92 0 164 -72 164 -164c0 -93 -72 -165 -164 -165zM133 646c0 -58 47 -105 105 -105c57 0 104 47 104 105c0 57 -47 104 -104 104c-58 0 -105 -47 -105 -104z" />
    <glyph glyph-name="bar" unicode="|" horiz-adv-x="334" 
d="M133 780c0 19 11 30 30 30h8c19 0 30 -11 30 -30v-942c0 -19 -11 -30 -30 -30h-8c-19 0 -30 11 -30 30v942z" />
    <glyph glyph-name="brokenbar" unicode="&#xa6;" horiz-adv-x="334" 
d="M163 365c-19 0 -30 11 -30 30v385c0 19 11 30 30 30h8c19 0 30 -11 30 -30v-385c0 -19 -11 -30 -30 -30h-8zM163 -192c-19 0 -30 11 -30 30v385c0 19 11 30 30 30h8c19 0 30 -11 30 -30v-385c0 -19 -11 -30 -30 -30h-8z" />
    <glyph glyph-name="dagger" unicode="&#x2020;" horiz-adv-x="726" 
d="M327 780c0 19 11 30 30 30h8c19 0 30 -11 30 -30v-219h173c19 0 30 -11 30 -30v-9c0 -19 -11 -30 -30 -30h-173v-654c0 -19 -11 -30 -30 -30h-8c-19 0 -30 11 -30 30v654h-169c-19 0 -30 11 -30 30v9c0 19 11 30 30 30h169v219z" />
    <glyph glyph-name="daggerdbl" unicode="&#x2021;" horiz-adv-x="726" 
d="M327 780c0 19 11 30 30 30h8c19 0 30 -11 30 -30v-219h173c19 0 30 -11 30 -30v-9c0 -19 -11 -30 -30 -30h-173v-346h173c19 0 30 -11 30 -30v-9c0 -19 -11 -30 -30 -30h-173v-239c0 -19 -11 -30 -30 -30h-8c-19 0 -30 11 -30 30v239h-169c-19 0 -30 11 -30 30v9
c0 19 11 30 30 30h169v346h-169c-19 0 -30 11 -30 30v9c0 19 11 30 30 30h169v219z" />
    <glyph glyph-name="cent" unicode="&#xa2;" horiz-adv-x="603" 
d="M382 682c2 18 11 28 25 28s21 -11 19 -32l-12 -108c51 -5 94 -16 131 -33c16 -7 22 -19 22 -35v-66c0 -19 -5 -30 -14 -30c-10 0 -16 9 -21 26c-17 51 -60 84 -122 96l-51 -488c72 -3 127 34 170 86c12 14 21 20 27 17c6 -4 7 -13 2 -31l-14 -50c-4 -16 -12 -25 -26 -31
c-42 -16 -104 -28 -163 -30l-12 -112c-2 -18 -11 -28 -25 -28s-21 11 -19 32l12 110c-151 14 -275 116 -275 278c0 177 174 294 334 291zM141 281c0 -110 68 -211 174 -235l52 487h-15c-126 0 -211 -88 -211 -252z" />
    <glyph glyph-name="currency" unicode="&#xa4;" horiz-adv-x="680" 
d="M352 225c69 5 117 62 109 159c-7 73 -61 135 -130 135c-61 0 -118 -54 -113 -150c5 -75 57 -150 134 -144zM131 160c-13 13 -13 28 1 41l47 46c-26 31 -42 71 -40 122c1 46 18 84 45 117l-52 51c-14 13 -14 28 -1 41s27 13 41 -1l53 -53c37 26 81 41 125 41
s83 -12 114 -32l44 44c14 14 28 14 41 1s13 -27 -1 -41l-43 -43c22 -32 34 -70 33 -117c-1 -48 -18 -89 -46 -120l56 -56c14 -14 14 -28 1 -41s-27 -13 -41 1l-57 57c-35 -24 -76 -38 -117 -38s-80 11 -113 30l-49 -49c-14 -14 -28 -14 -41 -1z" />
    <glyph glyph-name="dollar" unicode="$" horiz-adv-x="597" 
d="M290 -2h-12l-3 -26c-2 -18 -11 -28 -25 -28s-22 9 -20 28l3 29c-72 8 -124 29 -163 46c-15 7 -22 18 -22 35v128c0 19 6 29 15 30s16 -8 22 -25c27 -85 76 -138 154 -153l30 285c-137 42 -219 126 -205 253c10 95 95 196 254 216l3 29c2 18 11 28 26 28
c14 0 22 -9 20 -27l-3 -27c35 1 75 -4 119 -13c19 -4 28 -17 25 -35l-19 -120c-3 -20 -12 -29 -26 -26s-21 13 -23 31c-5 51 -30 86 -83 98l-29 -271l77 -32c242 -105 167 -453 -115 -453zM167 619c11 -62 48 -87 118 -118l27 257c-92 -1 -159 -66 -145 -139zM284 59
c173 1 234 183 29 272z" />
    <glyph glyph-name="Euro" unicode="&#x20ac;" horiz-adv-x="746" 
d="M429 -2c-176 0 -333 113 -372 309h-55c-21 0 -31 11 -27 31l1 3c4 18 14 27 32 27h43c-3 9 -3 22 -3 33s0 22 3 30h-21c-21 0 -31 11 -27 31l1 3c4 18 13 27 29 27h24c43 201 223 328 392 328c92 0 167 -19 229 -53c14 -8 20 -20 20 -36v-125c0 -19 -7 -30 -19 -30
c-13 0 -21 9 -25 27c-22 102 -100 155 -219 155c-131 0 -226 -93 -249 -266h301c21 0 32 -11 28 -30l-1 -5c-4 -17 -15 -26 -33 -26h-301v-30c0 -10 0 -23 2 -33h277c21 0 32 -11 28 -30l-1 -5c-4 -17 -15 -26 -33 -26h-263c31 -139 129 -247 262 -247c85 0 151 55 203 129
c11 16 21 21 29 17c8 -5 11 -15 7 -33l-23 -97c-4 -16 -9 -23 -19 -29c-54 -27 -140 -49 -220 -49z" />
    <glyph glyph-name="sterling" unicode="&#xa3;" horiz-adv-x="710" 
d="M92 358c-21 0 -31 11 -27 31l1 3c4 18 14 27 32 27h45c5 274 116 401 301 401c78 0 122 -18 163 -51c12 -10 17 -21 17 -36v-127c0 -19 -8 -30 -23 -30s-25 10 -27 29c-15 99 -58 153 -143 153c-104 0 -150 -101 -152 -339h180c21 0 32 -11 28 -30l-1 -5
c-4 -17 -15 -26 -33 -26h-175v-225c0 -38 21 -64 59 -64h93c80 0 144 31 189 93c12 16 21 22 29 18s10 -16 4 -33l-37 -114c-5 -17 -17 -25 -34 -25h-499c-20 0 -31 9 -29 22c3 15 12 22 29 25l20 4c33 6 43 32 43 54v245h-53z" />
    <glyph glyph-name="yen" unicode="&#xa5;" horiz-adv-x="848" 
d="M294 8c-20 0 -31 9 -29 22c3 15 12 22 29 25l20 4c33 6 43 32 43 54v104h-178c-21 0 -31 11 -27 31l1 3c4 18 14 27 32 27h172v63h-150c-21 0 -31 11 -27 31l1 3c4 18 14 27 32 27h124l-204 306c-22 33 -58 45 -85 51l-7 1c-16 4 -25 13 -28 28c-2 13 9 22 29 22h314
c20 0 31 -9 29 -22c-3 -15 -13 -23 -30 -25l-16 -2c-45 -6 -59 -32 -42 -58l157 -248l155 245c16 26 4 48 -41 58l-12 3c-16 4 -26 12 -29 27c-2 13 9 22 29 22h250c20 0 31 -9 29 -22c-3 -15 -12 -24 -28 -28l-7 -1c-38 -8 -77 -24 -101 -60l-200 -297h165
c21 0 32 -11 28 -30l-1 -5c-4 -17 -15 -26 -33 -26h-166v-63h144c21 0 32 -11 28 -30l-1 -5c-4 -17 -15 -26 -33 -26h-138v-104c0 -22 8 -48 43 -54l21 -4c17 -3 27 -11 29 -25s-9 -22 -29 -22h-262z" />
    <glyph glyph-name="plus" unicode="+" horiz-adv-x="657" 
d="M111 328c-19 0 -30 11 -30 30v3c0 19 11 30 30 30h186v186c0 19 11 30 30 30h3c19 0 30 -11 30 -30v-186h186c19 0 30 -11 30 -30v-3c0 -19 -11 -30 -30 -30h-186v-186c0 -19 -11 -30 -30 -30h-3c-19 0 -30 11 -30 30v186h-186z" />
    <glyph glyph-name="multiply" unicode="&#xd7;" horiz-adv-x="657" 
d="M152 492c-14 14 -14 28 0 42l3 3c14 14 28 14 42 0l132 -132l131 132c13 14 28 14 42 0l3 -3c14 -14 14 -28 0 -42l-132 -132l132 -132c14 -14 14 -28 0 -42l-3 -3c-14 -14 -29 -14 -42 0l-131 132l-132 -132c-14 -14 -28 -14 -42 0l-3 3c-14 14 -14 28 0 42l132 132z
" />
    <glyph glyph-name="divide" unicode="&#xf7;" horiz-adv-x="657" 
d="M111 328c-19 0 -30 11 -30 30v3c0 19 11 30 30 30h435c19 0 30 -11 30 -30v-3c0 -19 -11 -30 -30 -30h-435zM224 158c0 57 44 101 101 101s101 -44 101 -101s-44 -101 -101 -101s-101 44 -101 101zM224 558c0 57 44 101 101 101s101 -44 101 -101s-44 -101 -101 -101
s-101 44 -101 101z" />
    <glyph glyph-name="equal" unicode="=" horiz-adv-x="657" 
d="M111 428c-19 0 -30 11 -30 30v3c0 19 11 30 30 30h435c19 0 30 -11 30 -30v-3c0 -19 -11 -30 -30 -30h-435zM111 228c-19 0 -30 11 -30 30v3c0 19 11 30 30 30h435c19 0 30 -11 30 -30v-3c0 -19 -11 -30 -30 -30h-435z" />
    <glyph glyph-name="greater" unicode="&#x3e;" horiz-adv-x="390" 
d="M90 118c-13 -14 -25 -17 -32 -10c-8 8 -6 18 4 34l151 238l-151 238c-10 16 -12 26 -4 34c7 7 19 4 32 -10l240 -241c13 -14 13 -28 0 -42z" />
    <glyph glyph-name="less" unicode="&#x3c;" horiz-adv-x="390" 
d="M332 108c-7 -7 -19 -4 -32 10l-240 241c-13 14 -13 28 0 42l240 241c13 14 25 17 32 10s6 -18 -4 -34l-151 -238l151 -238c10 -16 11 -27 4 -34z" />
    <glyph glyph-name="plusminus" unicode="&#xb1;" horiz-adv-x="657" 
d="M111 328c-19 0 -30 11 -30 30v3c0 19 11 30 30 30h186v186c0 19 11 30 30 30h3c19 0 30 -11 30 -30v-186h186c19 0 30 -11 30 -30v-3c0 -19 -11 -30 -30 -30h-186v-186c0 -19 -11 -30 -30 -30h-3c-19 0 -30 11 -30 30v186h-186zM88 -11c-2 20 8 32 28 32h429
c20 0 30 -12 28 -32v-3c-2 -18 -14 -28 -32 -28h-421c-18 0 -30 10 -32 28v3z" />
    <glyph glyph-name="asciitilde" unicode="~" horiz-adv-x="530" 
d="M78 242c-12 3 -20 14 -16 33c24 103 127 141 213 79c67 -47 115 -43 139 -9c11 16 19 24 31 20s18 -16 13 -34c-30 -112 -146 -132 -219 -78c-66 47 -107 43 -130 9c-10 -16 -18 -23 -31 -20z" />
    <glyph glyph-name="logicalnot" unicode="&#xac;" horiz-adv-x="657" 
d="M111 328c-19 0 -30 11 -30 30v3c0 19 11 30 30 30h435c19 0 30 -11 30 -30v-244c0 -19 -11 -30 -30 -30h-3c-19 0 -30 11 -30 30v211h-402z" />
    <glyph glyph-name="asciicircum" unicode="^" horiz-adv-x="471" 
d="M400 624c14 -14 16 -26 6 -37c-11 -12 -24 -14 -40 -6l-126 65l-135 -69c-16 -8 -29 -6 -40 6c-10 11 -8 24 6 38l146 137c14 13 28 13 42 0z" />
    <glyph glyph-name="uni00B5" unicode="&#xb5;" horiz-adv-x="845" 
d="M423 -2c-95 0 -183 31 -242 94v-254c0 -19 -11 -30 -30 -30h-8c-19 0 -30 11 -30 30v883c-4 17 -17 32 -41 37l-20 4c-17 3 -26 11 -29 26c-2 13 9 22 29 22h259c20 0 31 -9 29 -22c-3 -15 -12 -23 -29 -26l-20 -4c-33 -6 -43 -31 -43 -93v-380c0 -131 76 -209 204 -209
s204 84 204 190v399c0 62 -12 88 -43 93l-21 4c-17 3 -26 11 -28 26c-2 13 9 22 29 22h200c20 0 31 -9 29 -22c-3 -15 -12 -23 -29 -26l-20 -4c-32 -6 -43 -32 -43 -54v-435c0 -181 -146 -271 -307 -271z" />
    <glyph glyph-name="percent" unicode="%" horiz-adv-x="861" 
d="M237 427c-106 0 -189 87 -189 197s83 196 189 196c107 0 190 -86 190 -196s-83 -197 -190 -197zM121 8c-22 0 -29 17 -14 37l576 747c9 12 21 18 37 18h14c25 0 33 -17 18 -37l-576 -747c-9 -12 -21 -18 -37 -18h-18zM105 624c0 -69 49 -133 132 -133
c84 0 133 64 133 133c0 70 -49 133 -133 133c-83 0 -132 -63 -132 -133zM434 195c0 110 83 196 189 196c107 0 190 -86 190 -196s-83 -197 -190 -197c-106 0 -189 87 -189 197zM491 195c0 -69 49 -133 132 -133c84 0 133 64 133 133c0 70 -49 133 -133 133
c-83 0 -132 -63 -132 -133z" />
    <glyph glyph-name="perthousand" unicode="&#x2030;" horiz-adv-x="1296" 
d="M237 427c-106 0 -189 87 -189 197s83 196 189 196c107 0 190 -86 190 -196s-83 -197 -190 -197zM121 8c-22 0 -29 17 -14 37l576 747c9 12 21 18 37 18h14c25 0 33 -17 18 -37l-576 -747c-9 -12 -21 -18 -37 -18h-18zM105 624c0 -69 49 -133 132 -133
c84 0 133 64 133 133c0 70 -49 133 -133 133c-83 0 -132 -63 -132 -133zM434 195c0 110 83 196 189 196c107 0 190 -86 190 -196s-83 -197 -190 -197c-106 0 -189 87 -189 197zM491 195c0 -69 49 -133 132 -133c84 0 133 64 133 133c0 70 -49 133 -133 133
c-83 0 -132 -63 -132 -133zM869 195c0 110 83 196 189 196c107 0 190 -86 190 -196s-83 -197 -190 -197c-106 0 -189 87 -189 197zM926 195c0 -69 49 -133 132 -133c84 0 133 64 133 133c0 70 -49 133 -133 133c-83 0 -132 -63 -132 -133z" />
    <glyph glyph-name="dieresis" unicode="&#xa8;" horiz-adv-x="559" 
d="M149 791c48 0 84 -36 84 -82c0 -47 -36 -83 -84 -83c-47 0 -83 36 -83 83c0 46 36 82 83 82zM326 709c0 46 36 82 83 82c48 0 84 -36 84 -82c0 -47 -36 -83 -84 -83c-47 0 -83 36 -83 83z" />
    <glyph glyph-name="grave" unicode="`" 
d="M256 633c-9 -13 -22 -13 -38 -5c-45 24 -98 39 -143 50c-48 11 -70 65 -40 108c31 45 90 43 116 2c25 -41 59 -85 96 -118c15 -13 18 -25 9 -37z" />
    <glyph glyph-name="acute" unicode="&#xb4;" 
d="M42 633c-9 12 -6 24 9 37c37 33 71 77 96 118c26 41 85 43 116 -2c30 -43 8 -97 -40 -108c-45 -11 -98 -26 -142 -49c-17 -9 -30 -9 -39 4z" />
    <glyph glyph-name="circumflex" unicode="&#x2c6;" horiz-adv-x="471" 
d="M377 653c13 -13 17 -23 11 -33s-18 -10 -34 -2l-115 55l-122 -59c-16 -8 -28 -7 -34 3c-6 9 -2 21 11 33l123 115c14 13 28 13 42 0z" />
    <glyph glyph-name="tilde" unicode="&#x2dc;" horiz-adv-x="530" 
d="M101 646c-10 2 -16 13 -11 32c22 89 109 120 182 66c59 -41 100 -40 122 -11c11 15 18 23 28 20s15 -15 10 -33c-26 -95 -126 -112 -189 -66c-56 41 -93 40 -114 12c-11 -15 -17 -23 -28 -20z" />
    <glyph glyph-name="macron" unicode="&#xaf;" horiz-adv-x="477" 
d="M91 678c-19 0 -30 10 -30 27c0 16 11 26 30 26h295c19 0 30 -9 30 -26s-11 -27 -30 -27h-295z" />
    <glyph glyph-name="cedilla" unicode="&#xb8;" horiz-adv-x="600" 
d="M148 3c9 16 21 21 36 16s20 -17 15 -36l-8 -30c67 -4 112 -51 110 -114c-5 -138 -191 -151 -228 -68c-29 68 55 100 75 52c19 -49 86 -37 88 13c2 46 -37 69 -87 59c-16 -3 -28 -3 -37 5c-9 9 -10 21 -1 36z" />
  </font>
</defs>
</svg>
